<svg xmlns="http://www.w3.org/2000/svg" xmlns:xlink="http://www.w3.org/1999/xlink" xml:space="preserve" width="550.00031" height="549.95496" version="1.0"><defs><radialGradient xlink:href="#a" id="b" cx="99.957603" cy="139.3748" r="45.070099" fx="99.957603" fy="139.3748" gradientTransform="matrix(-3.09764 7.93967 -7.19142 -2.80618 1577.087 -235.887)" gradientUnits="userSpaceOnUse"/><linearGradient id="a"><stop offset="0" style="stop-color:#000;stop-opacity:0"/><stop offset="0.49269524" style="stop-color:#000;stop-opacity:.02352941"/><stop offset="0.5708732" style="stop-color:#000;stop-opacity:.03529412"/><stop offset="0.63645512" style="stop-color:#000;stop-opacity:.06666667"/><stop offset="0.69579047" style="stop-color:#000;stop-opacity:.14893617"/><stop offset="0.73030394" style="stop-color:#000;stop-opacity:.21276596"/><stop offset="1" style="stop-color:#000;stop-opacity:.54609931"/></linearGradient></defs><path d="M549.194 274.997c.423-79.994-36.484-159.163-98.107-210.228C389.782 12.98 304.806-9.844 225.93 5.356c-84.018 14.42-159.213 71.15-196.518 147.77-34.7 68.85-38.064 152.55-8.836 223.939 30.52 78.024 99.268 139.712 180.065 161.784 77.74 22.602 165.118 7.72 231.252-38.999 66.603-45.838 110.714-122.803 116.387-203.525.72-6.532.907-13.183.914-19.804" style="fill:#fff;fill-opacity:1;fill-rule:nonzero;stroke:none"/><path d="m242.565 1.687-1.238.286h.635l.603-.286zm-1.238.286h-1.206l-.54.285 1.746-.285zm5.49-.286-1.809.286h.603l-1.523.317.286-.317-.984.222-.222-.222-.794.317h-.127l-1.809.286 1.524-.286-3.682.603.635-.317 1.523-.286-2.443.286-1.333.158 1.015-.158 1.714-.286h-1.714l-.603.286H236.154l-.286.158-.317.032v-.19l-.572.317H233.71l-.444.254.952-.159-1.111.222.127-.063-.254.032-.127.031h-.952l-1.238.286h-.603l-1.523.317H229.457l1.84-.317.985-.19-.222.095v.031h-.032l-.445.064H231.298l-.095.063h-.032l-1.714.254-1.523.286.92-.286-1.047.19.444-.19h-.317l-1.841.286h.317l-.317.159.92-.16h.318l-1.397.255.159-.095-.889.158h.318l-1.429.254.477-.254-1.524.318-1.27.285h-.253l-.19.096-1.016.222-.064.031-1.142.254h-.635l-.222.096-2.507.54h.317l-.92.285h-.318l-.286.317h-.634l-1.81.286-1.237.317-1.523.317-.603.286 1.523-.286-.92.286 2.158-.603-.635.317-.889.286-4.887 1.84-2.444.286h1.238l-5.205 1.524-1.81.92h-.602l-2.158.603 1.428-.222h.031l.381-.063-.761.222-.127.032-2.476.666v.286l1.524-.603h.92l-2.126.603h1.206l-2.127.317.318.286h-.318L189.85 16l.317-.92-1.238.317-1.523.89h1.238l-3.967 1.522h.603l-1.429.286-1.618.952-.603-.317-2.127.603 2.412-.286-1.523.286-.603.635-2.888.603 2.285-.603-.92.285 1.523-.285-.603-.635-.317.635-.286-.318-2.507 1.08-.54.126 1.206.318-2.444.317v.603l-1.809.286.223.222 2.824-.825v.317l-4.284 1.206-2.127.603-1.079.825-.444.095h.603l-1.777.89-.953.348-1.84 1.206 3.046-1.206 1.841-.92-2.444 1.809v-.603l-.285.317-2.158.603h1.237l-1.523.318v.285l-1.523.318.603.285-1.206.318h.603l-.92.317.317.286-2.159.92 1.841-.603-2.73 1.206v.317l-1.523.92 1.206-.317-1.84.603 1.523-.285-1.523.603h.317l-.92.285h.92l-1.523.318h.92l-1.523 1.206 3.967-.889-2.761 1.206 1.84-.603-2.443.92 1.523-.317-1.206.92 1.206-.602-2.126 1.523 1.809-.92.317.603.317-1.206h1.81v-.635l1.84-.603h.286v-.603l1.523-.318-.285-.285h1.523l-.603-.318 1.809-.603.92-.92.318.317.285-.92 1.841-.317 1.206-.889v.603l.92-.92.318.317v-.317l1.523-.318v-.603l.603.318 1.524-.92-.603-.318h1.523l2.127-1.81.285.286 1.841-.603.603-.285 2.126-.318 3.365-1.523.317.317-1.08.445-.443.444 2.729-.603.603-.603.92.317 6.697-2.76 2.126-.286 1.841-1.238-.92.92h2.126l.92-.603v.286l5.174-.603 9.14-2.444h.635l-3.047-.603-3.364.603-.603.317-.318-.317h-.603l3.65-.603H208.732l3.65-1.206.635.286 2.412-.286-2.412-.603h1.81l-.287-.635 2.127.92-1.238 1.524 2.444-.603-1.206.603h1.206l.603-.92 1.84-.603h-.92l1.524-.603-1.81.317 1.81-.635-.92-.603-1.81.603.92-.603h1.207v-.603l-2.127.603v-.603l3.333-.317h-2.412l1.523-.286v-.317l.286.317 2.126-.317.317-.603v.603l.984-.222.54.54 2.73-.318 1.237-.286-.92-.317-1.524.317.603-.317 2.127-.92 1.237.602 1.524-.285h-.92l-.604-.318 1.524-.603h.285l-.603-.317 1.238.317h.286l1.84-.603h-.602l-1.238-.317 2.444-.286h-1.524l.603-.634h4.285l1.206-.603h-.92l-.604-.286h2.126l-.285-.317h-.317l-1.841.317 1.523-.635 3.682-.603 4.57-.92h-2.761l.92-.286H247.737l.096-.095 2.634-.222h-2.412l4.253-.286 3.047-.634h-1.841l-2.126.317h-1.207l-5.173.603 5.776-.92-4.57.317 2.73-.317h-4.253l1.84-.286h3.047l3.333-.317h-1.81l1.524-.286-5.49.286 2.443-.286-3.364.286.603-.286zm-23.77 9.426-1.81.317 2.444.286-.635-.603zm-12.791 4.57 3.65-.286.635-.634-4.285.92zm-25.739 7.776.159-.159-.286.222.127-.063zm-.127.063-.952.381v.317l.952-.698zm-11.68-.92-.285.095h.35l-.064-.095zm-.285.095h-.54l-.222.222.762-.222zm-.762.222-1.3.381 1.205-.286.095-.095zm144.31-20.026 3.967.92 1.524.286-.286-.286-2.158-.317-3.047-.603zm5.49 1.206h-.92l1.841.317h.318l-.92-.317h-.318zM298.93 3.21l-.603.603 1.81-.317-1.207-.286zm7.014 0-.92.286h-.318l1.524.317-.286-.603zM277 3.496v.317h-1.524l.889.603 1.238-.317h1.523l-1.523.317 3.332.318 2.444-.635-2.126-.286h-1.206l-.318-.317-.317.603-1.81-.254v-.032h-.317L277 3.496zm44.464.317 1.84.603 3.333.603h.92l-.92-.285h-.413l-1.3-.286-.096-.032h-.063l-1.46-.317-1.524-.286.92.286-1.237-.286zM272.43 4.1l-3.047.317 1.809 1.206 2.126-.603v.318l1.238-.318-1.523-.92-.603.635-1.524-.318 1.524-.317zm2.126.92.92.318-3.967.603.286.317 3.047-.317-2.127.317 1.238.286-2.158-.286 3.047 1.206L277 5.337h.888l1.238-.318-1.523-.285-1.524-.318-.603.318-.92-.635v.92zm3.332.318.92.285.604-.285h-1.524zm.92.285.318.92 1.524-.285.285.286 1.238-.286-1.523-.635h-1.841zm46.623-1.206 1.809.445.159.031 4.443 1.048-2.158-.603-1.524-.318-2.729-.603zm7.934 1.841 5.46 1.206h-.286l1.11.317h-.19l.571.096.635.19-1.206-.286h-.317l.92.286 1.206.92 2.126.603-1.523-.285 5.205 1.523-2.444.286 4.856 1.523 3.65.92h-.603l-1.428-.222-.096-.095h-.603l-2.443-.603v.318l1.84.603h-1.65l-4.76-1.524 2.76.92 1.524 1.207 3.967 1.237 2.127.89 2.729 1.522 1.84-.285 2.73.603 3.047 1.206 1.238.92 2.126.603-2.444-.603-5.173-2.126-.92.317 3.967 1.81 2.73 3.046-4.857-.92 2.127-.603-3.65-2.73-3.047-.92-3.681-1.84-3.333-1.207-3.046-.92-3.65-1.81-1.841-.317h-1.84l3.68 1.841.286.889 3.65 1.523 1.841.92h1.206l3.364.92 1.84 1.524-6.727-1.84h1.237l-8.854-1.207v.603l3.681 1.238h-1.238l.318.286.603.603-3.047-1.206-.92.603h-2.73l.603.92h-1.206l-1.238.92 5.174 3.968h3.364l-3.364.285-5.46-4.252 1.524-.92h-1.238l-1.206-1.207.92-.317h-.92l-.317 1.206-.92-.603-3.936 1.238 1.524.603h-1.841l1.206 1.206-2.412.317-3.047-1.238 1.81-.603-.921-.603-6.094-.92 2.158.603 4.57 4.284-4.284-.92-1.81.92-.634.603-.286.318 1.206.888 1.841 1.238-.92-.317-3.364-.286-.603.286.317-.603-3.364-.603v.92l3.65.889-.603 1.238-6.094-1.524-2.126-1.84.603-.921-3.967-.889.92-.317-3.967-1.206 14.345 1.809.889-.603 1.237-1.206-3.65-1.523-.634-.318-9.14-2.126h-2.73l-.317.92v-.92h-2.127l-.603-.603h1.841l-2.158-.318-.889.603-1.84-.603-.92.318-1.524-.635-.603-.286 2.73.286.92-.603-3.65-.603-1.206.603.603-.92-1.524-.286-.317 1.206h-.92l-.286-.92-1.523 1.523.603-1.206-2.127-.317-1.238 1.523h-.285L282.173 16l.603.286.603.635-1.523-.635-1.81 1.238h-.317l.318-.318.285-.92-.603.635-.317.603v-.92l-1.206.317.92.888-2.444-.603-.603 1.524-2.126.317h-.317l.317 1.206-.92-.92-1.238.317.92.318h-1.809l1.81.603-2.73.603 2.126.317-3.967.286.92.317-1.682 1.11-1.047.096.889.603-.889-.286-1.523 1.524 1.809-.318-3.333.92h1.81l-1.81.318.889.603-1.524.286-.285-.603-3.364 2.126H260.845l2.127-1.206-1.206 1.524-2.444.317v-.635l-2.761.318v1.523l-1.523-.603 1.237.92-1.46-.285-3.713.285.889.603-.603.603-1.206-.317.603.317-2.444-.317v.635l-.603.888h1.523l-1.84.318h1.523l-1.206.603 3.047-.286.603-.317 1.237.603.603-.92.286.634-1.809.889-.603-.603-3.967.317 1.206.286h-1.523l.603.635 1.237-.318-1.84.92.603.604.92-.603-.92 1.206 4.284-1.524-5.49 2.127.92.92 2.444-.92-2.158 1.237h1.84l-.92.603-1.523-.603-.286 1.206 3.047 1.524 3.046-.286 3.65-2.444h2.127l1.206-2.126.634 3.935 1.206-.285-.603 1.206 1.206-.92-.92 1.523 2.761 3.047-1.238.634.635 2.412h3.65l1.523-1.809h3.047l2.444-3.364-.635-2.73h1.238l-1.84-.317 3.363-.603.286-.92.635.92 1.809-1.206-1.524-.317 2.444-.603-2.73-2.126-1.84-.318 1.206-5.173.92.603 3.968-1.84 1.206-.286 1.84-1.524-1.206-1.84 1.206.317-.317-1.238 1.523.635.318-.92 3.65.285 2.443 1.523-8.22 4.888 2.127 2.73-.603 2.158 2.73.888 1.237-.285-.317 1.206 12.79-2.127.317.92 4.57.92-5.173.287-.317.92-5.49-.603-4.857 1.206.889 2.126h2.158v2.762l-1.84.92-3.047-2.158-2.127.317-1.523 2.73 1.206 4.284h-2.127l1.206-2.126-1.206 1.809-1.523.317V50.435h1.206l-.889.286-1.84.92 1.206-1.206-2.73.89-2.444-1.524-9.14 2.444-.286 1.237-4.284-2.443-6.094 1.206.92-1.206-2.729.285-1.84-1.523.92-2.127 3.967-2.126-2.158-.603 1.84-2.761-5.49 1.523-2.126 6.411.92-.317.92 1.238-1.523.285 3.047 2.158-3.047-.92-.635 1.523-1.206-.92-2.73.317.89.889-4.253-.286-1.841.92.92 1.207-1.809.92-.92-1.84-2.761 2.76 1.523.89-3.65.316 2.127.603-8.22 1.524-.286 2.126-1.238.635-4.57 2.126-5.49-1.523.634 3.65-4.284.317-.603-1.238-5.49 1.238 1.523.889-1.524-.286.318 1.524 5.49 1.206.603 3.046 2.127.603-1.206 2.159.285.603-3.967 7.014H193.5l-1.524-1.238-6.093 2.761 1.238 2.412-3.968 7.934-3.967 4.888 2.127-.635-1.81 2.158h1.207l-2.127 5.174 7.617-.92 3.047 4.887 4.856-2.761h8.251l3.333-3.047 2.761-.286 1.206-2.761 2.126-.92.92-.603-.602-.603-.603-.92.603-2.127 1.206-1.206 3.967-3.682 8.537-3.047V87.6l1.524-1.523 2.73-.92 6.696 1.84 9.775-4.888 4.57 1.524 2.412 5.49 16.154 8.538 1.841 4.57-2.126 3.047 1.523.285 2.127-3.332 2.126-.92-2.444-2.444 1.238-2.73 3.65.603 1.809 1.81.635-1.207-9.14-4.887.602-1.524-4.887-.603-3.968-5.173-3.935-2.126-.635-4.285 4.888-1.206.92 3.364 2.444-1.84 4.57 6.41 3.333.286 2.76 1.841-2.443-.603 6.094 1.809 3.046 2.444-.92 5.173 2.73 2.444 2.76 2.73 1.524-.286-1.523.92 1.523 1.809 7.903.603-.89.92-5.807-1.206-.92 1.524 2.443 3.967 1.524-.92 1.523 2.443.318-1.523 2.443 1.523-2.158-4.284 3.047.317-2.126-1.523 1.84-.603 2.127 1.206v-1.841l-6.094-2.412 1.84-.635-.316-1.523 1.523.92-3.364-4.856 1.238-.634 3.967 2.443-.92-1.523 2.443.92-2.444-2.126 4.856-.92 6.094 1.206-1.81 2.158 4.253-3.364h5.174l-5.46-5.174H310.8l3.65-3.65V80.27l.635.92 1.809-.603-.603-3.047.603.603 2.126-1.523.317-1.524 3.65-1.206 1.841 1.206-3.047-.285 1.81.603-.604.603 5.808.317.603 1.206-3.364 1.206h2.126l1.524 2.761 2.158.92 7.617-3.363h-3.682l-3.046-2.73 3.046 3.047-1.809-.317-2.126-1.841 1.523-2.127v1.524l2.127-1.81 9.743-2.157-1.523 2.158-2.73-.318 3.65 2.127-1.238-.603-1.206 3.047-2.729.603 12.79 5.808 5.49 2.412 2.413 3.364-.603 1.523-3.333 1.84h-6.094l-7.013-1.237-5.808-3.047-5.459.318-6.728 3.332-7.3-.603.603 1.524 2.761.317-3.681.286.317.92h-7.934l-1.81 1.84-.317 1.524 3.364-.317-.603 3.364 1.81.92-1.81.286-.92-1.206-.603 1.523 3.936.92-.89 1.207 2.73 1.523-1.206 1.206 3.936-.286-3.333 1.524 3.967-.92 4.856 2.729h2.761l.286-2.73h2.126l6.729 3.365 4.253-.92 1.84-2.127 2.73.889 2.73-.89-.286 4.571 1.809 4.253-4.253 12.79-8.22 1.238-.92-1.841-3.65-.317-7.332 3.046-8.505-2.412-7.332-.317-1.206-1.84-6.696-.89-.92-1.84-5.491-1.206-6.411 3.047v5.458h-.286l-4.284 2.159-4.57-2.444-8.506-2.127-2.158-3.967-7.3-2.126-4.253.285-8.251-3.65-.603-1.84 4.887-3.936-2.444-3.681 2.444-3.65-2.444 1.524-2.443-2.444-7.014 2.158-5.46-1.238-4.284 1.84-5.173-1.237-10.981 1.84-4.57 2.445-3.333.603-4.57 2.443h-3.047l-.317-1.523-6.38.92-2.157-2.76-1.81.602-4.887 7.014-10.664 5.808-3.332 4.57-.92 5.46-.318.317-2.444 3.046-6.093 4.253-5.46 1.238-3.966 5.49-3.65 2.127-3.047 6.38-4.221 3.427-6.443 9.394-1.523 4.253.889-1.524 1.84 4.253-2.126 3.967.603 7.332-3.65 9.426-4.284 4.284 3.364 3.936-.318 2.444 3.682-.603-3.047 1.206-1.238-.89-.92 3.936h2.158l-2.158.92 3.047.318-1.524 1.206 1.841.317-.603 1.207 4.253-1.207-2.444.92 1.84.89-2.125 1.237.92 1.524 1.206-.603-.603 1.206 1.523-.92.603 4.284 1.841.889 1.81.92-.921 1.523 1.523.603.318 3.967 1.523-.285-2.126.603 3.332 3.332-.286 1.841 5.173 2.73 10.061 9.457 5.173 2.127 6.094-3.047 9.458-1.206 8.823 2.444 9.14-4.285 6.411-2.444 11.267-2.412-1.84 1.206 4.57.318 3.046 2.729 1.523-.92-1.523 1.237 2.126.286-1.523.317.635.92 1.523-.92-1.523 1.81 3.047 4.284 3.332-.317v-1.206l.603 1.206-.286-1.524.92 1.524.604-1.81 1.206 1.207 4.284-.318-.317-1.809 1.523 2.127 1.524-1.206 1.523 3.65 2.444-.604.603 1.206h-1.206l1.809 3.65-3.047 9.14 1.84.318-.316 3.047-1.524-.318 3.047 1.524-2.126.603-.92-1.206-.921 4.887h-2.127l4.57 8.22 10.061 9.744 2.127 6.093 2.443 1.206-2.126.635 5.49 10.95-1.84 3.046 2.126 4.285 2.127 4.856-.889 5.807-5.205 5.46-3.332 11.298.603 9.743 12.504 20.407 2.127 16.44 9.743 15.552 4.253 7.014.317 3.332-1.84 1.238 2.158 5.776 1.523-.92 4.57 3.046 10.347-3.332 8.823.92 8.854-2.443 13.108-9.14 4.253-5.491 1.84-2.127 4.856-3.967 3.967-10.346-.603.888-1.237-1.523 13.425-7.903 1.206-8.537-2.73-7.3.286-3.967.92.92 6.697-4.57 2.76-4.57 13.711-6.41.603-1.207 4.253-6.093-.888-8.855.888-.92-.603-6.697 1.524-3.047-2.73-2.126-1.238-.92v-.286l-1.206-7.935.92-2.126h-1.237l1.84-3.967-3.363-4.57 2.158-6.411 3.65-7.617.92-1.81 3.65-2.126-.92-1.523h2.443l9.744-12.822 10.346-8.22 7.617-9.743 10.06-23.454v-2.761l-.285-1.524 2.126-.603h-1.523l.286-6.38-2.127-.92-4.856 3.047-8.251.92-3.65 2.127-2.73-.92-4.887 2.443-6.38-5.807-2.76.317 3.65-2.127-.604-2.126-10.06-10.06-4.253-1.524-.92-1.523-.92-.92-.287 1.84-6.41-13.71-5.491-3.682-2.412-10.347.889.603-2.413-4.57-5.49-3.967-1.523-4.253h1.206l-3.047-2.443-8.22-14.314-4.57-4.888-1.206-3.935 3.935 5.776 4.57 3.364 1.841-7.331-.92 5.808 2.76.286 10.03 12.187 1.523 3.65 4.57 2.443 3.682 6.094 1.206 5.808 3.65 3.047 3.65 3.046 9.775 13.711.603 6.982 4.855 11.902 6.411-.318 2.127-3.046 11.901-3.047 2.127-2.73 10.346-4.57.603-3.967 8.855-2.444.603-3.65 3.364-.603.603-3.65 3.332-1.237-1.206-5.49.92-1.81 1.207.92 2.126-7.934-5.173-5.776-5.49-1.84-2.73-2.444-2.444-4.856-.285-3.047-5.49 9.426-5.174-.286-1.524 1.206-3.364-1.523-.92-7.014-2.126-.286.603 5.46-4.253-5.46v-2.76l-5.808-4.254-4.856-7.331h-1.523l1.523-.889-1.238-1.84-.285-.318 3.332.318-.286-1.524 2.73 1.524 1.84-.603.604.603 6.696 8.823 3.967 1.237 5.777 3.968 3.967.888 5.173-3.047 3.967 6.094 9.458 1.84 5.776 1.524 13.108-2.73 1.84 3.333 1.81.318 1.84 3.65h.603l-.444-5.65-.159-1.65-3.65-5.808 3.65 5.49.159 1.968.444 4.729.92.92h.92l.287 1.524.92-1.206-.317 1.523 3.046 3.047 3.047-.635v1.84l-3.047 1.207 7.332 7.014 2.73-2.127-1.207-5.173 1.523.286-.603 1.238.603 1.523h.92l-.317 1.523 1.841 2.444.286 4.253 6.696 17.075 10.664 22.85 1.841 5.46 1.523 5.204 2.73 3.936 1.238-1.524v-3.046l1.809-1.206-.603-.92v-2.444l.317-1.207 1.206-.317-1.523-6.38v-7.616l-2.73-8.22v-2.761l1.206-.286v-2.444l1.84-1.237-.602-2.412 1.523-5.808v-4.856l1.524-2.444-.318-3.364-1.206-2.73.889-1.84-.603-2.127 1.523 2.73-.285-2.127 1.206 2.127-.603-2.127.603 1.524v-1.524l.603.92-.603-2.443 1.206 2.761-.889-3.681 1.206 2.76v-.602l-1.206-2.762h.889l5.808 11.267-.318-1.523.603 1.84 1.238.921 1.206 2.73 3.047 8.22 1.84 7.33v-1.523l.286 2.127v-1.206l.92 1.523-.285-1.84.603 1.84-.317-2.444.317-.603-.603-1.84.603 1.523v-1.523l-1.238-3.365 1.841 4.57.317-.285 2.127 7.903 1.809 6.093-.286-1.809 1.524 5.173.92 4.57.286.92.603 4.571.634 3.333v-1.524l.286 1.524.92 8.537.318-.92 1.523 6.696v.032l.032.095.254 1.11v.604l1.238 10.664.888 7.014 1.238 7.616v-1.84l.286 1.523-.603-6.982-.603-8.252-.318-3.935-1.523-7.014-.603-1.524-1.206-7.617-.603-2.443h-.318l-.603-3.365-.317-1.809-1.206-8.22v-.634l-.095-.254v-.032l-.222-1.238-.92-3.332.317-.92.92 3.967.286-.318.92 2.444 1.301 5.205.54 2.73v-.921l.92 3.332-.635-2.729-.761-4.253.761 3.65-1.523-7.617-.666-2.793-2.38-9.108-.223-1.492-.222-.825-.444-1.333-1.175-3.809.445 1.174-.508-2.538-.286-.318-3.047-9.426-1.523-4.284-.635-1.81-.603-2.126v.286l-.349-.889-.857-2.444.286.889-.603-1.523-.19-.476.031.19-.444-.92.222.222.095.095-.317-.635-.857-2.158-.064-.254.318.603-1.301-2.824-.223-.54.064.254.127.349.032.159.031.063.032.095.127.19.793 1.937-.603-1.206-.603-1.524.223.445-.54-1.365-.603-1.206-.603-1.84-.92-1.524.603.92-1.206-2.761-.603-.889v-.317l-.92-1.523-.604-1.841v.317l-.92-1.84.603.92-1.524-3.047-.92-1.523v-.286l-.92-1.523-.603-1.238-.286-.286-1.238-2.444-.285-.317v-.603l-.92-1.84-.318-.286-.92-1.841.634 1.523-.92-1.523-.571-1.143.57.857-1.237-2.443-.286-.286v-.032l-.126-.095-.19-.508-.287-.444v-.159h-.095l-.825-1.238.413.73-.413-.412v-.603l-.317-.318-.286-.603-.317-.317-.318-.603-.285-.286-.603-1.237-.318-.286-.317-.635-.127-.127-1.682-2.92-.317-.285v-.032l-.286-.571-.317-.318-.318-.603-.603-.603-.286-.634-.317-.286-.603-1.238-.317-.285-.603-1.238-.603-.286-.603-1.238-.318-.285-.603-1.238-.603-.286-.317-.92-.92-1.206-2.444-3.047-.286-.635-.317-.285-.603-1.238-.603-.286-.318-.603-.285-.317-.318-.603-.92-.92-.286-.603-.92-.92-.317-.572-1.81-2.158v-.318l-2.158-2.443-.888-.92-2.761-3.333-.603-.603-.318-.635-.888-.889-.318-.634-.603-.286-.317-.603-.603-.635-.318-.603-.603-.285-.285-.635-.635-.286-.286-.603-.603-.634-.634-.286-.286-.603-1.523-1.524-.318-.634-.603-.286-.317-.603-.603-.317-.286-.603-.635-.603-.603-.318-.285-.603-.635-.317-.286-.603-1.523-1.523-.603-.318-.317-.603-1.524-1.523-.603-.286-.317-.635-.603-.285-2.444-2.444-.603-.317-.317-.603-.603-.286-1.524-1.523-.603-.318-.317-.603-.603-.317-1.523-1.524-.603-.285-.318-.635-.603-.286-1.523-1.523-1.206-.603h.285l-.285-.317h-.159l-.159-.318-.285-.127v-.158h-.318l-.92-.92-.286-.286v-.032l-.317-.286-1.206-.603-.317-.635-.603-.285-.92-.92-.604-.318.603.635-.92-.635-.603-.603-.318-.286-1.015-.793.825.603-.698-.73-.635-.317.254.253-1.46-1.174-1.206-.984-.38-.254-.54-.285-.064-.127-.254-.159-.349-.349-.825-.54 1.777 1.492-2.126-1.523-.603-.318h.317l-.793-.54-1.048-.666.318.318-3.364-2.507-3.872-2.73-.381-.222v.254l1.555 1.079-1.873-1.08-.317-.602.635.349v-.032l.38.254 1.143.667-.635-.635-1.809-.889-.317-.635-2.444-1.206-.603-.603-.603-.317-.317-.286-1.206-.634-.603-.603-2.444-1.206-.92-.92-2.444-1.207-.159-.095-.032-.032-1.618-.793-.286-.286 1.904 1.08-2-1.175-.539-.54-2.539-1.269-1.428-.857.825.54-.507-.254-1.238-.603-.286-.286-1.84-.92-.286-.318-1.841-.92-.317-.286-1.206-.603h-.603l-.318-.317-2.444-1.206-.285-.318-1.84-.92h-.287l-1.237-.603-4.253-2.126h-.603l-.635-.318-.286-.285-3.65-1.841h-.634l-3.047-1.523h-.603l-2.444-1.207h-.603l-2.443-1.237h-.603l-2.444-1.206h-.603l-1.81-.92h-.634L368.086 16h-.603v-.317h-.603l-1.238-.603h-.603l-1.206-.603h-.635l-1.206-.603h-.603l-.158-.064.444.064-.793-.254-.16-.063-.158-.064-.635-.222-.666-.317h-.317l-1.048-.35-.476-.253h-.603l-.603-.318h-.444l.73.318-.825-.318h-.096l-.317-.159-1.174-.444H353.772l-.761-.254 1.047.254-1.428-.412.222.095-1.206-.286-1.238-.317 1.524.317-.318-.127.381.064-.159-.064-.57-.159-.858-.349.159.16-5.935-1.683-2.761-.603-2.285-.54-.127-.063h-.159l-1.365-.317-.634-.286h-.889l-1.238-.317-1.809-.286zm18.63 4.507.127.063h.127l-.254-.063zm.127.063h-.19l.698.19-.508-.19zm1.936.603-1.523-.603h-.254l1.777.603zm1.206.445.413.158h.095l-1.397-.603.89.445zm74.075 35.514 2.73 2.063 4.094 2.856 1.301.793-.825-.54-2.54-1.872-.507-.254-.095-.19-1.365-1.016-.666-.317-.54-.54-.063-.095-.096-.031-.54-.254-.285-.318-.603-.285zm9.077 6.347.508.35-.159-.318-.603-.286.254.254zm1.587 1.174.571.35-.285-.254-.445-.254.159.158zm89.88 117.397.064.254.54 1.27-.604-1.524zm.064.254-.159-.35.19.509-.031-.16zm12.346 40.211.507 1.841-.127-.571-.92-3.65.54 2.38zm2.19 10.41.349 1.81h.285l-.317-1.207v.92l-.318-1.523zm.634 3.332v-.603l-.254-.73.254 1.333zm0 0 .825 5.047-.222-2.285-.603-2.762zm.825 5.047.064.761v-.317l-.064-.444zm-18.82-48.305h-.603l1.206 2.127-.603-2.127zM138.72 162.913l.254-.381-.92.92.666-.54zM254.815 30.346l.54-.032-2.444-.317 1.904.349zM323.59 6.86l-.603.92h-2.73v.286l-1.237.92 2.444.603-.603.603.285.032-.603.603h2.762l-.92.603h3.046l-1.84-.603 1.523.286-1.524-.603 1.524.317-1.524-.635 1.238.318-1.84-.603h1.523l-.286-.318-.635-.92 2.444-.889-2.444-.92zm-.285 4.57-1.524.286 1.206.317-.92.318h1.84l-.602 1.206 1.523.603 1.809-.286 2.761 1.206 4.57.317-6.41-1.84-1.81-1.206-.317-.635-2.126-.286zm-88.072-2.76-1.809.634h1.524l.285-.635zm110.32.316 1.206.318 1.523.603h.317l.603.285 1.81.635-2.73-.92h-.603l-.317-.318h-.286l-1.523-.603zm-116.096.92-1.206.286h1.524l-.318-.285zm-4.887.921 1.523.286-1.65-.254.127-.032zm113.969.286-.92.317 1.205.286h.635l-.92-.603zm-114.572.603-1.81.317h-.92l-.603.603 1.206.318.825-.826 1.302.223v-.635zm-29.865.317-.952.381.063-.063-.857.285h.222l-.507.159.825-.159 1.206-.603zm-2.127.603-.857.318h-.063l-.222.127-1.301.476.92-.286-.603.286.92-.318.857-.285h-.254l.603-.318zm-.603.318.54-.096.285-.19-.825.286zm-1.523.603h-.603l-.667.317h-.253l-.699.286h-.222l-1.142.57h.063l.794-.253.888-.317h-.095l.222-.064-.127.064.92-.286.921-.317zm168.367-.794.571.19h-.159l-.412-.19zm-9.268 1.048 4.825 1.269-2.762-.603-2.063-.666zm5.777.19 2.094.762 4.253 1.523 1.238.635.603-.318 2.126.603-2.73-.285-1.523-.635L359.55 16l-2.73-1.237.92.634-3.014-1.396zm-169.129.762-.825.412 1.396-.412h-.57zm0 .317-1.428.413-.19.095 1.618-.508zm-1.618.508-1.429.412-.634.19v.033l-.286.063h.286l1.237-.286-.857.16 1.46-.477.223-.095zm-2.35.698-1.522.635-2.127.603-2.158.92 1.238-.317-2.127.603h.603l.603-.286h.318l1.047-.444.762-.19 1.238-.604 1.206-.285.92-.635zm0 0 .287-.095v-.032l-.286.127zm.287-.127.412-.159h-.412v.16zm.412-.159h.222l.603-.317.096-.032.698-.222h.063l-.571.254.73-.19.159-.096h-.16l.191-.063-.222.032-.031.031h-.35l-1.428.603zm-6.792 2.73-3.364 1.238-4.57 1.809-.603.317-.317.286h.317l-2 .857.477-.254 1.206-.603v-.286l-2.412 1.206v.317l-.92.286-3.048 1.84 4.57-2.126-1.237.92 2.158-1.237-.317.317 1.206-.603h.317l1.206-.634h.635l1.11-.826 1.016-.38-2.126.603 1.523-.603.286-.318 1.809-.508.952-.38-1.84.603 1.523-.603-.92.285-.921.318 2.158-.92-.635.317 1.524-.635h-.286l.92-.286.603-.317zm-2.76 1.238-.604.285 1.524-.603-.92.318zm-8.506 3.332-3.047 1.238-.92.603-2.444 1.206-.603.317h-.349l-.318.159-1.174.444-1.206.603-.92.603-.604.318-1.523.603-3.967 2.76 6.601-3.744.698-.222-4.252 2.443 2.73-1.523 4.887-2.444 1.27-.762-.667.445.984-.603 2.38-1.111 2.444-1.333zm-2.444 1.333-.318.19 1.238-.603-.92.413zm-4.92 2.031.635-.317 1.143-.571-2.031.888h.254zm179.19-10.98 1.206.602 2.444.635v-.318l-.603-.317h-.318l-2.73-.603zM186.802 16l-.92.286-1.524.635.603.285-1.523.318 2.158-.318 1.524-.92.603-.286h-.92zm176.714.286h.317l2.412.92-2.412-.603-.317-.317zm-87.754.92-1.206.92 1.809-.92h-.603zm18.884 0-.286 1.238-2.126-.317 2.412-.92zm31.388 0-.286.603 1.81.635.92-.635-2.444-.603zm40.529 0 1.523.318h-.92l-.603-.318zm-94.768.92-1.524.604h.92l.604-.603zm.635 0-1.238 1.207 3.047-.889-1.524.286-.285-.603zm99.02.921h1.206l-.317.286-.889-.286zm-68.267.286 1.238 1.238-1.238.285v-1.523zm-12.187.317h3.364l-.603.603-2.761-.603zm-121.237 1.968-.317.159-.92.317 1.237-.476zm190.107.476.286.603-2.412-.317 2.126-.286zm-144.722.286-1.841.92h-2.444l-.889.92.286-.92-2.444.92-.285-.603-.318-.317-3.332 1.84 1.809-1.523-1.524-.92-.603 1.206-.603-.603-.92.92-.92-.317-.286.635h2.73l-2.127.603.92.285-3.967.318 3.047 1.206-3.967 1.238 3.047-.318 1.206.318 1.237.603 4.253-.603 4.57-.92 3.65-1.524-.603-.318h1.238l-.317-2.126 1.523-.603-1.84.603-.286-.92zm161.765 0 1.84.317 2.445 1.206v-.286l2.126.603 3.65 1.841-3.967-1.84-1.81-.604.286.286 7.014 3.682.54.38 1.587.826 5.49 2.443-5.49-2.126-1.587-1.143-7.236-3.745-3.047-1.206-1.84-.634zm-75.25.634.921.889-1.523-.286.603-.603zm-131.011.889v.317l-2.285.445 2.285-.762zm190.424 1.523 5.173 2.762 1.238 1.523 10.664 3.65 7.902.317 6.729 1.524.444.19.444.095 4.57 2.127 1.238.317 2.127.92 5.776 2.444 2.158.889 3.047 1.523-5.205-2.412-7.617-2.761-1.523-.92-5.015-2.222-5.332-1.11-8.22-.318 2.444 1.238-14.63-5.491-2.127-1.84-4.285-2.445zm-66.109.92 3.047.921h-2.73l-.317-.92zM310.8 27.87h.317l2.73.92h-1.524l.603 1.207-2.126-2.127zm14.028.318 2.444 1.206 8.22 2.443-8.22-2.126-2.444-1.523zm-29.262.285 5.49 2.761-2.443-.92.317 1.174-1.523-.571.603-.92-2.444-1.524zm14.314.318 1.237.603-1.523-.286.286-.317zm-15.837.603.603 1.84.317-1.237 1.206.634-.888-.92 1.523.603-2.761 1.84.285 1.334.286.158 1.555-.285-.285.92-1.27-.635-.254.032-.032-.19-.888-.445.603-.888.603-.92-.603-1.238-1.206-.286 1.206-.317zm18.598.603 3.047.92 3.046 3.047-.92.603-2.444-.286 1.841-.317-3.967-1.524-1.524-1.809 2.127 1.206-1.206-1.206 1.809 1.206.92-.317-2.73-1.523zm-163.32.634-1.143.413-.19.127 1.332-.54zm-1.334.54-.19.063-3.047 1.524v.285l1.523-.888 1.714-.984zm-3.237 1.587-2.475 1.46.666-.254 1.81-1.206zm-2.475 1.46-.223.095.572-.35-1.206.604.412-.159-3.173 2 3.173-1.968-.127.127.572-.35zm-3.618 2.19h-.286l-.317.317.603-.317zm9.52-5.364.223-.127-1.523.603 1.3-.476zm153.483-.413 1.523.286v1.523l-2.73.92 1.524.318-2.444.286-1.523-1.206 1.84.285 1.524-.603-2.412-.92h3.015l-.317-.889zm-11.87.889h2.126l.318.635-2.158.285v.92l2.158-.92-1.524 1.238-.634-.317v.317l-.286-2.158zm16.154.92 5.776 2.762-2.729 1.523-4.887-3.047 1.84-1.238zm-165.161 3.365-.889.476.603-.19.286-.286zm-.889.476-.317.127-.508.349.825-.476zm-.825.476-1.015.57-1.841.921-.889.603-1.238.603-3.65 2.127 2.444-1.524-2.76 1.524 3.363-2.127h-.317l-3.047 1.841-6.696 4.253-3.968 2.73-3.427 2.443 1.015-.603-1.237.92h-.19l-.413.286-7.617 5.49-1.524 1.238-.317.286h.317l-.317.317h.317l-4.253 3.333 3.365-2.825.57-.825-1.808 1.523-.318.318-.285.286-.19.095-1.556 1.237-.095.19-.413.223-.349.254-.095.095-.349.35-.222.126h-.032l-.38.19-.064.191h-.032l-.032.095h-.158v.318h-.318l-.285.317h.285l-.92.286-.286.603-.603.317-1.238 1.206-.603.317-.317.603-1.206.603-.317.635-.603.286-2.127 2.126-.603.318-.317.603-.603.317-1.65 1.65-.19.159-.287.317-2.443 2.444-.857.794-.064.127-.285.285-.19.095-.445.413v.095l-.889.825-.317.413-.825.603-.064.063-.19.16-.476.443-.032.032v.032l-.254.476-.603.317-.603.603-.317.603-.286.635 2.444-2.761-.92 1.238 2.126-1.524 1.206-1.523-.286.603 3.65-2.761-2.126 1.84H85.052L83.53 80.27l.888-1.206-3.65 2.729-2.126 2.444-.92 1.238 4.284-3.968v.603l.889-.92 2.761-1.523.92-.603.477-.73.761-.476h-.349l2.761-2.159 2.444-2.412-4.285 3.333-.983 1.206.38-.603-1.523.635 1.523-2.159.92-.888 1.524-1.524h-.317l2.761-2.443-.92.603.92-.92v-.286h.603l1.81-1.238 2.443-2.127-.286-.317-2.76 1.84-3.333 2.73 1.809-1.809 4.284-3.047 2.73-2.126.92-.92h3.332l.635-.318.064-.158h.031l3.84-2.571 1.841-.603 3.365-1.84.888-1.207.635.286-.317-.603h.603l.603-.603 2.158-1.524 1.206-1.237-2.127.92 2.127-1.523.317-.603-2.095.983 1.778-.983-1.524.603 3.65-1.524v-.603l.92-.603-.92.286 1.238-.889-2.158 1.206 1.84-1.206.318-.317-.73.476-1.11.444 3.363-2.126v-.635l1.206-.603h-.317l.635-.603.603-.317.285-.286 2.158-1.238.89-.888.92-.318.92-.92.92-.603 1.206-.603-1.206.285 1.81-.888 1.523-.92h-.603l.92-.318 2.54-1.777zM88.702 74.81l-1.238 2.126 2.158-1.523h-.92l1.809-2.127-1.81 1.524zm1.523.888-1.682 1.714.762-.476h.317l.286-.603.317-.635zm-1.682 1.714-.73.445h.286l.444-.445zm-10.22 5.903-.285.318-.603.317-.317.286-.318.603.318-.286h.317l.889-1.238zm1.81-2.063.349-.349-.317.286-.032.063zm2.76-2.602v-.19l-.285.285-.444.572.73-.667zm17.837-16.186.254-.222-.095.063-.159.159zm32.436-23.01 1.238-.603-.92.603 2.126-1.206h-.286l-2.158 1.206zm190.139-3.65.603.604h-1.841l1.238-.603zm38.687.92 3.365 2.73-.318.603.92.699.35.222h1.777l-.92.317 1.523 1.206-2.38-1.523h-.064l-.285-.222-.603-.381-1.841-.318 1.206-.603-1.81-.317.604-.603-1.524-1.81zm-96.576 1.524h2.126l-.603 1.524-3.967.888.603-1.523h1.84v-.889zm58.492.286h2.126l-1.206.317.92.286 2.73 1.238-.603 1.206-4.285-1.81 2.761.604-2.443-1.841zm-36.88.603 1.239.635 1.523-.318-1.523-.317h-1.238zm14.029 0v1.523l-1.841-1.206 1.84-.317zm-79.82.92-1.523 1.841h-1.524l-.317 1.81-2.444 1.237h2.761l-3.967 3.65 2.127-1.524 1.84-.92.286.92-.889-.317-2.443 3.047.285.634.635-.634 4.57-.286-2.158 1.206.635 1.238 1.206-.317-1.524 1.84.603.603-4.252.286-1.841 1.238 1.84-.318v1.238l-4.887 1.81 4.57 1.522 3.65-1.206-2.73 1.81h-3.364l-5.776 3.364 6.094-.603 1.206-1.238 10.06-.286 4.285-1.237.286-.604-3.047-.285 1.84-.318 3.333-2.729-.603-1.238h-3.967l.92-1.809-.603-.317h-1.206l2.127-.317v-.89l-2.444-1.237-.603-3.65-3.967-.603 3.364-.317-1.84-.286 2.443-.634 3.047-2.73-6.411.318 4.887-2.762h-4.57zm-3.047.318-2.76 1.206-.286.603 1.523-.603 1.523-1.206zm68.553 0 .603 1.206 3.047-1.206h-3.65zm23.454 0 1.206.92-2.126-.317.92-.603zm-30.468 1.523-2.126.92.285 1.207 1.841-2.127zm85.31 0 2.444 1.524-2.126 1.206 1.523-1.524-1.84-1.206zm-24.374.286.317 3.047-2.158-2.412 1.841-.635zm-124.918.317.603 1.524.317-.603-.92-.92zm38.402 1.206 2.126.318-1.84.317.317.889-.92-.603-1.207.603 1.524-1.524zm87.722 1.238 3.967 1.523 3.967-.603-3.967.889-3.967-1.81zm-126.124.286-1.206.92 1.809-.286-.603-.634zm-91.721 1.237-1.206.92.603-.634.603-.286zm138.025 0-.603 1.206-.603-.92-2.76.635 2.76 3.332v-1.206l2.127-1.523-.92-1.524zm99.624.603.92.603-.603.318-3.65 1.809.286.634-.285.89 1.523.92 1.81-.286-.604 1.523 2.444.286-2.127.603.603-.286-3.967-2.443.318-2.73-.603-.92 1.523.603 2.73-.603-.318-.92zm-104.194.603-1.809.318-.317 1.206h2.126v-1.524zm167.891.318.92.603.223.761.317.35 1.872 1.364 2.762 1.778-2.444-1.524-.318-.254-1.523-.952-.349-.412-.254-.19-.063-.16-1.143-1.364zm4.253 0 .603.285 1.523 1.238-2.126-1.523zm-219.369.285-1.206 1.238-.317-.603-3.047 1.523h1.523l-1.523 1.207h-3.967l.634 1.206-2.443.92 3.046.603-3.967 2.158 3.65-.317-5.173 1.206h1.523l-2.443.92h2.443l-2.126.92 2.126-.317-1.206.635 5.173-1.238 5.174-.92 2.443-5.173 3.333-1.207-.603-2.126-3.333.603 1.206-.603-.92-.635zm-91.404.92-2.475 2.064.952-.826 1.523-1.237zm313.756.286.762.54-.095-.222-.667-.318zm-20.946.032h1.206l.317 1.206-1.523-.286v-.92zm-293.095.603-2.444 1.84.286.287-1.206.317.92-.603-1.238.603-1.523 1.206.92-.92.603-.286.413-.381.508-.222.444-.317h-.127l1.809-1.207-1.682 1.207h.159l2.158-1.524zm146.849.603-1.238.603 1.238.318v-.92zm-153.863 4.57-1.524 1.238v-.317l1.524-.92zm275.417 2.127 1.84 1.237-1.237.286-.603-1.523zm57.19.73.699.507-.286-.317-.412-.19zm-84.897.19-1.523 1.523.603 1.841 2.443 1.81-1.84.317v-1.206l-.603-.92-1.238-1.842 2.158-1.523zm-246.79.603-4.887 3.047-2.444 2.158-2.127 1.523-.603.286-1.237 1.238.317-.635-3.047 2.158h.92l-3.046 1.81-.92 1.237 1.523-.92.317.92 2.412-1.238-2.126 1.524 2.126-.603-3.65 2.126h.92l3.968-3.047-1.238 1.524-2.412 2.126 2.127-1.523-2.127 2.158h.603l3.65-3.047.603-.92-1.523.92 2.76-2.158-3.046 2.158.889-.92.92-.603.317-.635 1.81-.889-1.524.286 3.682-2.73h-1.238l1.238-.92-2.762 1.523 2.127-1.523-1.524.317 2.444-1.523h-.285l.603-.635-.92.635 4.57-3.364.602-.92h.603l.635-.92zm332.1.635 1.81 1.206 2.126 1.84-3.936-3.046zm-341.59 1.079-.285.127-.286.317.572-.444zm-.57.444-.604.286-.19.349.793-.635zm341.24.889 1.809 1.238.317.92-1.84-1.523-.286-.635zm-159.957 2.158.286.889v.317l-.286-.92v-.286zm-183.41.286-1.523 2.443.888-.603.635-1.237v-.603zm218.448 0 11.267 4.284 1.524-.317 1.206 3.65-3.65.317-.603 1.81-3.047.634 2.73-.635.317-2.412h3.364l-.317-2.158-12.79-5.173zm119.428.317.254.762.92.508 1.27.54.603 1.522 1.206.92v.604l2.444.92v.603l-3.047-1.523-1.523-3.047-.952-.54-.857-.349-.064-.158-.857-.476.603-.286zm-84.104.92h.318l.317.254 1.523.635V68.081l-.317 3.365-2.444.317-.603-1.523 1.84.603-.634-2.127h1.238l.92-1.523-1.523-1.27-.635-.254zm94.45.286 1.238.92.286.318-1.523-1.238zm2.762 3.047.92.603.889 1.523-1.81-2.126zm-71.6 4.284 4.856.286 1.238 1.238.92 3.65 2.127.603-5.174-.318-.317 1.841 2.126 1.206-3.65-.286.318.92 2.126.604 3.047 3.65 4.856 1.523.317 2.126 3.365 3.65-1.524-3.332 1.81-.603 5.172 3.935-2.126 1.524-3.332-1.524.888 2.761 1.841 2.127-.92-1.206 2.126.285 1.238 1.841-1.524-.603.603 1.81.92-.921 1.81 1.84 3.967 7.935-6.38.889-10.06-3.936-3.047-4.887.603-1.524h.318l-.92-3.047 2.126-.92-3.047-.92-8.538-6.983-2.443-4.57v1.524l-3.936-3.968v-3.65l3.936-.317v-2.73l4.284-1.523zm54.24.89 6.696 1.237.92-.92-.317 1.523-6.094-1.524v2.444l2.73 3.333-3.65-2.73-.603-2.126.317-1.238zm-30.468.316 2.729.603.603-.603-.286 2.127 1.206 1.523 3.968 1.841-.604 1.206v2.444l1.524 1.206-2.158.635-.603.285-1.524-1.523-2.73.317-2.76-3.967-1.206-3.047h2.126l-1.206-1.84 1.524.92v-.92l-.603-1.207zm-316.454.127-.413.19-.317.286-.159.286.89-.762zm359.109.794 2.412 2.126-2.127-.92-.285-1.206zM76.515 85.156l-.603.318-.318.603.92-.92zm171.54 1.841-3.364 2.412 1.206 3.047 2.158-2.127v-3.332zM73.658 88.013l-1.11 1.11-.16.223.477-.223.793-1.11zm-1.27 1.333-.158.063-.159.35.318-.413zm-.317.412-.444.571.318-.285.126-.286zm378.881-1.555.92.317v1.524l-3.046-.92 2.126-.921zm15.552 2.126.92.92h-.92v-.92zM71.5 90.49l-.793.76-.095.128-.032.031-.159.16-.063.126-.445.571.064-.031.317-.413-.19.35.317-.318 1.08-1.365zm-1.396 1.681-.127.064-.159.222.286-.286zm-.19.095-.413.19-.318.636.318-.318.412-.508zm176.618 1.111-3.967.92.285 7.3 4.285-1.206 1.206-4.57-1.81-2.444zm-177.952.318-.285.285-.92 1.238.285-.317.92-1.206zm-1.206 1.523.127-.286-.73.889.603-.603zm-.603.603-.92.92-.127.254 1.047-1.174zm-1.047 1.174-1.11 1.27.92-.92.19-.35zm-1.11 1.27-.286.285-1.016 1.333.413-.412.603-.603.285-.603zm-.89 1.206-1.364 1.809.73-.889.635-.92zm-1.364 1.809.222-.445-.698.92.317-.158.159-.317zm-.476.476-.318.159-.285.603.603-.762zm-.603.762-.603.603-.286.603.889-1.206zm-.889 1.206-.571.761 1.396-1.745-.825.984zm-.571.761.317-.476-.984 1.238.286-.286.38-.476zm-.667.762.096-.159-.413.476.286-.254.031-.031v-.032zm.096-.159.888-1.079.095-.127-.793.762-.19.444zm3.332-4.253.73-.952-.508.508-.222.444zm4.92-5.903.793-.952-.635.635-.159.317zm309.407-.952 1.84.92-2.729-.285.89-.635zm-152.625 3.967-3.364 1.524 2.126.92 2.158-1.523-.92-.92zm84.707 2.127-1.84.635 1.84.888h1.206l-1.206-1.523zm25.263.92 1.238 2.444-1.524-.92.286-1.524zm-36.244.318-1.84.603 6.093 3.364-1.206-2.444-3.047-1.523zm72.202.285-.92 2.444-3.047-.603 3.967-1.84zm-82.548 1.84-.635 1.207 1.84.317-1.205-1.523zm-18.281.921-11.902.92.603 1.524 8.538 3.333 2.76-5.777zm107.526 0 3.047 3.333-1.206.92-3.047-3.967 1.206-.286zm-317.755.603-.603.889.16-.159.443-.73zm-.444.73-.222.413.317-.508-.095.095zm-.222.286-.476.73.222-.222.063-.159.096-.063.063-.096-.063.032.095-.222zm-.635.92-.54.508-.317.603-.127.127.127-.444-.476.793.19-.159.128-.158-.127.444 1.142-1.714zm-1.333 1.587-.412.445-.318.603-.603.603-.127.285-1.364 1.81-.032.03v.033l-.095.158-.19.413.824-1.143-.317.35.857-1.111-.476.698.317-.286.286-.571.063-.127 1.175-1.46.412-.73zm-2.317 3.237-.54.857.572-.857h-.032zm437.881-3.396 1.84 2.413-.317-.286-.603-.603-.603-.317v-.603l-.317-.604zm-174.587 2.73-2.127 1.206 1.238.635.889-1.841zm-264.214 1.904-.54.54-.285.54.825-1.08zm-.857 1.143-.54.73.254-.127.286-.603zm-.286.603-.603.603.35-.476-.35.19-.634 1.238.634-.635.603-.92zm-1.237 1.555-.286.285-.317.603.317-.317.286-.571zM341.87 114.1l-8.22 2.443 3.047 2.127 3.65-1.524-.889-1.206 2.412-1.84zm-41.735.317v1.523l4.57.89h5.491l.317-1.207-1.84.92-8.538-2.126zm-249.868 2.793-.254.254-.222.412.476-.666zm-.476.666-.603.89.19-.096.413-.794zm-.603.89-.413.221-.73 1.428 1.143-1.65zm-1.143 1.65-.412.602.222-.222.19-.38zm-.476.698-.317.285-.381.73.698-1.015zm-.698 1.015-.825 1.27.285-.159.54-1.11zm-.825 1.27-.318.158-.603 1.206.92-1.364zm334.83 1.047 4.284 1.84 3.935.604 1.238 1.84-1.523-1.84h-2.762l-5.173-2.444zm125.013 1.365.38.666.128.127.222.413.635 1.047-.223-.254-.412-.793-.35-.54-.158-.19-.222-.476zm1.523 2.507.318.508-.096-.095-.222-.413zm-7.109 4.983h.92v1.523l-.92-1.523zm10.981 1.365.095.158h-.095v-.158zm.318.57.095.191h-.095v-.19zm-358.316 5.079-2.126 1.523 1.523-.635.603-.888zm351.302 0 .92.888v.92l-.92-1.808zm-353.428 1.809-3.047 3.047 1.81-.603 1.237-2.444zm-8.22.92-3.047.92.286 1.524 2.761-2.444zm.889 1.524-.603 1.206 1.523-.286-.92-.92zm285.51 5.173-3.048 1.84 2.412-.92.635-.92zm81.628 3.047v2.443l3.047 7.3-3.333-7.3.286-2.443zm-1.524 5.173 4.285 4.887-2.761-2.73-1.524-2.157zm-166.653 4.57 1.524 4.887-4.253.92-3.967 5.174 2.444-4.887 3.65-.89.602-5.204zM17.388 180.527l-.286 1.206-.317.92h-.286l-.634 1.841v.286l-.603 2.126v-.603l-.286.92-.317 1.048v-.127l-.92 3.047.602-1.841.318-.603v-.127l.603-1.396v1.206l.92-1.81.317-2.126.286-1.238v.318l.603-1.841v-1.206zm-.286 7.014-.92.286-.603 1.84.603-.317.92-1.809zm517.637 0 .317.286v.92l-.317-1.206zm-397.003 7.903 3.047 2.443 2.158 4.57-5.205-6.696-6.982.286 6.982-.603zm-120.348.603-.603.92-.286 1.523.889-1.206v-1.237zm359.838 3.046.318 1.238 1.809.286-1.81-1.524h-.317zm-198.961.92 1.523 1.842-1.206.285-.317-2.126zm-76.456 1.524v1.524h.89l-.89-1.524zm438.103 1.524.92 3.967.35 1.015-1.27-4.982zm-281.193 4.887.889 3.047 1.84-.92v1.523l4.253.603-5.459 2.761-3.364-6.41 1.841-.604zm275.417 4.856v1.523l.603 1.238-.603-2.761zm-101.147 1.84 2.73.921 1.84-.92h-4.57zm-425.63.318-.92 3.936-.318 1.523.159-.127.159-1.08.603-2.443.317-1.809zm-1.08 5.332-.158 1.016v-.254l-.92 4.57v.888l-.286.92-.158.858.158-.54-.095.572-.127.38.064-.412-.16.666-.126.984.127-.73v.254l-.127.476.127-.38v.317l-.159.285-.032.095v.032l-.031.222-.064.477v.412l-.063.222v-.254l.063-.38v-.508l-.127 1.27-.095.73.127-.794-.222 2.444v-.286l-.19 1.27-.032.126-.096.73-.888 6.697-1.238 11.267v2.76l-.286 4.571v.92l-.317 3.333v17.678l.317.603V286.56l.254 3.27.032.063v1.841l.317.603.286 2.444v.285l-.286-2.412-.317-.634v1.84l.317.92v3.047l.286.604v2.443l.317.603v2.444l.318.603v2.126l.888 6.697 1.524 8.537 1.238 6.094 2.126 9.743.317 2.444 1.81 6.697 1.84 5.49.92 3.364 1.81 5.174 2.443 7.014 2.444 6.379 3.65 9.14 3.65 8.252 7.617 14.917 2.443 4.252.318.318 1.206 2.443 7.934 12.188 7.3 10.663 2.126 3.047.603.92 6.411 7.903 4.888 5.808 1.206 1.206.317.413v.19h.159l.73.92 2.444 2.444 3.046 3.333.92 1.237h.318v.286l5.173 5.205h.286l.762 1.016.57.507h.128l.159.254-.286-.254h-.095l.603.603.317.286-.349-.476.508.476h-.159l.286.317 1.84 1.841-.793-1.079.127.095.032.032.031.032.73.92h-.127l.381.318.222.285h.127l1.08.92.92.604v.285l.92.635-.603-.317 1.524 1.206 1.523 1.237.92.92.286.286.698.603h.222l.16.35.03.031 1.016.857.92.92 1.524 1.207.603.603.603.285.032.032 1.206.92 1.523 1.524 1.841 1.523 1.524 1.206-1.841-1.523.603.317.317.286 1.08.92h-.16l2.254 1.555.38.318.54.38.159.191.286.159h.031l.064.063.857.698.19.127.032.032.698.381.825.603-.222-.254.095.064.477.38.126.127.254.223-.73-.54.381.38.445.287h.063l.127.126-.19-.126h-.16l.318.317 1.524.92-.318-.317.572.286.063.031.603.286.286.317.444.445 2 .761-.92-.92-3.936-2.126-2.127-1.492.286.286-.603-.318-.413-.19-.063-.127.476.317-.476-.349-.095-.19.698.444-2.888-2.031-.603-.603-2.73-2.127-.317-.317-1.81-1.523-3.363-2.73-.318-.349v-.286l-3.332-2.729-6.094-6.094-.92-.603-3.65-3.046-2.444-2.762-.603-.888-4.284-4.57-1.524-2.158-1.523-1.206v-.603l1.238 1.206-.603-.92-1.841-1.81.92 1.206-1.523-1.206-4.285-4.887 2.159 1.523v-.92l-4.888-5.777.603.318-2.126-2.158 1.523.634.317-.634.603-.89-.317-1.84-2.444-4.57-1.809-2.126-1.523-1.238-1.524-2.73-3.967-3.364-3.364-5.459L54.87 427l1.84 2.444 3.047 1.523 1.81-.92-2.127-6.38-2.444-5.205-1.523-5.776-1.206-1.523 2.126 1.84 1.524 6.983-.286-3.936-1.523-4.887-.92-2.73v-3.364l-2.444-5.776-2.127-3.681-.603-3.047-.92-.889.92.286-.317-3.333.92-3.364 1.81-.317.634-3.936 2.126.603.286-1.84.635 1.237 2.126.286-.603-2.126 1.523-2.444-.92-2.127.286-7.3v-1.237l-1.206-5.49.317-3.047-4.284-22.534.317-1.206.92 2.127.603-1.841L58.52 321.6l2.443-7.617-.285-5.808-1.84-7.903-1.207-1.84-4.284-.603-4.253-6.094-3.967-3.967H39.35l-3.046-2.444-2.762 4.888v-3.65l.603-1.238-1.206.603.92-2.126-.92-3.047-.603 2.126-.317-2.412-.603.889.317-1.206-.634.92-.603-1.84-.286 1.237-.317-2.158-.318 1.238-1.809-2.761-.317 1.238-1.206-.92-.92 3.966.92.286-.603.92-.635-1.523-1.523 4.888.317-3.365-2.126 1.238 3.046-2.158.92-5.776-3.966-.92-.603 4.284-.318-2.158-.603 2.158V276.5l-.603 2.444.603-4.57 2.444-6.094h-.317l.317-2.444-1.523-1.84-.318-10.347-.317-.603-.286 1.524-.92-4.285-2.444-4.253-4.253.286-.92-5.173-.603 2.444.603-4.57-.318-3.047-.603-2.444v-.603l-.92.317.635-4.284-.318-2.127-.603.603v-2.73l1.206-1.84-2.126.317.317.92-1.237 2.127-.286-2.761-.92.635.603-3.364-.286-1.048-.032.127V218.898l-.285 1.238-.032.031-.127.127zm.445-.762.032.159.286-1.08h-.16l-.158.921zm.159-.92.476-2.444-.635 2.444h.159zm109.97 279.225-.444-.349v.19l.444.16zm-.444-.349v-.095l-.889-.603.889.698zm-5.237-3.586.063.127.603.317-.666-.444zm-1.46-1.08-.698-.57-.508-.35 1.81 1.524-.287-.317-.317-.286zM4.09 232.483l.063-.667-.158.507v.92l.063-.507.032-.254zm363.996-16.917-.603 3.333-1.523-2.413 2.126-.92zm-153.545 4.57 2.729 2.127-.92 4.252v.635l-.286-.635-.92-1.809 1.809-2.443-2.412-2.127zM11.61 222.58l-.92.603v1.81l-.603 1.237.92-.318.604-3.332zm504.244 4.57-.317.286-.286.317h.286l.92 1.206-.603-.603v2.444l.064.127v.032l.54 5.014-.604-.92 1.206 4.348v.54l.318.602.92 4.888 2.127-.92.92-3.968-2.127-7.014-3.364-6.379zm-506.37.603-.603 4.856.286.317-2 2.762-1.047 1.809-.285-.92-.635.92-1.524 7.014.635-4.57.889-2.444.635-1.206.285 1.206.603-1.206.445-.603 1.396-2.444.317-1.524.603-3.967zm180.681 3.047 4.856 5.776.317.603.92-5.776-1.237 13.393v-1.523l-.286-.286-3.364-1.523 3.047.92.317-.635.603-2.412-.603-.92-.92-.317h-2.126l2.73-.92-3.048-1.524-.603-2.73h-3.364l3.047-.317-.286-1.809zm34.118 2.126 1.809 3.968-1.809 11.266 1.523-11.584-1.523-3.65zm-53.636 2.444-1.206 3.333.603.92 1.206-.92-.603 2.443-1.81-2.126 1.81-3.65zM7.645 237.18l-.603 4.284.317-3.65.286-.635zm531.982 2.76.603 1.81v-1.207l-.603-.603zm2.443 7.3.889 4.57 1.523 4.57.92 6.697.921 2.761.318 7.014.603 3.936v1.237l.285 11.267.318 10.346-.318 2.762.318-1.841v1.523l-.318 3.047v-.286l-.063.572-.222.952v.888l-.318 2.159v.888l-.222 2.317.222-1.08v-.316l.603-4.253v-.318l.318-2.729v-1.523l.92-12.79.286-3.968v-.603l-.286 1.524.286-2.444-.286-.603.286-4.57-.286-1.524v-6.093l-.064.317-.253-.952v-.603l-.92-7.014v2.444l-.604-5.173-.285-1.524-1.238-4.253v-1.523l-1.206-3.967-2.127-1.841zm4.634 65.379-.698 3.491.317-.92.318-1.841.063-.73zM14.976 250.286v1.84l-.635.604.635-2.444zm349.143 1.523 2.126 10.981-3.65-6.093 1.524-4.888zm-128.25 4.285-2.445 1.809v.317l1.206.603 1.238-2.73zm307.725 4.57.888 2.126-.603-2.126h-.285zm-263.547 1.809-2.159 13.71 3.365-7.013 3.967-2.127 3.332-1.809.92-.635 9.998-.825.38-.063.064.031.54-.031 10.06 6.982-10.6-6.95-.444.031-10.918 2.349-3.332.92-4.285 3.047.318 3.967-10.664 10.346-.318 4.285-.285-3.967 7.617-8.538 2.444-13.71zm62.744.317-.92 3.333-3.332 3.047-.318-2.127 4.57-4.253zm9.458 3.333-1.84.634.602 1.524-3.046-.92 4.284-1.238zm192.868.634v.604l.286 1.809.317 2.158v-2.158l-.603-2.413zm3.047.604.286 1.809v-.89l-.286-.92zm.286 1.809v.634l.317.889-.317-1.523zm-196.804 2.443.603 1.524 2.127-.286 1.206 3.047 2.158-1.238.603.92-3.65 1.207-.317 4.57-3.65 2.443 3.046.92-2.126 1.524-2.158-.603.317 2.127-1.206.92.286-2.444-2.73-1.206-1.84 2.73-.92-3.968 1.84-9.426 3.047-1.523 1.523.889 1.841-2.127zm-328.45.92-1.523.604.603 1.237.92-1.84zm312.296 2.127-2.444 2.444.603-2.127 1.84-.317zm-332.418.603 1.238.317.095.318h.19l.921 3.174.603 1.682 2.127 8.537h1.777l.159-.635.507-3.015.286.127.032-.127.285.318.635.285.889-2.73H14.34l.635.604v1.523l.603-.317 2.126-3.65-1.523 2.73-.603 1.237-1.238.286-.285 5.49v-6.093l.603.317-1.206-.92h.603l-.603-1.206-1.524 3.047-.635-.603-.317-.19-.793 2.887-.096.635h-.063l-.254.92-1.206-.92-.317.603-1.524 3.364-.19-.508-.095.19-.318-1.205-.603 3.65-.317-1.841v-.286l-.889-3.047v.92l-.635-3.966-.603-1.238-.603.317.92-.603 1.207 5.173.92 2.73.603-1.81.413 1.016.825-1.618v-1.841h.889l-.603-.603-1.524-7.617-.603-2-1.11-3.173h-1.62l.286-.635zm237.65 2.761 1.523.603-1.523.92v-1.523zm305.917.92-.318.89.318 2.76v-3.65zm-534.712 1.524.889.603v1.523l-.889-2.126zm269.64 1.206-1.237 1.84 1.524.604-1.81 2.73-.634-4.57 2.158-.604zm49.956 0 1.523 2.126-2.444 2.127.92-4.253zm-311.979.92 1.81.286-.604 1.84.318 1.207-.92-3.047v2.444l-.604-2.73zm527.38 4.856v2.761l.318-1.84-.318-.92zM2.471 290.211v.603l-.603-.317.603-.286zm330.26 0 2.76 11.585-1.237 2.126 3.967 3.332 2.444 8.538-3.047-1.206-1.523-5.808-4.253-5.459.286-9.775-.92 1.238 1.523-4.57zm45.098 11.267-.603 2.127 1.524 1.523-.603-2.444-.318-1.206zm-33.514 8.823 2.76 2.444-2.76-.603v-1.84zm-10.347 4.285 1.81.285-3.047 1.841 1.237-2.126zm-2.76.603-2.127 3.967-1.81.286.286-2.127 3.65-2.126zm22.247 4.253 2.127 2.158 1.523 6.982-1.523 4.57 1.84 9.14-2.73-1.206-2.157-8.823 1.84-2.76-1.206-7.903-.317-1.238h.317l.286-.92zm-19.201 6.41h.317v1.841l-1.523.603 1.206-2.443zm59.412 2.444-.603 1.524.92.92-.317-2.444zm24.09 2.73-2.445 2.126-.317 4.285-2.412 2.126-1.238-.92v3.046h-.92l-1.81 3.65.286-1.809-2.126 2.444.603 1.206-1.206.603.317-1.809-2.158 1.523v2.127l-1.206-1.238-7.3 2.158-3.046 6.094.603 11.267-4.888 5.776-1.809 4.57.603 11.901 3.333 1.81 8.537-2.127 14.948-30.15.889-4.57 1.84-1.524v-6.094l1.207-.317.634 2.444 1.524-2.444-.635-11.267-2.412-3.364.603-1.523zm-19.805.317-.92.603 1.206.92-.286-1.523zm-68.87 21.01-4.253 1.238-5.173 5.173 3.935-5.173 5.49-1.238zm-284.875 7.332 1.84 3.046-.317.889-.92-.286v-2.126l-.603.603v-2.126zm397.923 8.22-1.237 2.443 1.523-1.237-.286-1.206zm-395.162 2.443.286.889 1.238 1.84-1.841-2.126-.603.603 2.444 3.365-1.238-1.524-.286.889v-1.206l-1.523-2.127 1.523-.603zm387.545 1.524-1.523.603 1.523 1.523v-2.126zM44.206 382.218h1.238l.285 1.206-1.523-1.206zm-5.173 17.36 3.364.92h-3.364l3.078 7.205.286.413 1.523 3.047 1.81 3.046.602 1.524 1.238 3.047 3.333 5.49-3.333-5.173-1.238-3.047-.888-2.158-1.524-2.73-1.237-2.126-.572-1.333-.349-.508-2.73-6.696v-.92zm274.814.603-.92 1.841-1.65-.54h-.064l1.11.858-1.523-.635.413-.222-.096-.064.16.064 2.57-1.302zM43 413.606l.603 1.524-.92-1.238.317-.286zm14.314 6.38 1.523 2.76h-.603l1.206 3.048-1.206-2.127-.92-3.681zm-3.047.92v1.523l.603.92-.92-.317h-.286l.603-2.126zm30.119 49.986h.031l.096.19-.127-.19zm.952 1.016.984.889-.984-.794v-.095zm332.1 8.125-3.047 3.332 1.523-.92.92.92-.317-1.206 1.524.286 1.237-1.206-2.76.603 1.237-.92-1.523.634 1.206-1.523zm-308.932 7.902 2.126 1.524.318-.286-1.238-.92.92.92-2.126-1.238zm2.126 1.524.603.92.92.92-.602-.92v-.317l-.92-.603zm-3.046-1.206 1.84 1.206.603.92.603-.317-1.84-1.81h-1.206zm2.285 4.538.666.413-.222-.095-.444-.318zm33.07 3.079 5.776 2.443-3.364-2.158-2.412-.285zm-24.374 3.046 1.523 1.206.889.318-2.412-1.524zm38.085 19.805.888.603.318-.318-1.206-.285zm-.635.285 1.238 1.238.285.286 1.428.888.096.032 2.285 1.428 1.682.698 1.84 1.238 2.127.92 3.047 1.207-1.016-.223-2.348-.983 2.03.92-.19-.032.635.222 1.492.699h.317v-.286l3.047 1.523 3.65 1.587.92.222h-.317l.92.381 1.524.222.603.635 2.443.889 2.444.634 2.73.89 2.126.92h.317l4.57 1.523h.254l-.412-.127-.127-.127.666.254h.54l1.206.603h.603l.635.317.888.318h.635l.603.285h.603l.603.318.92.285h.603l.603.318h.635l.889.317.635.286h.603l.603.317h.603l.92.286h.603l.603.317h.635l.888.317.635.286h.603l.603.317h.603l.92.286h.604l.603.317h.634l.889.318h1.238l.603.285h.92l.603.318h.603l.603.285h.92l.604.318h1.237l.92.317h.604l.603.286h1.523l.603.317h1.238l.889.286h.634l.603.317h1.524l.603.318h1.523l.603.285h2.127l.634.318h1.206l.92.285H244.692l.603.318H247.421l.634.317h2.73l.603.286h2.761l.888.317h3.968l.92.286h5.491l.603.317h17.963l.92-.317H290.996l.603-.286h3.681l.89-.317h3.046l.635-.286h2.126l.603-.317h2.729l.635-.318h2.126l.604-.285h1.523l.603-.318h1.238l.888-.285h1.841l.603-.318h1.524l.603-.317h.634l.889-.286h1.238l.92-.317h1.206l.603-.286h.921l.603-.317h1.237l.603-.318h.603l.603-.285h.921l.603-.318h1.238l.888-.285h.635l.603-.318h.603l.603-.317H334.571l.603-.286h.603l.635-.317h.603l.92-.286h.604l.603-.317h.603l.603-.317h.92l1.238-.603h.603l.603-.286H344.632l.603-.317h.603l1.238-.603h.603l.92-.318h.603l1.206-.603h.603l.635-.317h.889l1.237-.603h.603l1.207-.603h.92l1.238-.603h.603l1.206-.603.92-.318h.603l1.238-.603h.603l1.206-.603.92-.317h.603l1.238-.603h.603v-.317h.603l1.206-.603h.635l1.206-.603h.317l1.81-.92h.602l1.841-.921h.603l1.238-.603.285-.317h.603l2.444-1.207 3.364-1.206h-.317l2.222-1.015-1.619.698 5.808-2.73-2.761 1.207.92-.603-2.444 1.206 2.444-1.81-4.856 2.127-2.443.92-.318-.317-3.047.603 2.762-1.523-5.491 1.237 1.809-1.523-2.412.889-2.761 1.84-3.333.92-1.84.604h-.603l-.127.127-1.111.19-4.253 1.524-3.364.603.92-.603-3.65.888 1.524-1.206-.92-.603 2.443-1.523-10.663-.603h-1.206l-2.159-.92 1.841-.92-3.364-1.207-6.38 1.206-1.523 1.523-1.523-.92-2.126.92h.888l-2.412.92-1.523-.92-1.524.92-10.06 1.524-2.762.92-3.332 1.524h-.317l-.286-.92-1.523.285-3.047-1.809-1.84.286-.921 1.238h-2.127l-.92-.92-3.65 1.205-3.364.635-5.459.603-5.49-.603-.92-.317-3.365-.318-3.65.318-.92-.92-3.65 1.237h-9.14l-.92.603-9.744-.603-2.444-1.84h-1.809l1.81 1.205-1.207.635-.603.286-7.331.603-2.127-.286-2.443 1.523.634.92h-2.76l-1.207.89h-2.126L228.25 537l.286.286-.92 2.158 1.523.889.635 1.237h-1.238l1.523.92-2.92-.253-.127-.064h-.603l-.92-.317.603.317-1.523-.317.634.635-15.583-2.634h-.063l-.222-.127h-.445l-.222-.032h-.032l-.507-.254h-.92l-2.127-.635-6.697-2.126h-.317l-2.127-.92-11.266-3.65-1.238-.286-2.126-.92-.603-.318h-.127l-.889-.38-.19-.223h-.286l-.571-.254-.064-.063h-.095l-2.031-.889h-.635l-11.267-5.205-5.395-2.697 1.745.57-.603-.602-1.84-.603.57.571-.57-.286-.603-.888-1.841-.635zm40.306 17.678h-.127l.953.317-.826-.317zm-15.011-4.856-1.206-.635h-.318l1.524.635zm-3.65-1.46h-.095l.412.159-.317-.159zm.317.159.889.38.158.032-1.047-.412zm-.412-.159-1.746-.698 1.523.635.223.063zm-18.599-8.95-2.03-.888.602.317 1.428.571zm-1.428-.254 1.841.889v-.286l-1.84-.603zm35.038 14.314 2.158.603.603.222-2.76-.825z" style="fill:#b9b9b9;fill-opacity:1;fill-rule:nonzero;stroke:none"/><path d="m246.807 107.686-7.019 2.147-5.448-1.218-4.294 1.827-5.16-1.218-10.992 1.827-4.55 2.435-3.334.61-4.582 2.435h-3.045l-.32-1.506-6.378.929-2.147-2.788-1.827.609-4.87 7.018-10.673 5.8-3.333 4.583-.929 5.448-.32.32-2.436 3.045-6.09 4.263-5.447 1.25-3.974 5.48-3.653 2.115-3.045 6.377-4.23 3.43-6.442 9.39-1.506 4.262.865-1.507 1.86 4.23-2.116 3.974.577 7.34-3.654 9.421-4.262 4.295 3.365 3.91-.32 2.467 3.685-.609-3.044 1.218-1.25-.897-.93 3.941h2.18l-2.18.898 3.045.32-1.506 1.218 1.826.32-.609 1.186 4.263-1.186-2.436.93 1.827.865-2.115 1.25.93 1.506 1.185-.577-.577 1.186 1.506-.93.61 4.295 1.826.897 1.827.93-.93 1.506 1.538.609.289 3.974 1.538-.289-2.115.61 3.333 3.332-.289 1.827 5.16 2.724 10.063 9.454 5.192 2.147 6.089-3.044 9.454-1.218 8.813 2.435 9.133-4.262 6.41-2.468 11.28-2.403-1.858 1.218 4.582.32 3.045 2.724 1.538-.93-1.538 1.25 2.147.29-1.538.288.64.929 1.507-.93-1.506 1.827 3.044 4.295 3.333-.32v-1.219l.61 1.218-.29-1.538.898 1.538.609-1.827 1.218 1.218 4.294-.32-.32-1.795 1.506 2.115 1.538-1.218 1.506 3.654 2.468-.61.577 1.219h-1.186l1.795 3.653-3.045 9.134 1.859.32-.32 3.045-1.539-.32 3.045 1.537-2.115.61-.93-1.218-.93 4.87h-2.114l4.582 8.237 10.063 9.742 2.116 6.09 2.435 1.217-2.115.609 5.48 10.96-1.827 3.045 2.116 4.294 2.115 4.84-.866 5.832-5.223 5.448-3.333 11.313.609 9.742 12.498 20.382 2.147 16.44 9.743 15.576 4.23 6.986.32 3.333-1.826 1.25 2.147 5.768 1.538-.897 4.55 3.044 10.352-3.333 8.845.898 8.845-2.436 13.108-9.133 4.262-5.48 1.827-2.148 4.839-3.973 3.974-10.32-.61.866-1.217-1.507 13.428-7.915 1.186-8.525-2.724-7.307.288-3.974.93.93 6.697-4.583 2.756-4.55 13.717-6.41.609-1.218 4.23-6.09-.865-8.844.865-.93-.609-6.697 1.538-3.045-2.724-2.115-1.25-.93v-.288l-1.185-7.948.897-2.115h-1.218l1.827-3.974-3.365-4.55 2.147-6.41 3.653-7.627.93-1.827 3.653-2.115-.93-1.506h2.469l9.742-12.851 10.32-8.204 7.626-9.743 10.063-23.458v-2.757l-.288-1.538 2.115-.577h-1.506l.288-6.377-2.147-.93-4.839 3.045-8.268.93-3.622 2.115-2.756-.93-4.87 2.436-6.378-5.8-2.756.32 3.653-2.116-.609-2.147-10.063-10.063-4.262-1.506-.93-1.538-.897-.897-.288 1.826-6.41-13.716-5.512-3.685-2.403-10.32.897.577-2.404-4.55-5.512-3.974-1.506-4.263h1.186l-3.045-2.435-8.204-14.326-4.583-4.87-1.09-3.654c-.011-.019-.02-.045-.031-.064a1.356 1.356 0 0 1-.16-.353c-.21-.836-.706-1.716-.706-2.788v-.449c0-.458-.057-.937-.128-1.41l-1.538.225-.897-1.86-3.654-.32-7.339 3.045-8.492-2.404-7.34-.32-1.217-1.827-6.698-.897-.93-1.859-5.48-1.186-6.409 3.045v5.448h-.288l-4.295 2.18-4.55-2.468-8.525-2.116-2.147-3.973-7.307-2.116-4.23.289-8.268-3.654-.61-1.858 4.904-3.91-2.436-3.686 2.436-3.653-2.436 1.506-2.467-2.435zM138.71 162.903l.256-.384-.93.93.674-.546zm50.474-50.09.065.096.16-.096c-.075.004-.15-.003-.225 0zm-35.893 27.497-2.147 1.538 1.539-.64.608-.898zm-2.147 1.827-3.044 3.044 1.826-.609 1.218-2.435zm-8.204.897-3.044.93.288 1.538 2.756-2.468zm.897 1.538-.608 1.218 1.506-.288-.898-.93zm198.95 17.947 1.539 4.903-4.262.93-3.974 5.159 2.435-4.871 3.654-.898.609-5.223zM137.75 195.43l3.045 2.468 2.147 4.55-5.192-6.697-6.986.288 6.986-.609zm239.49 3.654.29 1.25 1.826.288-1.827-1.538h-.288zm-198.982.93 1.539 1.826-1.218.288-.32-2.115zm80.471 7.947.866 3.044 1.858-.929v1.506l4.263.61-5.48 2.755-3.365-6.41 1.858-.576zm109.346 7.595-.577 3.333-1.538-2.403 2.115-.93zm-153.539 4.583 2.724 2.115-.897 4.262v.641l-.289-.64-.93-1.827 1.796-2.436-2.404-2.115zm-24.356 10.672 4.84 5.768.32.61.929-5.801-1.25 13.395v-1.506l-.288-.288-3.365-1.538 3.044.929.32-.641.61-2.404-.61-.929-.929-.32h-2.115l2.724-.898-3.044-1.538-.61-2.724h-3.364l3.076-.32-.288-1.795zm34.098 2.115 1.827 3.974-1.827 11.248 1.539-11.569-1.539-3.653zm-53.615 2.436-1.218 3.332.61.93 1.185-.93-.577 2.436-1.827-2.115 1.827-3.653zm193.47 16.44 2.115 10.992-3.653-6.089 1.538-4.903zm-128.253 4.294-2.468 1.795v.32l1.218.61 1.25-2.725zm44.16 6.378-2.146 13.716 3.365-7.018 3.974-2.116 3.332-1.826.898-.641 9.999-.801.384-.065.064.032.545-.032 10.063 6.955-10.608-6.922-.448.032-10.897 2.339-3.332.93-4.295 3.044.32 3.942-10.671 10.351-.32 4.294-.289-3.974 7.627-8.524 2.436-13.716zm62.75.32-.93 3.333-3.333 3.045-.32-2.116 4.583-4.262zm9.454 3.333-1.827.641.609 1.506-3.045-.93 4.263-1.217zm-.61 5.48.61 1.538 2.147-.288 1.186 3.044 2.179-1.25.577.93-3.654 1.218-.288 4.55-3.654 2.436 3.045.93-2.147 1.538-2.147-.61.32 2.116-1.218.93.289-2.436-2.724-1.218-1.827 2.724-.93-3.974 1.827-9.422 3.045-1.506 1.538.897 1.827-2.147zm-16.151 3.045-2.436 2.435.61-2.115 1.826-.32zm-94.764 3.365 1.538.609-1.538.929v-1.538zm40.86 3.653-1.25 1.859 1.539.577-1.827 2.756-.641-4.583 2.18-.609zm49.962 0 1.506 2.115-2.435 2.147.93-4.262zm1.186 8.525 2.756 11.6-1.218 2.116 3.942 3.333 2.468 8.557-3.045-1.218-1.538-5.8-4.263-5.481.289-9.774-.897 1.25 1.506-4.583zm45.09 11.28-.576 2.115 1.506 1.539-.609-2.436-.32-1.218zm-33.489 8.813 2.756 2.468-2.756-.609v-1.859zm-10.351 4.295 1.794.288-3.044 1.827 1.25-2.115zm-2.756.609-2.148 3.973-1.794.289.288-2.147 3.654-2.115zm22.24 4.262 2.116 2.147 1.538 6.986-1.538 4.551 1.858 9.166-2.756-1.218-2.147-8.813 1.859-2.756-1.218-7.916-.32-1.25h.32l.288-.897zm-19.196 6.41h.32v1.826l-1.538.609 1.218-2.436zm59.416 2.435-.609 1.506.897.93-.288-2.436zm24.068 2.724-2.436 2.115-.32 4.294-2.404 2.116-1.25-.898v3.045h-.93l-1.794 3.653.288-1.826-2.115 2.435.577 1.218-1.186.609.32-1.827-2.178 1.538v2.116l-1.186-1.218-7.307 2.147-3.044 6.089.609 11.28-4.904 5.77-1.794 4.582.609 11.89 3.332 1.794 8.525-2.115 14.934-30.157.897-4.55 1.86-1.539v-6.089l1.185-.32.64 2.436 1.507-2.436-.609-11.249-2.435-3.365.609-1.538zm-19.806.32-.897.61 1.186.897-.289-1.507zm-68.87 21.024-4.23 1.217-5.192 5.192 3.942-5.192 5.48-1.217zm113.064 15.543-1.25 2.435 1.538-1.25-.288-1.185zm-7.628 3.973-1.506.577 1.506 1.539v-2.116zM313.85 400.182l-.93 1.827-1.634-.513h-.064l1.09.833-1.507-.608.417-.225-.096-.064.16.064 2.564-1.314z" style="fill:#b3b3b3;fill-opacity:1;fill-rule:nonzero;stroke:none"/><path d="M137.895 37.636h96.583m0 0h177.628m-374.45 100.24h167.268m0 0h307.421M.79 274.98h193.167m0 0H549.21M37.655 412.087h167.27m0 0h307.42m-374.45 100.24h43.569l.61.304h52.404m0 0c59.284.089 118.491-.042 177.628-.305M275 549.192c-19.746-1.032-31.391-20.098-40.217-35.952-12.473-25.008-18.968-49.221-25.289-76.17-13.709-66.29-17.507-136.14-14.624-205.658 3.07-54.687 9.666-109.49 25.898-160.26 8.208-23.257 18.12-50.458 39.303-65.812 4.712-2.682 9.454-4.577 14.93-4.57m0 548.422c-37.55.09-71.972-14.314-101.459-37.17-30.952-25.047-54.873-59.057-71.536-96.762-22.715-53.033-31.25-110.421-27.18-168.919 4.296-52.405 19.057-103.555 46.92-149.292 21.219-33.177 49.563-62.79 85.311-80.13C227.952 6.62 250.85.83 275 .77m-.304 548.422c-53.387.04-105.563-16.673-149.902-47.225-44.959-31.494-79.571-76.133-99.326-128.27C9.331 330.771 4.097 283.873 9.93 237.81c5.778-42.16 21.52-83.955 45.782-119.9 32.292-47.132 79.499-84.339 134.283-102.82C217.252 5.525 245.739.87 275 .77m.305 548.422c50.513-.008 99.222-15.41 141.676-43.569 42.524-29 76.206-69.941 97.049-118.233 19.44-45.6 26.662-95.428 21.166-145.314-5.652-47.642-23.581-95.1-52.71-134.363-27.386-37.607-64.426-67.499-108.16-86.53C342.822 7.829 309.624.83 275 .77m0 548.422c36.224.025 68.864-15.397 95.974-38.999 41.452-37.148 67.273-90.893 79.826-144.417 14.662-61.057 14.072-128.245-1.828-188.901-13.941-53.694-41.238-107.46-84.7-142.59C338.308 13.53 308.161.84 275 .77m0 548.422c14.423-1.228 22.007-17.714 27.421-29.858 13.93-32.538 19.013-65.821 24.375-99.935 9.253-70.687 10.944-144.317 7.007-216.627-3.495-49.724-8.886-99.495-21.815-145.576-6.466-19.357-12.288-41.914-29.37-54.293C280.227 1.807 277.89.656 275 .77" style="fill:none;stroke:#000;stroke-width:.30163208;stroke-linecap:butt;stroke-linejoin:miter;stroke-miterlimit:4;stroke-opacity:.46666667;stroke-dasharray:none"/><path d="M543.464 334.328C510.698 482.541 363.94 576.12 215.672 543.341 67.403 510.562-26.23 363.84 6.536 215.627 39.302 67.414 186.06-26.164 334.329 6.614 482.597 39.393 576.23 186.115 543.464 334.328z" style="opacity:.25941425;fill:url(#b);fill-opacity:1;fill-rule:evenodd;stroke:none"/><path d="M549.186 274.966c1.493-111.813-73.218-219.509-178.598-257.055C271.65-19.992 152.178 6.307 79.063 83.22c-75.217 74.634-98.988 194.416-59.2 292.437 38.9 102.116 143.797 174.179 253.123 173.48 112.418 2.415 221.248-72.392 258.929-178.448 11.367-30.545 17.349-63.119 17.27-95.722z" style="fill:none;stroke:#aaa;stroke-width:1.52339447;stroke-linecap:butt;stroke-linejoin:miter;stroke-miterlimit:10;stroke-opacity:1;stroke-dasharray:none"/><path d="m390.434 214.512-11.782-9.071-7.003-.328-2.326-1.624-1.229 3.617-4.405-.643m67.155-52.843 1.218 1.829M396.11 192.01l7.922 3.351.61 4.875 7.921-12.187 21.327-7.921.305-8.836-2.437-3.047-11.578-1.219-7.922-10.968m-.914-7.312-6.398-6.399m11.273-56.975 6.398-.914 4.266 3.047.305-.61 1.218 2.134m13.101 18.585-1.218-2.437-15.234-7.617m-52.71-4.57-4.875.609m-2.742-6.399-9.445-2.132-1.828.61m22.242 5.179-5.18-2.742-3.351.304-2.438-1.219m28.945-36.256 2.133-.61m-92.013-3.046h-.61m1.828-.914-1.218.914m-.61 0-1.828.304m0 0 .914.914-1.523.914m12.187-1.828-7.922-1.218m-4.265 3.046-.61 2.438-6.398.304m-7.312-5.788 2.437-.915h7.617l4.875 2.133m-194.08 442.394 1.828 1.219m.914.61 8.836 6.397M102.4 486.33l-.305-.305 3.352 2.742 1.828 1.219m-55.147-68.857 4.265 7.007m4.57-1.828-1.523-2.437-.61-1.524-2.437-2.742-5.18-4.875v.914l-3.046-3.96-.914.304m-.305-.914.305.914 4.875 9.14m-13.101-10.054.304.914 2.742 4.57 7.617 11.578 2.743 3.961 2.132 3.351 2.133 3.047 5.18 6.399L72.54 457.69l.61.914 7.617 7.617.609.914 3.047 3.047 3.656 3.351 2.742 2.438 4.57 4.265.61.61m222.72-67.944-.914-.61m-.305-1.218.305 1.219m.914.61 2.133.913 1.218-2.132 2.133-.61m56.366-86.224 1.828-.914m-53.32 53.014.61.61m-13.71 10.663-2.438.61m25.593 9.14-.304-3.96m17.976-62.765v-.304.304zm-44.788 61.24 1.523-3.655m3.047 20.718.914 1.523m-9.445-54.537-13.101 2.437m52.71-3.047-.61 4.57m-58.803 28.336v7.312m35.952 9.14-4.265 1.219-3.352 3.047m57.28-81.35 6.703-3.351m-50.882 52.71 8.227.914 5.484-4.57m-20.414-3.961.914 4.874 5.18 2.133m-25.288-18.28 1.523 2.437 7.312-3.352m23.765-9.75v1.524l11.273 3.351v3.047m-4.265 17.976.305-3.351 2.742-2.742-.914-4.875 1.523-2.438m-9.14 17.977 2.132 9.14-.609 5.18-.914 1.523-3.047-.305-1.828 3.656 2.742 2.133h1.828l.305-2.133 3.656.305m-17.976 13.101 1.219-.305 1.523-2.437-2.742-3.047m-8.226-17.062 3.351-4.875 10.36-5.789m-21.633-21.022 3.656.304 4.57 8.836 6.703 4.57m-34.733 15.234v3.352l2.742 3.046v6.094m12.797-39.304-10.36 1.524-.609 16.452h-4.265m16.148-19.499-6.703-6.703.609-14.625h9.14l.305-10.054m3.96 66.725-3.655.914-7.008-2.133-4.57 5.789-5.789.914m4.266-38.999-6.399-.61m23.765-.609 7.922.914 3.96-4.57 4.266-1.828.914-2.742 6.703-1.523-.61-3.047 13.711-4.57m6.703-18.89 1.828 7.617m15.54-.915-2.134-.609-2.437 2.133-7.008-1.524-5.484.915-1.219 3.046.61 5.18 5.18 7.007-.915 5.485-3.047 2.437.305 2.438-3.96-5.485 1.827-6.093h-3.96l-3.961-4.57 1.828-4.57 2.437-1.22-.914-7.007 1.828-1.523-1.218-2.742m-21.937 0 .609 3.351-1.828 3.96 2.742 3.962 3.656-.914-.305 6.093-3.656-.304-7.921-8.531-2.133 2.132-3.352-.61-3.046-1.218v-2.133l-4.875.914-1.219-2.437-8.226 1.828.304-4.265-.914-1.828m-35.038 58.193 1.22 2.438-1.22-.305m24.07 14.32-.305 8.53m0 0-3.656 2.134-3.96-.305-3.352-.61-1.524-3.046-2.437 2.437m15.539-28.64-.305 8.836m.61-27.116-4.876-.305-2.132-2.133-20.414.305-2.742-2.133-7.312 1.219m130.707-99.02 3.352-2.743 4.874 1.524 7.617-4.57h5.485L415 235.883h-3.96l-15.234-6.703-1.828-2.742m-59.108 54.233-1.524 1.523m21.937-9.445-.304 6.094m2.742-10.055-2.438 4.266m-21.937 9.14-1.218 4.875m24.679-35.038 4.265-2.133 1.828 2.133m-23.46 33.514 1.523-1.523-1.828-4.875m.61 33.82 9.75 5.788m5.788-64.896 4.266 8.226.305 3.961-2.133 2.742m6.093-16.757h-7.007l-3.961 3.96-5.789 1.22-4.875-1.22-1.523 1.22m-6.703 38.084.61 8.836 5.179 8.836-8.531 1.523m1.828-24.374.914 5.18h1.523l5.18-7.008-1.828-.61.609-2.133-2.742-.609-1.219 2.438-3.047-.915.61 3.657m18.28 31.382-1.828-2.743 6.094 1.524.61 1.219m-.915-95.06-.304 6.703-3.961.609-.61 3.047 3.047.61 4.57 4.57 3.047 6.398 2.438.304.609 3.656 4.875.914 4.875 3.657 6.398.914 1.828-1.524m-76.17-29.858.61.61-.61 5.483h3.352l-.305 1.828 5.18 2.133-.305 1.828 5.789 3.961.305 2.742 3.656 1.828 2.742 5.18 3.047 1.523 5.484-1.828 6.093 5.484-.609 5.18 2.437 1.523-6.093 6.094-1.828 10.664 5.484-1.828h15.234l15.843 9.445v2.437l7.008 5.484M299.222 321.5l-1.523-2.743.305-10.054-8.531-.914m41.74 6.703-2.741 3.656.914 3.352M203.858 244.11l-.914.305m-1.828.61-2.438-2.438m58.194 59.412-3.656.914m-45.397-59.412.304-7.008m48.444 59.717-3.046 1.828.304 3.352-1.523.304m-49.967-75.255.914 4.57.609 13.101m37.17 18.586 7.008.914.305 5.484-8.836.304m-27.116-42.96-2.133 4.266-1.523.305-.61 5.484m-10.359-10.054-.609 2.437 1.523.305v13.406m69.467-4.57-5.18 7.007 3.047 10.36 4.875 4.874.305 5.484-7.617-2.132h-6.094m23.46-1.22-2.437 14.32-7.312 7.618-1.219 8.53-6.093 4.57-1.22-3.046-4.57 3.047-3.046-2.438-3.656 3.047m-3.352-34.428 9.14-.305-.304 4.875 5.18-.61.914 2.438-2.742 4.875 3.046 2.132v3.657l-1.828 5.18-1.828-1.829-1.219 1.523-2.437-.304-1.523-2.438-.914 2.438h-4.266l1.828 6.093-2.133-.609-1.828 2.133m10.36-66.42-8.227 16.148-1.828.61-2.742-3.352-3.656 1.828-4.57 4.57-1.524 5.484m54.538 56.061-2.133-.305-.914 4.57-8.226.61-3.352-4.266-1.828-6.093-16.148-.305m-60.326-79.826v-.304m0 1.828v-1.524m1.523 3.047-1.523-1.523m16.452-5.18 2.742-8.53 6.703-1.829m-15.234 10.36.305-2.743 2.133-.61m-2.438 3.352-4.265.914-1.524 2.133-4.874-.305m3.96.61-.609 2.742 2.438 1.828m57.28-17.367-.915-3.656 9.445-10.969 2.438-15.843-3.352-5.18-.914-6.398m-56.67 48.14 3.351 3.351.914 5.18-1.523 2.742m-14.32-1.219-.305 1.219m24.68-18.281 3.96 1.219 2.133 3.047 3.96-1.829 8.532 2.743 4.875-2.743 8.226 1.524 5.484-3.047 2.438 6.094 2.132.914-.304 3.351-3.961 2.133-2.438 4.875m-76.17 23.155h.915m.61-2.132-.61 2.132m2.132-17.366.305 2.742-3.656 7.617 1.828 4.875m-31.687-14.016-5.788 7.617m38.694-14.624.304 5.789m-29.553 6.398-1.524-5.484-4.265 1.523m13.1-.61-2.437-.304.915 2.133-1.22 2.133-1.827-.61-2.133 2.133-.61-.914m-16.147-7.617 3.656-3.96 5.18-.61 2.437 4.57-.914 3.656m9.445 3.352.61 2.437-1.524 2.437 4.875 3.352-.61 7.007m-.61-26.811-.913 2.437 1.219.305.609 4.875m21.937-5.18-2.133-2.133-6.398 1.22-1.524-1.524m216.627 28.64-3.96 5.484m0 0v17.671l2.437 3.656M324.815 249.9l-9.14-1.523-1.219 1.523-4.265-.305-4.57 2.438-2.438-.914-2.742 3.047-8.226-1.22-2.742-1.827m5.484-24.68L291.3 230.4l-1.828.304m-15.234 7.313 4.265-2.133m3.961 23.46-.305-2.742-8.53.61-2.133 6.093m2.742-25.288-1.219-1.524-4.875 1.524-1.523-4.57-5.79-5.18 1.22-1.828h7.007m20.414 24.679-2.742-1.524-4.266 3.656.61 4.266m6.398-26.812-4.875.61.61 1.218-2.438 3.047-4.266.305m-81.958-14.625-.61-.304m-57.28-5.18v-1.828m17.672 1.828.305-1.219m-17.976 1.219-1.22.61m15.844-69.772h16.758m1.828 77.693-3.047.914m-12.187-10.664 1.828 2.438m10.359 8.226.305-2.133-1.829.305m-21.632-19.195.305 4.875m37.17-50.881 17.672 14.015m-4.265 49.053-12.797.305m-35.647-6.398v1.828l1.523-.914 1.219 1.523m0 0 1.523-1.523 3.961-.305m25.593-4.57 4.875-4.875 1.828.61.305-1.829 5.789-2.437 3.046.304m-30.468 20.414-1.828 2.437-1.828-1.523-2.437 1.219m-28.64-3.656 1.523-2.438 3.961-1.219-.61-1.828m46.617 5.18v4.875m-9.75-25.593.914-3.961-.914-.914 1.523-37.78h7.313l-13.406-9.75m4.57 52.405-16.148-.914-.305 1.218h-5.484l-.914 1.524-2.133-2.742-2.742 4.265m-18.585 5.484 6.093-1.218 4.57 1.828-2.132.914-3.047-1.524-6.398 2.438m31.382 4.875 1.523 3.046-1.219 1.829 1.524-.305 1.219 3.656-.305 1.219m-15.539-17.367 2.742 3.352-.304 2.742-15.539-1.22-5.789 1.524m19.804-11.273-7.921-8.836-7.617.61-1.22 2.133M174 226.439l-2.133-2.133 1.828-4.57-.61-1.828 4.57-2.438 2.133-5.484 2.133 1.219m-50.272-34.429 1.219-2.437h14.624l1.219-7.008 4.57-2.437 2.438-10.969h12.796l2.742-11.578 12.187-5.484m231.861 23.156.305-.305m-17.976-22.85 1.218.609m25.593 17.976 2.133-.61m4.266-1.219 1.218 1.829M396.11 192.01l7.922 3.351.61 4.875 7.921-12.187 21.327-7.921.305-8.836-2.437-3.047-11.578-1.219-7.922-10.968m11.883 28.64v1.828l6.093 9.14m-36.866-55.147-3.351 1.524-3.352-1.828m24.68 8.53-6.399-6.398m-10.36-5.484-.913 3.656m35.647 12.187 2.438-2.132 1.828 4.265m-40.522 66.725-4.875.305-.305-2.438 2.437-4.875 2.743-.914m-11.274-76.779.305 1.828 1.523.61m12.492 52.709-4.875-.305v3.656l-1.523 1.22m11.273-53.624-11.882-3.961-2.438 1.219-3.047-1.22m48.14 29.25-.305-5.484 1.523-.61-1.523-3.351 1.523-.61M401.9 202.675l.305 2.742h2.133l-.61 1.523-5.18 1.524v2.742l-3.046.914-.61 1.523m4.875-76.779.61.61m-6.398 88.966-2.133-3.047 2.437-3.96m-38.39-53.015-6.093 5.789-3.656-.914m3.047-34.429-.305 1.828m-38.39 32.6h27.422l.609-.913.305.914h7.312m1.523-34.429.914 2.133m-41.74 43.569.609 17.367-4.875.609-4.875 12.797 3.047.914 2.133 7.921-5.485 1.219-2.437 3.047m12.492-89.576 1.218 3.047 2.438 40.218h-4.57l.304 2.437-18.28-9.14m60.326-33.82 4.57.61 2.133-2.742 2.742-.61m12.797 52.405-4.266 4.265h-1.828l-2.133 20.11-1.828.304-2.437 3.96-.914 5.18-1.219-.914-1.219 1.524v2.742m-52.404-4.266 3.046 4.266m-109.38-4.57v-.61m67.335-8.226-2.438-1.219m-43.264-27.726 7.007-1.218 7.617-6.399m-19.194 24.984-15.844 1.523m35.038-26.507 20.414-11.882m-54.538 38.39.914 5.179 3.352 2.437-1.524 1.524 2.743 1.828 2.437-.305.914 3.961m61.545 8.836L266.317 224v-7.007l-2.437-3.961m-50.272-11.578 3.351-4.875 1.219-12.492-4.266.914v-3.96l-5.789-1.828-7.312-7.008m87.748 1.219-17.672-8.836-7.921 3.96-3.047-2.437-6.703-1.523-1.524-3.352-5.788-1.523-3.352-6.703 2.133-1.523.914-5.484-1.828-9.14m-53.014-23.461v-.305m-7.313 23.765 9.14-3.96v-3.047l3.962-1.524h6.398v-10.664l-1.524-1.218m196.214 20.413h-3.047m-28.335-7.922 15.234 6.399.304 1.523m-7.921-37.78-2.133.914 3.047 3.96-.305 1.524 6.398 7.313 3.656.914-.914 7.007 3.657 3.961 5.484 2.437 2.133 2.438.609 3.351h1.219l.609 1.828 2.437 2.133m-54.842-4.875.61-1.523m1.218-6.094 1.828-.609m14.93 3.96 2.742 1.22m-17.367-3.352-1.523 3.047m.304.61-.304 1.827 2.132-.304.305 1.523-.61 4.57m-4.57-5.484 3.047 5.484m-39.303-6.703-1.219 6.094.305.61m50.881 0h.305l1.523-2.134-4.875-3.96 8.227-3.047-3.047-4.57-6.398 4.265-4.875-1.828m-104.81 10.36-1.219-7.618-2.742-1.828-2.742-5.484 3.352-3.047.61-7.008 1.827-1.828m.305 27.726-.305-.305 3.961-2.742.61-3.96 5.484-3.047v-2.742m292.796 119.13h.305l-.305-1.22.61.914.609 4.266.304-.61-.304-2.437m-4.57-15.539v-2.132m3.046 16.757h.305m-263.852 16.148-1.523 3.047m263.547-44.788v.914m-15.234-46.006.305 1.218m-1.22-2.437 1.22 2.437m15.843 50.577.305 1.219-.305-.914.305 1.523m-4.266-20.718.305.61-.305-.61m-5.18-14.015-.609-3.047.61 1.828-.305-1.523m8.226 27.42.305 1.524m-15.234-45.092.61.914 1.218 5.18.61.913m7.007 15.843.61 1.829m5.179 21.327v.305l.914 3.96-.305-.913.305 2.437m-13.71-44.788.913 2.742h.61l2.742 8.836.305.305m-2.438-9.75.61 1.828 1.218 2.437 3.047 9.445m5.18 23.156-2.133-8.836-.61-3.656h.305m-12.796-36.561 1.523 3.351v-.304l.61 2.132.913 1.828.61.914-.61-1.523.61 1.219.304 1.218.914 1.829.61 1.828-.305-.305m2.133 7.008-.305-1.22.305.306 1.523 4.265 2.438 7.922 1.828 7.007.304.914-.304-1.828-.305-.61M529.56 173.12l.914 1.828h.304l-2.437-5.789.305.305-.61-1.524.914 1.524-.61-1.828.61 1.523-1.218-3.96.914 2.132.304.305 1.524 3.656v.61m12.492 54.537v-1.828m-14.625-53.624v.305m-36.257-34.429 10.055 8.836-.305-1.219 3.351 1.219m4.57.61.915-.61-.914-3.047-.305-3.047m-3.352 11.883 2.133.61-3.047-6.704v-.61l3.656 5.485 3.352-.61-2.742-4.265-2.742-1.523.61 4.265m6.702-3.96-.61-1.22.915 1.22 1.828 3.046.304-.304 1.829 3.351 1.828 4.266.914 3.046 2.132 5.18.61-.914 1.828 4.265.914.914.914 3.657.914.304m-18.89-31.382 1.219 1.219-.305-1.828.61.914.609 1.523v-.609l.914 1.219.304 1.523 1.524.914.914 2.438 1.218 2.132-1.218-.61.61 2.743 4.57 11.883-1.22-.915 3.047 7.922v1.219m-33.514-34.429-.305 1.219 1.523 3.656 7.617 5.484h2.133l3.352 3.352 3.046.914m36.867 73.123-.915-6.703-2.437-9.75-2.133-5.484-1.218-6.094v.61l-3.961-10.36.304-.304-1.828-5.484.61.304-.61-3.047.305.305m-12.796-5.789-2.743-7.007-1.523-1.828-.914-2.743-1.523-1.828v-2.437l-2.133-2.437-1.219-3.352 2.438 2.437v-.914l2.132 4.266 3.656 1.523.914 5.18 1.829 3.351-.914-3.351h.304l4.875 10.664-.61-.61.305 1.219m-49.967-13.71-1.523-.305-.61 3.047m3.047-27.117-.305 8.531-2.132 1.219-1.828-1.524-.61 3.657.61 1.828 2.132.914.61 2.437 2.132 1.219 3.047 5.484-4.57.61m-17.671-24.375.304.61-5.18 1.828-10.358-1.828m9.445 19.804-.61-4.57 3.352-1.524-.305-2.133-2.133-.61-1.523-4.265-3.047-1.218-5.18-5.484v-.61m35.648-48.748h.61l4.57 3.96-2.438-3.046m10.055 46.92 1.523-.61 1.828 1.524m-35.647-47.53.61.61M439.07 64.045l1.828 1.219 1.523.304-.304-.914 2.742 2.133m40.522 66.42 3.352 2.742v.914M448.21 64.045l2.438.61-.61-.61m-4.874 2.437-.61-2.437m4.266 16.148 1.218-1.219 1.829.61-1.524-1.524-4.265-5.18 3.351 1.22.305-.915-4.266-4.265.61-.305-1.828-1.828.914-.305 2.132 1.828 4.57 2.133 3.961 3.047 5.79 5.789 3.046.914 3.656 2.133 5.484 5.484 2.133.305m-18.28 2.742v-.61l-1.829-2.132-.609-1.829-5.18-5.18-1.218-.608m-7.922 16.757h-.305m-3.96-3.352-.914-.609m5.18 3.656h-.915m3.352-1.828-.305.914m-9.14-2.437 1.828-.305m-7.008-4.265.914 1.523h.914l3.351 3.047m-23.46-12.187 5.79 3.96m28.944 11.883 1.218.914-1.218-.914zm-1.524-11.273 3.961 1.828m25.288 39.608v3.047m-56.67-45.093 6.398-.914 4.266 3.047.305-.61 1.218 2.134m-3.351 8.53-3.656-3.96-1.524-.305m19.195 7.008v-1.219l2.133.305-.305-2.133m0-.305-.914-2.133 1.219.61.61-1.524 1.523 1.22m-4.266 5.179 2.437 1.218 2.438 3.047.914 3.656m1.219-8.53 1.523-.61 2.742 1.523 2.133-.914m-15.843-5.789.304.914 1.828.61-.914-2.742 1.828-3.047m5.18 7.312-2.742 1.219.914 1.219 3.047.304M447.6 87.81h6.094l2.742 1.523m-16.758.305-.609-1.523.914-.61 4.57 1.524-1.523-2.133.61-.914m-.61 10.054 3.656 1.219 1.523-2.438-2.742-.609m0 0-2.437-2.133.61 1.524-3.657-1.524.61-2.132-.915-.305m1.828 17.976-1.218-2.437-15.234-7.617m45.702 17.062v3.351h-6.094l1.219 2.437 1.218.305.915 3.047 4.874 3.656m-53.014-34.124-3.656-.61-1.828-2.741-.305-.305m17.062 24.679-2.437-3.96h-2.133l-1.523-1.22m47.834 21.328 1.22 2.133v4.265m3.655-13.71 2.742 2.437-.304 1.523-1.524-.609 3.352 4.875.304-.305 3.047 2.133m-24.983-24.374-4.875 2.132v1.524l3.046 3.351-.304 2.742 1.219 1.828h-2.743l2.743 3.047-1.524.914 1.828 4.57-5.18 3.047.915 4.875m-15.234 0 .914-4.265-.914-1.524-2.742-.304-3.657-6.399.305-1.828-1.523-.61-.914-1.827.914-.61-1.524-5.18 4.57 1.524v-2.437l2.743-1.524-.914-3.351 1.523-1.828 7.008 2.437 1.218-1.523 1.22.914.608-5.18 2.743 2.133 3.351 4.875 1.523-3.047 3.961.61M448.82 80.498h-.305l.305-.305m28.03 41.436.914 1.524-2.133-3.961-2.132-1.219-2.438-3.351-4.57-1.22-2.437-3.046-4.266-1.828.914-1.219-3.351-3.96-2.438-.305-2.437-3.352-.305-3.96 3.352.609-.914-2.438h2.132l.914-3.046m-89.27 17.062.914.914m28.335-28.64 5.18-2.133 3.35 1.524m-.913 13.405-7.617-12.796m-25.289 12.796-4.875.61m-3.046-29.554.609 4.875 2.133.61m6.703 29.248 3.351.61 2.438 2.742m-15.539 18.89 3.351-2.133-1.218-7.312 3.047-2.742m6.398-17.976 5.484 2.437 1.219-2.133m-10.055 1.828 4.875.914-1.523-3.046M364.728 87.2l-9.445-2.132-1.828.61m51.796 7.311h-1.524l-5.789-3.656-3.656 2.133m-27.116-21.937.914 1.219 4.57 1.219 2.437 2.132-1.218.305 2.742 1.219m-.914 15.234-5.18-2.742-3.351.304-2.438-1.219m4.266 21.328 1.219-.914 4.57.305 1.218 1.218 1.22-.609m3.35-6.703-.913-2.437L376 97.864l.915-.914-4.57-3.96m-3.961-28.945h.304-.61m5.79 35.038 5.789 3.047 4.265-3.352 1.828 1.219-.304 2.133 3.351 1.523m-28.03-11.273 3.96-.305 3.657 2.438 1.218 2.742 4.266 1.828m40.217-9.445-4.875-1.828-.914.61 1.829.913-1.829-.61-1.523 2.134 1.523 2.437-3.046-.305m19.804 16.148-3.047-2.132-6.094-1.524-1.523-1.218-4.57.609-1.219 2.437-2.133.305m-38.084 0-7.313 2.133m-.61 13.406 3.657-2.133m-3.047-11.273-2.437.61-9.445-.61.61 2.132-2.438 1.22m96.583-54.843 2.742 1.523 4.57 3.657-.914-.914 1.524 1.218m-21.937-2.437.609.304-1.219-1.523 3.352 1.523m0 0 1.218-.609 5.18 3.047m10.968 0-.914-.914-2.742-2.133-3.656-3.656 1.219.914m.61 5.789-1.22-2.742 2.438.914 2.133 1.523.304.305m-51.795-3.96-.914-.61m-3.656-7.922h.914m.914 7.617 1.828.305m-2.742-7.922.914-.61m24.984 3.047 7.921 4.875m-14.624-5.18h1.218v-1.827m-19.5 7.312-2.741-1.219m7.007-9.445h3.352m0 0 3.047 1.828 1.218 1.22m-11.882-.61 2.133-.61m17.366 1.524.61-.914.914 1.218 3.96 1.828m-22.85-3.656 2.742-.914-.305-.914m7.312 3.047 2.133.305-.914-.914 2.133 1.523 1.523-.61 1.524 1.829m14.624 5.18 3.352 2.437m-33.515-1.219.61 1.523-3.352-.304m-2.742-3.352 1.218-.914-1.828-1.828 2.438-.304-2.742-.915v-.609l-1.524-.305-.609-.914 3.96-.609m-3.046 9.14-.61-.304m.915 0-.305.304m-11.882-1.218h-1.829m6.703 2.742-4.874-2.742m-12.797 3.351.305 1.219m10.663-4.57-1.218-.914-.914.914-3.047-.914m23.765 2.742v1.219l-4.57-2.133m-.914 0-.305.914-2.742-.61-.61 1.524-3.656-1.524.914 1.524m-13.71 1.828-3.961-1.219m5.789-4.265-3.352 3.351 1.829 2.133m-151.73 24.07-5.18-2.438m-24.68 4.875h6.4l1.523 1.523-3.047 1.828-2.133 4.875-1.828.305 1.219 2.133-3.656 7.007m159.956-42.96.61 1.22m0 .304v-.305m-.915-1.218h.305M285.817 86.59l1.218.61-.914 1.218m8.227.914-6.094 1.524m22.85 10.359-.304.61m-3.351-5.485-.61.61m3.352 5.483v.914m6.093 7.008h.61M306.839 97.56l.305.914m6.703 10.359.914.304m-5.789-9.14h1.219m-.305 3.96.305.915m3.047 2.133.609.914m.914 1.828.61.914m2.132-35.648.914.305m21.937 3.351-.305.915m-22.241 31.381h1.523m-6.398-5.18v.61m32.6-38.085.915.61m-33.21 1.218h-1.22m10.36 42.046 1.219.61m-14.93-44.179-2.742.914m2.742-.914 3.352 1.523m33.515-1.828.304-1.523m-1.218 3.96-1.829.915.305 1.523m1.524-2.437h2.132l-.304-1.828m-31.992 21.632-3.656-.305-2.133 1.219m30.164-27.116 6.093.914m-27.42 9.75-4.266-4.876m25.288-6.093.305.305m-42.046 28.64-.61-2.438-1.827-1.219 2.132-3.047-2.437-2.132.914-1.524m-8.531 15.844.914.609 2.742-3.656-3.351-6.703h-.61m3.656 5.789 11.578-2.438 6.094.914.914-1.523 1.523 1.219-1.828 2.437m-23.156-25.288 4.57-1.524 4.876 2.133m-2.438-1.523 2.133-1.828-.914-1.828 1.828-1.22m-8.836 12.188 3.047-.305 2.437-4.265 3.352-1.828 5.789 1.219 5.484-1.524 5.18 3.96.914 4.571 5.484 1.219m-32.296-3.047h.61l4.57 3.352-.305 1.218 4.57.61.914 2.742 8.53.61 5.18-1.829 5.485 1.523m-30.164-17.976h.305l4.57-.914 3.047 1.219m-18.89 8.226-3.047 1.22-.914 2.436-6.093-.304m17.671-1.219 2.133 2.133-1.524 1.219m.914 4.57 2.743 1.523m-5.18 2.133 1.523-3.656 2.133-.305-1.219-1.219h1.22l-1.829-1.218.914-1.828-12.187-.914 1.523 3.351 7.922 5.789zm-38.39-4.266h.305m4.266 8.531 1.523-.304m1.828-3.961v-.61m25.898-17.976-.305-.304m-24.374 3.351v-.61m32.296 25.594 1.523-.305M249.864 87.2l-.609-.914m-27.116 2.438-.914-.305.914.305zm5.18.305-5.18-.305m19.804-24.68-.914 1.22m-19.5 23.155-4.875-.304M265.403 67.7l2.742.61 1.219-1.22 4.57.61 1.828 2.133M264.49 78.06l-.914-2.133 1.219-.914-4.266-.609-.61-1.219-5.788.61m-17.671-9.75h-.305m6.398 1.523h-2.742l-.914-1.523m42.35 1.523-6.093 2.742m10.968 20.414-1.523-.305-.914 2.742m2.437 7.313h.305M242.552 76.84l-.914-1.523-2.437.914 3.96-4.265 5.18-1.22 3.656.915m20.414 2.133 1.523-.305-.305-2.437 2.438-.915 4.57.915 4.265-1.22m-32.905 1.829 1.219.914 1.219-.914 2.437.61 3.352-1.22 2.437.915-.61-2.133 3.352-2.133-3.351-2.133-.914-1.523m-18.281 20.109.61-1.219-2.438-.61-.61-2.437 2.133-1.219-.914-1.218 3.656-.305 2.133-1.828 1.523 2.133 1.22-2.438 2.741.914 1.219-2.132-3.047-.61.305-1.523m-6.094 0 2.742-4.57-5.484-1.524v-1.523m22.242 10.968 2.742.61 5.484-1.828 5.18 3.656 7.312-1.219m-6.398-12.187 2.437 1.828 1.523-.61 1.828 1.22M211.17 49.115l-3.351 1.828 4.265.914M300.746 35.1l-.305.914m1.828 1.829.61.304m23.46 21.632v.305m-22.546-12.796h-.61m-1.218-8.836.914-.305m14.015 14.015v.61m-11.883-6.398-1.218.914m-.61 0-1.828.304m15.539 4.57-2.133-1.218m-12.796-8.227.609-1.218m23.46 16.757.305 1.523m-7.922-2.132-2.437.304m-14.015-19.5.609 3.048m-10.969 9.75-.609-2.133m0 0-3.96-.305m28.944 9.14-.305 2.133m4.266-6.398-3.047-.914m-4.875 7.007 3.656.305m10.664 0 3.351.914m-28.335-13.406.914.914-1.523.914m19.195 4.266-3.657.914m0 0 2.133 3.047m-17.671.609 5.789.914m-5.79-.914-5.483.914m19.499-8.226-1.828-3.352m-18.89-31.382 1.828.61.305 1.218 2.132-1.523m6.703 29.859-3.046-3.657m5.18-12.796-6.095 5.18m5.485 24.069 5.484.61m.914-12.188-7.922-1.218m-3.046-3.657-5.485-1.523-2.437.61m24.374 15.843 5.484-.914 2.133 1.523m3.656 2.742 1.828 1.828 5.18-.304 1.828 1.523m-37.78-14.625-.61 2.438-6.398.304m-7.312-5.788 2.437-.915h7.617l4.875 2.133m-5.18-29.554.305 1.22 2.742.913-.914 1.524 5.485 5.484-.914.914 4.265 1.828M293.13 16.21l-2.438.609-1.218 1.828-4.266-.305-2.133-.914-1.218.61 5.789 1.827 2.132 4.57m-7.921-6.398-.914.914m14.015 45.093 2.133-1.828-3.656-5.18 1.828-2.437-3.047-3.656h-8.227m-31.99-1.828 4.265.914m-14.016 13.406-.304.609m.61-2.438-2.438-2.132-4.875.304m33.82 1.524-.305-5.18-1.524-.61.914-1.218m-31.991 9.75-3.656-3.352m6.398 3.352-.305-.61-2.132.61m44.483-45.093v.305l-3.352-.305-.304.914h-2.133l-2.438 3.047-1.828.305-2.132 3.047.914.914-3.047.304-1.828 1.524-.305 3.351 1.523.914-1.523.914.305 2.133-1.524.61-.914 2.132h-2.132m.914 24.984-.61-1.219m23.46-11.882h-1.218m-40.218 13.1-.305-3.35.914-2.133 3.352-1.219-.914-.914 2.133-2.438-2.133-.609m14.93 9.445 9.444-1.828 3.656.914.61 1.828.914-1.218 2.437.304 1.524 1.219m14.32-47.835h.609m-.305 0h-.61M32.325 376.95h-1.828m9.445 22.851 3.351.61m-2.133-7.922 1.22.304 3.046 6.399m-21.632-34.734 2.742 2.438 2.132 5.18 1.829 5.179m2.132 9.445 4.57 5.18 2.743 7.921m-7.922-13.71.914.914m-.61-10.055 1.524 1.524 3.047 7.007 1.828.305 3.96 10.359.61 4.265m2.133-1.218-.305 4.57 1.828 7.312m-27.42-60.326h1.828l1.218 4.57 2.437 4.265 2.133 8.836m-.914 9.445-3.656-11.578 1.219-1.828m.61 15.844-1.22-4.57 1.524 1.827 1.523 3.047-1.219-3.96h.61l4.875 7.921 1.523 1.523M7.34 326.07l1.83 7.312 3.35 14.32.914 3.351 1.22 3.961 1.218 4.266.305.914M6.122 321.499l.913 4.874.61.61v-2.133m.609-3.351 1.219 6.093.914 3.352.914 2.437.914.61 2.132 4.265 1.524 1.219 1.523 5.789 1.829 5.484h.304M7.645 324.85v-3.351m7.312 35.038 2.437 6.398.915 2.133 1.523 4.57 4.57 10.664.61.914 1.828 4.265.914 3.352 4.874 9.75v.304l4.57 9.14 1.829 3.047M11.3 235.274l.305-.609v-1.523m4.265 29.554 1.219-5.18-.305-7.008 1.219-3.96m-4.875 18.28h.61v-3.047l1.523-.304 1.218 2.437.61-1.218 1.219.914 2.741-8.836m-11.577-1.828.304 2.133-.609 5.484v4.57l.914 3.047 1.828-3.656 1.22.304-1.524-10.054.304-3.96.914-.915.305-2.133m-2.437-11.273.609-1.219m-8.836 30.468-.305 3.047.305.305v1.828m.61-10.36.304 1.829v5.789m0 0v-4.57l-.304 2.132-.305-1.523v1.523h-.305m2.133-21.327-.914 7.921v5.485l-.61 2.742m6.703-11.578h-.609l-.305-3.351.61-3.657.914-1.828v-2.132l.305-1.524m-1.524 12.492v1.219l-.61 2.132-1.828 2.438-.304 2.133-.914-3.047m0 0-.305 8.226.61.305v1.219l-1.828 7.312v-1.828l-.305 1.219-.305-2.133m1.828-37.78-.609 4.874-.305 3.047-.304 2.438h.304l-.304 3.96.61-.304m5.178 4.57-.304 3.351v.61m-3.351 68.553-.305-2.743.305 2.743m-.61-2.438v.305l.61 2.133m-3.047-26.812-.305-.914.305 4.57m4.57 23.156v-.305l.304-.914.305 1.219M2.16 285.546v-1.523l.305 2.437.305 5.485.305 2.132-.61-14.32-.305-5.179v-3.351l.305-.305m15.539-89.271-2.742 7.312m-7.617 28.64-1.219 6.703M85.033 78.06l-1.219 1.524m2.438-3.352 4.875-4.265-.914.914m0 0 .61-.61-5.79 5.79m-2.437 1.523.61-.305 3.046-3.047" style="fill:none;stroke:#fff;stroke-width:.59845888999999997;stroke-miterlimit:4;stroke-opacity:1;stroke-dasharray:none;display:inline"/><path d="M251.654 301.51c-.148-.11-.563-1.037-.921-2.06-.359-1.021-.834-2.37-1.058-2.996l-.648-1.422-5.003-4.82-4.76-4.54-2.255-4.055-2.254-4.056 1.017-.048 1.018-.047.2-1.122.2-1.122 11.457-.042c6.3-.023 11.474-.003 11.496.044.022.048.64.507 1.373 1.021l1.333.934v1.806c0 1.741-.027 1.883-.75 3.907-.414 1.155-.78 2.132-.813 2.171-.033.04-.427-.288-.876-.727l-.816-.798-.693.793-.693.792-1.032-.107c-.567-.06-1.051-.162-1.075-.228-.187-.513-1.703-2.635-1.803-2.523-.07.078-.33.706-.576 1.394l-.448 1.252h-2.24c-1.232 0-2.24.018-2.239.04 0 .023.393 1.338.872 2.923.821 2.72.85 2.877.523 2.787-1.354-.373-1.41-.352-2.437.887-.895 1.078-1.183 1.535-.909 1.735.263.193.62-.248 1.35-1.11.446-.529.903-.961 1.015-.961.111 0 .66.142 1.22.316.559.174 1.046.287 1.083.25.036-.035-.31-1.323-.769-2.86l-.917-3.073c-.074-.25.117-.282 1.965-.323l2.047-.045.347-.931.347-.93.538.9c.612 1.021.793 1.119 2.383 1.278l1.146.114.533-.672.532-.672.942.932c.518.512.973.9 1.01.86.037-.04.512-1.332 1.054-2.871l.987-2.8V276.843l-1.157-.813-1.156-.812h16.408l-.099.495c-.083.416-3.445 4.35-7.328 8.572-.385.419-.388.449-.251 2.343.112 1.545.083 2.296-.146 3.857a92.505 92.505 0 0 0-.29 2.056c-.002.064-1.185 1.002-2.63 2.084a1134.003 1134.003 0 0 0-2.803 2.104c-.12.093-.352-.31-.712-1.242-.294-.759-.6-1.421-.682-1.472-.082-.05-1.179.595-2.439 1.435l-2.29 1.526-1.453-1.181c-.8-.65-1.512-1.183-1.582-1.186-.177-.006-3.83 3.067-3.83 3.223 0 .069.097.206.215.304.167.138.584-.13 1.851-1.192.9-.754 1.694-1.369 1.764-1.367.07.002.3.136.51.297l.381.294-1.324.776c-.729.428-1.358.862-1.397.966-.04.103-.01.838.069 1.632.15 1.538.102 1.679-.58 1.683-.202.001-.41.112-.461.245-.113.295-.238.304-.59.04zm-9.524-22.86c.024-.071-.284-.251-.685-.4l-.729-.27v1.618l.685-.408c.377-.225.705-.467.729-.54z" style="fill:#b3b3b3;fill-opacity:1;stroke:none"/><path d="M237.429 274.047c.06-.378.154-.86.21-1.07.099-.374.11-.37.499.201.218.321.434.584.478.584.045 0 .553-.133 1.131-.297l1.05-.299-1.292-.677c-.939-.492-1.151-.655-.777-.596l.516.082.109-1.106.11-1.107 3.575-.103c1.966-.057 4.047-.143 4.625-.192l1.05-.089-.14-2.662c-.076-1.464-.112-2.687-.08-2.717.032-.03 1.903-.11 4.157-.174l4.098-.12-.119 2.463-.119 2.461.625-.097c.344-.053 1.28-.17 2.079-.26.8-.09 1.712-.204 2.027-.253l.573-.088.366 1.038.367 1.038-1.335 2.363-1.335 2.363H237.32l.11-.686zM246.774 292.948l-.646-.6c-1.777-1.73-4.08-3.984-5.12-5.009l-1.888-1.862-2.19-3.958-2.19-3.958 1.009-.081 1.01-.08.225-1.09.226-1.09 11.406-.041 11.406-.042 1.413 1.025 1.414 1.025v1.822c0 1.759-.026 1.895-.747 3.903-.41 1.144-.775 2.112-.811 2.15-.036.04-.432-.287-.88-.726l-.815-.798-.652.767c-.69.812-.935.886-2.237.67-.5-.082-.665-.248-1.37-1.372-.442-.703-.876-1.254-.966-1.224-.09.03-.373.612-.63 1.293l-.466 1.24h-4.503l.118.363c.76 2.34 1.603 5.452 1.476 5.452-.089 0-.455-.088-.813-.195l-.653-.196-.941 1.04c-.957 1.056-1.093 1.339-.752 1.55l-.433.022zm-4.857-14.115c.294-.2.274-.23-.323-.478-.35-.145-.69-.296-.757-.337-.066-.04-.12.304-.12.763v.836l.444-.285c.244-.158.585-.382.756-.5z" style="fill:#346733;fill-opacity:1;stroke:none"/><path d="m309.068 232.477 4.63-6.803 2.268-.378 3.78 3.78h5.29l3.402 1.134 2.268-1.134 1.89-1.134 2.645-3.401 6.047 4.157 4.914-6.047v-4.914l2.267-2.267 1.512 7.18 1.89 1.89v3.402l3.118 1.89" style="fill:none;fill-rule:evenodd;stroke:#fff;stroke-width:.6;stroke-linecap:butt;stroke-linejoin:miter;stroke-opacity:1;stroke-miterlimit:4;stroke-dasharray:none"/></svg>