<svg xmlns="http://www.w3.org/2000/svg" width="550" height="550"><path fill="#fff" d="M551.05 275.04c.423-79.994-36.484-159.16-98.107-210.23-61.305-51.788-146.28-74.613-225.16-59.412-84.018 14.42-159.21 71.149-196.52 147.77-34.7 68.85-38.064 152.55-8.836 223.94 30.52 78.024 99.268 139.71 180.06 161.78 77.74 22.602 165.12 7.72 231.25-38.999 66.603-45.839 110.71-122.8 116.39-203.53.72-6.532.907-13.183.914-19.804"/><path fill="#b9b9b9" d="m244.42 1.73-1.238.286h.635zm-1.238.286h-1.206l-.54.285zm5.49-.286-1.808.286h.603l-1.524.317.286-.317-.984.222-.222-.222-.793.317h-.127l-1.81.286 1.524-.286-3.681.603.634-.317 1.524-.286-2.444.286-1.333.158 1.015-.158 1.714-.286h-1.714l-.603.286H238.01l-.286.158-.317.032v-.19l-.571.317H235.566l-.445.254.952-.159-1.11.222.126-.063-.254.032-.127.031h-.952l-1.238.286h-.603l-1.523.317H231.312l1.841-.317.984-.19-.222.095v.031h-.032l-.444.064H233.153l-.095.063h-.032l-1.714.254-1.523.286.92-.286-1.047.19.444-.19h-.317l-1.84.286h.317l-.318.159.92-.16h.318l-1.396.255.158-.095-.888.158h.317l-1.428.254.476-.254-1.523.318-1.27.285h-.254l-.19.095-1.016.223-.063.031-1.143.254h-.635l-.222.095-2.507.54h.317l-.92.286h-.318l-.285.317h-.635l-1.809.286-1.238.317-1.523.317-.603.286 1.523-.286-.92.286 2.158-.603-.635.317-.888.286-4.888 1.84-2.444.286h1.238l-5.205 1.524-1.809.92h-.603l-2.158.603 1.428-.222h.032l.38-.063-.76.222-.128.031-2.475.667v.286l1.523-.603h.92l-2.126.603h1.206l-2.126.317.317.286h-.317l-2.127 1.237.318-.92-1.238.317-1.524.889h1.238l-3.967 1.523h.603l-1.428.286-1.619.952-.603-.317-2.126.603 2.412-.286-1.524.286-.603.635-2.888.603 2.285-.603-.92.285 1.523-.285-.603-.635-.317.635-.286-.318-2.507 1.08-.54.126 1.207.318-2.444.317v.603l-1.81.286.223.222 2.825-.825v.317l-4.285 1.206-2.126.603-1.08.825-.444.095h.603l-1.777.889-.952.35-1.841 1.205 3.047-1.206 1.84-.92-2.443 1.809v-.603l-.286.317-2.158.603h1.238l-1.524.318v.285l-1.523.318.603.285-1.206.318h.603l-.92.317.317.286-2.158.92 1.84-.603-2.729 1.206v.317l-1.523.92 1.206-.317-1.841.603 1.523-.285-1.523.603h.317l-.92.285h.92l-1.523.318h.92l-1.523 1.206 3.967-.889-2.761 1.206 1.84-.603-2.443.92 1.523-.317-1.206.92 1.206-.603-2.126 1.524 1.809-.92.317.602.318-1.206h1.809v-.634l1.84-.603h.286v-.603l1.523-.318-.285-.285h1.523l-.603-.318 1.81-.603.92-.92.317.317.286-.92 1.84-.317 1.206-.89v.604l.92-.92.318.317v-.318l1.524-.317v-.603l.603.317 1.523-.92-.603-.317h1.523l2.127-1.81.285.286 1.841-.603.603-.285 2.127-.318 3.364-1.523.317.317-1.079.445-.444.444 2.73-.603.602-.603.92.317 6.697-2.76 2.127-.287 1.84-1.237-.92.92h2.126l.92-.603v.286l5.174-.603 9.14-2.444h.635l-3.047-.603-3.364.603-.603.317-.317-.317h-.603l3.65-.603H210.587l3.65-1.206.634.285 2.412-.285-2.412-.603h1.81l-.286-.635 2.126.92-1.238 1.524 2.444-.603-1.206.603h1.206l.603-.92 1.84-.604h-.92l1.524-.603-1.81.318 1.81-.635-.92-.603-1.81.603.92-.603h1.207v-.603l-2.127.603v-.603l3.333-.317h-2.412l1.523-.286v-.317l.286.317 2.126-.317.318-.603v.603l.984-.222.54.54 2.728-.318 1.238-.286-.92-.317-1.524.317.603-.317 2.127-.92 1.238.602 1.523-.285h-.92l-.603-.318 1.523-.603h.286l-.603-.317 1.238.317h.285l1.841-.603h-.603l-1.238-.317 2.444-.286h-1.523l.603-.634h4.284l1.206-.603h-.92l-.603-.286h2.126l-.285-.317h-.318l-1.84.317 1.523-.635 3.681-.603 4.57-.92h-2.761l.92-.286h1.524l.095-.095 2.635-.222h-2.412l4.252-.286 3.047-.635h-1.84l-2.127.318h-1.206l-5.173.603 5.776-.92-4.57.317 2.73-.318h-4.254l1.841-.285h3.047l3.332-.318h-1.809l1.524-.285-5.49.285 2.443-.285-3.364.285.603-.285zm-23.77 9.426-1.81.317 2.445.286zm-12.79 4.57 3.65-.285.634-.635zm-25.74 7.776.16-.159-.286.222.127-.063zm-.126.063-.952.381v.318zm-11.68-.92-.285.095h.35l-.064-.095zm-.285.095h-.54l-.221.222zm-.761.222-1.302.381 1.206-.285zM317.83 2.936l3.967.92 1.523.286-.286-.285-2.158-.318zm5.49 1.206h-.92l1.84.318h.318l-.92-.318zm-22.534-.888-.603.603 1.81-.318zm7.014 0-.92.285h-.318l1.524.318zm-28.944.285v.318h-1.523l.888.603 1.238-.318h1.524l-1.524.318 3.333.317 2.443-.635-2.126-.285h-1.206l-.317-.318-.318.603-1.809-.254v-.031h-.317l-.286-.318zm44.464.318 1.84.603 3.333.603h.92l-.92-.286h-.412l-1.301-.286-.096-.031h-.063l-1.46-.318-1.523-.285.92.285-1.238-.285zm-49.034.285-3.047.318 1.81 1.206 2.126-.603v.317l1.238-.317-1.524-.92-.603.634-1.523-.317zm2.127.92.92.318-3.967.603.285.318 3.047-.318-2.126.318 1.238.285-2.159-.285 3.047 1.206 2.158-2.127h.889l1.238-.317-1.524-.286-1.523-.317-.603.317-.92-.635zm3.332.318.92.286.603-.286zm.92.286.318.92 1.523-.285.286.285 1.238-.285-1.524-.635zm46.622-1.206 1.81.444.158.032 4.443 1.047-2.158-.603-1.523-.317-2.73-.603zm7.935 1.84 5.459 1.207h-.286l1.11.317h-.19l.572.095.634.19-1.206-.285h-.317l.92.286 1.206.92 2.127.603-1.524-.286 5.205 1.524-2.444.285 4.856 1.524 3.65.92h-.603l-1.428-.222-.095-.095h-.603l-2.444-.603v.317l1.84.603h-1.65l-4.76-1.523 2.76.92 1.524 1.206 3.967 1.238 2.127.889 2.73 1.523 1.84-.286 2.73.603 3.046 1.206 1.238.92 2.126.604-2.443-.603-5.174-2.127-.92.318 3.967 1.809 2.73 3.047-4.856-.92 2.126-.604-3.65-2.73-3.046-.92-3.682-1.84-3.332-1.206-3.047-.92-3.65-1.81-1.84-.317h-1.841l3.681 1.84.286.89 3.65 1.523 1.84.92h1.206l3.365.92 1.84 1.524-6.728-1.841h1.238l-8.855-1.206v.603l3.682 1.238h-1.238l.317.285.603.603-3.047-1.206-.92.603h-2.73l.604.92h-1.206l-1.238.921 5.173 3.967h3.364l-3.364.286-5.459-4.253 1.524-.92h-1.238l-1.206-1.206.92-.317h-.92l-.318 1.206-.92-.603-3.935 1.237 1.523.603h-1.84l1.205 1.206-2.412.318-3.047-1.238 1.81-.603-.92-.603-6.095-.92 2.159.602 4.57 4.285-4.285-.92-1.809.92-.635.603-.285.317 1.206.89 1.84 1.237-.92-.317-3.364-.286-.603.286.317-.603-3.364-.603v.92l3.65.889-.603 1.237-6.094-1.523-2.126-1.84.603-.921-3.967-.889.92-.317-3.967-1.206 14.345 1.809.889-.603 1.237-1.206-3.65-1.524-.634-.317-9.14-2.126h-2.73l-.317.92v-.92h-2.127l-.603-.603h1.841l-2.158-.318-.889.603-1.84-.603-.92.318-1.524-.635-.603-.286 2.73.286.92-.603-3.65-.603-1.206.603.603-.92-1.524-.286-.317 1.206h-.92l-.286-.92-1.523 1.523.603-1.206-2.127-.318-1.238 1.524h-.285l-3.047-.286.603.286.603.635-1.523-.635-1.81 1.238h-.317l.318-.318.285-.92-.603.635-.317.603v-.92l-1.206.317.92.888-2.444-.603-.603 1.524-2.126.317h-.317l.317 1.206-.92-.92-1.238.317.92.317h-1.809l1.81.603-2.73.603 2.126.318-3.967.285.92.318-1.682 1.11-1.047.096.889.603-.89-.286-1.522 1.524 1.809-.318-3.333.92h1.81l-1.81.318.889.603-1.524.286-.285-.603-3.364 2.126H262.7l2.127-1.206-1.206 1.523-2.444.318v-.635l-2.761.317v1.524l-1.524-.603 1.238.92-1.46-.285-3.713.285.889.603-.603.603-1.206-.317.603.317-2.444-.317v.635l-.603.888h1.523l-1.84.318h1.523l-1.206.603 3.047-.286.603-.317 1.237.603.603-.92.286.634-1.809.889-.603-.603-3.967.317 1.206.286h-1.524l.603.634 1.238-.317-1.84.92.602.603.92-.603-.92 1.206 4.285-1.523-5.49 2.126.92.92 2.444-.92-2.159 1.238h1.841l-.92.603-1.524-.603-.285 1.206 3.047 1.524 3.046-.286 3.65-2.444h2.127l1.206-2.126.634 3.935 1.206-.286-.603 1.206 1.206-.92-.92 1.524 2.761 3.046-1.238.635.635 2.412h3.65l1.523-1.809h3.047l2.444-3.364-.635-2.73h1.238l-1.84-.317 3.363-.603.286-.92.635.92 1.809-1.206-1.524-.317 2.444-.603-2.73-2.127-1.84-.317 1.206-5.173.92.603 3.968-1.841 1.206-.286 1.84-1.523-1.206-1.84 1.206.316-.317-1.237 1.523.634.318-.92 3.65.286 2.443 1.523-8.22 4.888 2.127 2.73-.603 2.157 2.73.889 1.237-.286-.317 1.206 12.79-2.126.317.92 4.57.92-5.173.286-.317.92-5.491-.602-4.856 1.206.889 2.126h2.158v2.761l-1.84.92-3.048-2.158-2.126.318-1.524 2.73 1.206 4.284h-2.126l1.206-2.127-1.206 1.81-1.523.317V50.479h1.206l-.889.286-1.84.92 1.205-1.206-2.73.889-2.443-1.524-9.14 2.444-.286 1.238-4.285-2.444-6.093 1.206.92-1.206-2.73.286-1.84-1.524.92-2.126 3.968-2.126-2.159-.603 1.841-2.762-5.49 1.524-2.127 6.41.92-.317.921 1.238-1.523.286 3.046 2.158-3.046-.92-.635 1.523-1.206-.92-2.73.317.89.889-4.254-.286-1.84.92.92 1.206-1.81.92-.92-1.84-2.76 2.761 1.523.889-3.65.317 2.126.603-8.22 1.524-.285 2.126-1.238.635-4.57 2.126-5.49-1.523.634 3.65-4.285.317-.603-1.238-5.49 1.238 1.523.889-1.523-.286.317 1.523 5.49 1.206.604 3.047 2.126.603-1.206 2.158.286.603-3.967 7.014h-17.36l-1.524-1.238-6.093 2.762 1.237 2.412-3.967 7.934-3.967 4.888 2.126-.635-1.809 2.158h1.206l-2.126 5.173 7.617-.92 3.047 4.887 4.855-2.76h8.252l3.333-3.048 2.76-.285 1.207-2.761 2.126-.92.92-.604-.602-.603-.603-.92.603-2.126 1.206-1.206 3.967-3.682 8.537-3.047v-3.332l1.524-1.524 2.729-.92 6.697 1.84 9.775-4.887 4.57 1.524 2.412 5.49 16.154 8.538 1.84 4.57-2.126 3.047 1.524.285 2.126-3.332 2.126-.92-2.443-2.444 1.237-2.73 3.65.603 1.81 1.81.634-1.207-9.14-4.887.603-1.524-4.888-.603-3.967-5.173-3.936-2.126-.634-4.285 4.887-1.206.92 3.364 2.444-1.84 4.57 6.41 3.333.286 2.761 1.84-2.444-.602 6.094 1.809 3.047 2.444-.92 5.173 2.729 2.444 2.761 2.73 1.523-.287-1.523.92 1.523 1.81 7.903.603-.889.92-5.807-1.206-.92 1.524 2.443 3.967 1.523-.92 1.524 2.443.317-1.523 2.444 1.523-2.158-4.284 3.047.317-2.127-1.523 1.841-.603 2.126 1.206v-1.841l-6.093-2.412 1.84-.635-.317-1.523 1.524.92-3.365-4.856 1.238-.634 3.967 2.443-.92-1.523 2.444.92-2.444-2.126 4.856-.92 6.093 1.206-1.809 2.158 4.253-3.364h5.173l-5.458-5.174h-1.238l3.65-3.65v-5.204l.634.92 1.81-.603-.604-3.047.603.603 2.127-1.523.317-1.524 3.65-1.206 1.84 1.206-3.046-.285 1.809.603-.603.603 5.808.317.603 1.206-3.364 1.206h2.126l1.523 2.761 2.159.92 7.617-3.363h-3.682l-3.047-2.73 3.047 3.047-1.809-.317-2.126-1.841 1.523-2.127v1.524l2.127-1.81 9.743-2.157-1.523 2.158-2.73-.318 3.65 2.127-1.238-.603-1.206 3.047-2.73.603 12.79 5.808 5.491 2.411 2.412 3.365-.603 1.523-3.332 1.84H351.978l-7.014-1.237-5.807-3.047-5.46.318-6.728 3.332-7.3-.603.604 1.523 2.761.318-3.681.285.317.92h-7.935l-1.809 1.842-.317 1.523 3.364-.317-.603 3.364 1.81.92-1.81.286-.92-1.206-.603 1.523 3.935.92-.888 1.207 2.73 1.523-1.207 1.206 3.935-.286-3.332 1.524 3.967-.92 4.856 2.729h2.761l.286-2.73h2.126l6.729 3.365 4.252-.92 1.841-2.127 2.73.889 2.729-.89-.286 4.571 1.81 4.253-4.253 12.79-8.22 1.238-.92-1.841-3.65-.317-7.332 3.046-8.506-2.412-7.33-.317-1.207-1.841-6.696-.889-.92-1.84-5.491-1.206-6.411 3.046v5.46h-.286l-4.285 2.157-4.57-2.443-8.505-2.127-2.159-3.967-7.3-2.126-4.252.285-8.252-3.65-.603-1.84 4.888-3.936-2.444-3.681 2.444-3.65-2.444 1.523-2.444-2.444-7.014 2.159-5.458-1.238-4.285 1.84-5.173-1.237-10.981 1.84-4.57 2.444-3.333.603-4.57 2.444h-3.047l-.317-1.523-6.38.92-2.157-2.76-1.81.602-4.887 7.014-10.664 5.808-3.332 4.57-.92 5.46-.318.317-2.444 3.046-6.094 4.253-5.458 1.238-3.968 5.49-3.65 2.127-3.046 6.38-4.221 3.427-6.443 9.394-1.523 4.253.888-1.524 1.841 4.253-2.126 3.967.603 7.332-3.65 9.426-4.285 4.284 3.364 3.936-.317 2.444 3.682-.603-3.047 1.206-1.238-.89-.92 3.936h2.158l-2.158.92 3.046.318-1.523 1.206 1.84.317-.602 1.206 4.253-1.206-2.444.92 1.84.89-2.126 1.237.92 1.524 1.207-.603-.603 1.206 1.523-.92.603 4.284 1.84.888 1.81.92-.92 1.524 1.523.603.317 3.967 1.524-.285-2.127.603 3.333 3.332-.286 1.841 5.173 2.73 10.061 9.457 5.173 2.127 6.094-3.047 9.458-1.206 8.823 2.444 9.14-4.285 6.41-2.444 11.268-2.412-1.84 1.206 4.57.317 3.046 2.73 1.524-.92-1.524 1.237 2.127.286-1.524.317.635.92 1.523-.92-1.523 1.81 3.047 4.284 3.332-.317v-1.206l.603 1.206-.286-1.524.92 1.524.604-1.81 1.206 1.207 4.284-.318-.317-1.809 1.523 2.127 1.524-1.206 1.523 3.65 2.444-.604.603 1.206h-1.206l1.81 3.65-3.048 9.14 1.841.318-.317 3.047-1.524-.318 3.047 1.524-2.126.603-.92-1.206-.921 4.887h-2.126l4.57 8.22 10.06 9.744 2.127 6.093 2.444 1.206-2.126.635 5.49 10.95-1.84 3.046 2.126 4.284 2.126 4.856-.889 5.808-5.204 5.459-3.333 11.298.603 9.743 12.504 20.407 2.127 16.44 9.743 15.551 4.253 7.014.317 3.333-1.84 1.238 2.158 5.776 1.523-.92 4.57 3.046 10.346-3.332 8.823.92 8.855-2.444 13.108-9.14 4.253-5.49 1.84-2.127 4.856-3.967 3.967-10.346-.603.888-1.237-1.523 13.425-7.903 1.206-8.537-2.73-7.3.286-3.967.92.92 6.697-4.57 2.761-4.57 13.71-6.41.603-1.207 4.253-6.093-.889-8.855.889-.92-.603-6.697 1.523-3.047-2.73-2.126-1.237-.92v-.286l-1.206-7.935.92-2.126h-1.237l1.84-3.967-3.364-4.57 2.158-6.411 3.65-7.617.92-1.81 3.65-2.126-.92-1.523h2.444l9.743-12.822 10.346-8.22 7.617-9.744 10.061-23.454v-2.76l-.285-1.524 2.126-.603h-1.523l.285-6.38-2.126-.92-4.856 3.047-8.252.92-3.65 2.127-2.729-.92-4.887 2.443-6.38-5.808-2.76.318 3.649-2.127-.603-2.126-10.061-10.061-4.253-1.524-.92-1.523-.92-.92-.286 1.84-6.411-13.71-5.49-3.682-2.413-10.346.889.603-2.412-4.57-5.49-3.968-1.524-4.252h1.206l-3.047-2.444-8.22-14.314-4.57-4.888-1.206-3.935 3.935 5.776 4.57 3.364 1.841-7.331-.92 5.808 2.761.286 10.029 12.187 1.523 3.65 4.57 2.443 3.682 6.094 1.206 5.808 3.65 3.046 3.65 3.047 9.775 13.71.603 6.982 4.856 11.902 6.41-.317 2.127-3.047 11.902-3.046 2.126-2.73 10.346-4.57.603-3.967 8.855-2.444.603-3.65 3.364-.603.603-3.65 3.333-1.237-1.206-5.491.92-1.81 1.206.921 2.127-7.934-5.174-5.776-5.49-1.841-2.73-2.444-2.443-4.856-.286-3.046-5.49 9.426-5.174-.286-1.523 1.206-3.364-1.523-.92-7.014-2.127-.286.603 5.459-4.253-5.46v-2.76l-5.808-4.253-4.856-7.331h-1.523l1.523-.889-1.238-1.84-.285-.318 3.332.317-.286-1.523 2.73 1.523 1.84-.603.604.603 6.696 8.823 3.968 1.238 5.776 3.967 3.967.889 5.173-3.047 3.967 6.094 9.458 1.84 5.776 1.524 13.108-2.73 1.841 3.333 1.809.317 1.84 3.65h.604l-.445-5.65-.158-1.65-3.65-5.807 3.65 5.49.158 1.968.445 4.729.92.92h.92l.286 1.523.92-1.206-.317 1.524 3.047 3.047 3.047-.635v1.84l-3.047 1.207 7.331 7.014 2.73-2.127-1.206-5.173 1.523.286-.603 1.238.603 1.523h.92l-.317 1.523 1.84 2.444.287 4.253 6.696 17.075 10.664 22.851 1.841 5.459 1.523 5.205 2.73 3.935 1.238-1.523v-3.047l1.809-1.206-.603-.92v-2.444l.317-1.206 1.206-.318-1.523-6.379v-7.617l-2.73-8.22v-2.761l1.206-.286v-2.443l1.84-1.238-.602-2.412 1.523-5.808v-4.856l1.524-2.444-.318-3.364-1.206-2.73.889-1.84-.603-2.127 1.523 2.73-.285-2.127 1.206 2.127-.603-2.127.603 1.524v-1.524l.603.92-.603-2.443 1.206 2.761-.889-3.681 1.206 2.76v-.602l-1.206-2.761h.889l5.808 11.267-.318-1.524.603 1.841 1.238.92 1.206 2.73 3.047 8.22 1.84 7.331v-1.523l.286 2.126v-1.206l.92 1.524-.285-1.841.603 1.84-.317-2.443.317-.603-.603-1.841.603 1.523v-1.523l-1.238-3.364 1.841 4.57.317-.286 2.127 7.903 1.809 6.094-.286-1.81 1.524 5.174.92 4.57.286.92.603 4.57.634 3.333v-1.523l.286 1.523.92 8.537.318-.92 1.523 6.697v.031l.032.095.254 1.111v.603l1.238 10.664.888 7.014 1.238 7.617v-1.84l.286 1.523-.603-6.982-.603-8.252-.318-3.935-1.523-7.014-.603-1.524-1.206-7.617-.603-2.444h-.317l-.603-3.364-.318-1.809-1.206-8.22v-.635l-.095-.254v-.031l-.222-1.238-.92-3.333.317-.92.92 3.967.286-.317.92 2.444 1.301 5.205.54 2.729v-.92l.92 3.332-.634-2.73-.762-4.252.762 3.65-1.524-7.617-.666-2.793-2.38-9.109-.223-1.492-.222-.825-.444-1.333-1.175-3.808.445 1.174-.508-2.539-.286-.317-3.046-9.426-1.524-4.285-.635-1.809-.603-2.126v.285l-.349-.888-.857-2.444.286.889-.603-1.524-.19-.476.031.19-.444-.92.222.222.095.096-.317-.635-.857-2.158-.063-.254.317.603-1.301-2.825-.222-.54.063.255.127.349.032.158.032.064.031.095.127.19.794 1.937-.603-1.206-.603-1.524.222.444-.54-1.364-.603-1.206-.603-1.841-.92-1.523.603.92-1.206-2.761-.603-.889v-.317l-.92-1.524-.604-1.84v.317l-.92-1.84.603.92-1.523-3.047-.92-1.524v-.285l-.921-1.524-.603-1.238-.286-.285-1.238-2.444-.285-.317v-.603l-.92-1.841-.318-.286-.92-1.84.634 1.523-.92-1.524-.571-1.142.571.857-1.238-2.444-.285-.286v-.031l-.127-.096-.19-.507-.286-.445v-.158h-.096l-.825-1.238.413.73-.413-.413v-.603l-.317-.317-.286-.603-.317-.318-.318-.603-.285-.285-.603-1.238-.318-.286-.317-.634-.127-.127-1.682-2.92-.317-.286v-.032l-.286-.57-.317-.318-.318-.603-.603-.603-.285-.635-.318-.286-.603-1.238-.317-.285-.603-1.238-.603-.286-.603-1.237-.318-.286-.603-1.238-.603-.285-.317-.92-.92-1.207-2.444-3.047-.286-.634-.317-.286-.603-1.238-.603-.285-.318-.603-.285-.318-.318-.603-.92-.92-.286-.603-.92-.92-.317-.572-1.81-2.158v-.317l-2.157-2.444-.89-.92-2.76-3.333-.603-.603-.318-.635-.888-.888-.318-.635-.603-.286-.317-.603-.603-.635-.317-.603-.604-.285-.285-.635-.635-.286-.286-.603-.603-.634-.634-.286-.286-.603-1.523-1.523-.318-.635-.603-.286-.317-.603-.603-.317-.286-.603-.634-.603-.603-.318-.286-.603-.635-.317-.285-.603-1.524-1.523-.603-.318-.317-.603-1.524-1.523-.603-.286-.317-.635-.603-.285-2.444-2.444-.603-.317-.317-.603-.603-.286-1.524-1.523-.603-.318-.317-.603-.603-.317-1.523-1.524-.603-.285-.318-.635-.603-.286-1.523-1.523-1.206-.603h.285l-.285-.317h-.159l-.159-.318-.285-.127v-.158h-.318l-.92-.92-.286-.286v-.032l-.317-.286-1.206-.603-.317-.634-.603-.286-.92-.92-.604-.318.603.635-.92-.635-.603-.603-.318-.286-1.015-.793.825.603-.698-.73-.635-.317.254.254-1.46-1.175-1.206-.984-.38-.253-.54-.286-.064-.127-.254-.159-.349-.349-.825-.54 1.777 1.492-2.126-1.523-.603-.317h.317l-.793-.54-1.048-.666.318.317-3.364-2.507-3.872-2.73-.381-.222v.254l1.555 1.08-1.873-1.08-.317-.603.635.35v-.033l.38.254 1.143.667-.635-.635-1.809-.889-.317-.634-2.444-1.206-.603-.603-.603-.318-.317-.285-1.206-.635-.603-.603-2.444-1.206-.92-.92-2.444-1.206-.159-.096-.032-.031-1.618-.794-.286-.285 1.904 1.079-2-1.175-.539-.54-2.539-1.269-1.428-.857.825.54-.507-.254-1.238-.603-.286-.286-1.84-.92-.286-.317-1.841-.92-.318-.286-1.206-.603h-.603l-.317-.318-2.444-1.206-.285-.317-1.841-.92h-.286l-1.238-.604-4.252-2.126h-.603l-.635-.317-.286-.286-3.65-1.84h-.634l-3.047-1.524h-.603l-2.444-1.206h-.603l-2.444-1.238h-.603l-2.444-1.206h-.603l-1.809-.92h-.634l-1.206-.603h-.603v-.318h-.603l-1.238-.603h-.603l-1.206-.603h-.635l-1.206-.603h-.603l-.159-.063.445.063-.794-.254-.158-.063-.159-.064-.635-.222-.666-.317h-.318l-1.047-.35-.476-.253h-.603l-.603-.318h-.444l.73.318-.826-.318h-.095l-.317-.158-1.174-.445H355.628l-.761-.253 1.047.253-1.428-.412.222.095-1.206-.286-1.238-.317 1.523.317-.317-.127.38.064-.158-.064-.571-.158-.857-.35.159.16-5.935-1.683-2.761-.603-2.286-.54-.126-.063h-.16l-1.364-.317-.635-.286h-.888l-1.238-.317-1.809-.286zm18.63 4.507.127.064h.127zm.127.064h-.19l.697.19zm1.936.603-1.524-.603h-.254zm1.206.444.412.159h.095l-1.396-.603.889.444zm74.075 35.514 2.73 2.063 4.093 2.856 1.301.794-.825-.54-2.539-1.872-.508-.254-.095-.19-1.365-1.016-.666-.317-.54-.54-.063-.095-.095-.032-.54-.254-.285-.317-.603-.286zm9.077 6.348.507.349-.158-.318-.603-.285zm1.586 1.174.572.349-.286-.254-.444-.254zm89.88 117.4.064.254.54 1.27-.604-1.524zm.064.254-.159-.35.19.508-.031-.158zm12.346 40.21.508 1.842-.127-.572-.92-3.65zm2.19 10.41.349 1.81h.286l-.318-1.206v.92zm.635 3.333v-.603l-.254-.73zl.825 5.046-.222-2.285zm.825 5.046.063.762v-.317zm-18.82-48.304h-.603l1.206 2.127zm-388.4-20.344.254-.38-.92.92zm116.1-132.57.54-.031-2.444-.318 1.904.35zm68.775-23.486-.603.92h-2.73v.286l-1.237.92 2.443.604-.603.603.286.032-.603.603h2.761l-.92.603H327.295l-1.841-.603 1.523.285-1.523-.603 1.523.318-1.523-.635 1.238.317-1.841-.603h1.523l-.285-.317-.635-.92 2.444-.89-2.444-.92zm-.286 4.57-1.523.286 1.206.318-.92.317h1.84l-.603 1.206 1.524.603 1.809-.286 2.76 1.206 4.571.318-6.411-1.841-1.809-1.206-.317-.635zm-88.07-2.76-1.81.634h1.524zm110.32.317 1.205.317 1.524.603h.317l.603.286 1.809.635-2.73-.92h-.602l-.318-.318h-.285zm-116.1.92-1.207.286h1.524zm-4.888.92 1.523.286-1.65-.254.127-.031zm113.97.286-.92.318 1.205.285h.635zm-114.57.603-1.81.318h-.92l-.603.603 1.206.317.825-.825 1.302.222zm-29.865.318-.953.38.064-.063-.857.286h.222l-.508.158.826-.158 1.206-.603zm-2.127.603-.857.317h-.063l-.222.127-1.302.476.92-.286-.602.286.92-.317.857-.286h-.254l.603-.317zm-.603.317.54-.095.285-.19zm-1.523.603h-.603l-.667.317h-.254l-.698.286h-.222l-1.143.571h.064l.793-.254.889-.317h-.095l.222-.064-.127.064.92-.286.92-.317zm168.37-.793.571.19h-.159zm-9.268 1.047 4.825 1.27-2.762-.604zm5.777.19 2.094.762 4.253 1.523 1.238.635.603-.317 2.126.603-2.73-.286-1.522-.635-1.238-.285-2.73-1.238.92.635zm-169.13.762-.826.413 1.397-.413zm0 .317-1.429.413-.19.095zm-1.619.508-1.428.413-.635.19v.032l-.286.063h.286l1.238-.285-.857.158 1.46-.476zm-2.349.698-1.523.635-2.126.603-2.158.92 1.237-.317-2.126.603h.603l.603-.286h.317l1.048-.444.761-.19 1.238-.603 1.206-.286zl.286-.095v-.032l-.286.127zm.286-.127.413-.158h-.413zm.413-.158h.222l.603-.318.095-.031.698-.223h.064l-.572.254.73-.19.16-.095h-.16l.19-.064-.221.032-.032.032h-.349l-1.428.603zm-6.792 2.73-3.364 1.237-4.57 1.809-.604.317-.317.286h.317l-2 .857.477-.254 1.206-.603v-.286l-2.412 1.206v.318l-.92.285-3.047 1.841 4.57-2.126-1.238.92 2.158-1.238-.317.318 1.206-.603h.317l1.206-.635h.635l1.11-.825 1.016-.381-2.126.603 1.523-.603.286-.318 1.81-.507.951-.381-1.84.603 1.523-.603-.92.285-.921.318 2.158-.92-.635.317 1.524-.635h-.286l.92-.286zm-2.761 1.237-.603.286 1.523-.603zm-8.506 3.332-3.047 1.238-.92.603-2.444 1.206-.603.317h-.349l-.317.16-1.175.444-1.206.603-.92.603-.603.317-1.524.603-3.967 2.761 6.602-3.745.698-.222-4.253 2.444 2.73-1.524 4.887-2.443 1.27-.762-.667.444.984-.603 2.38-1.11zm-2.444 1.333-.317.19 1.238-.602zm-4.92 2.032.636-.318 1.142-.571-2.031.889zm179.19-10.981 1.207.603 2.444.634v-.317l-.603-.317h-.318zm-149.29.317-.92.286-1.523.634.603.286-1.523.317 2.158-.317 1.523-.92.603-.286zm176.71.286h.318l2.412.92-2.412-.603zm-87.753.92-1.206.92 1.809-.92zm18.884 0-.286 1.238-2.126-.318zm31.388 0-.286.603 1.81.635.92-.635zm40.529 0 1.523.317h-.92zm-94.768.92-1.523.603h.92zm.635 0-1.238 1.206 3.047-.888-1.524.285zm99.02.92h1.207l-.318.286zm-68.266.286 1.237 1.238-1.237.286zm-12.187.318h3.364l-.603.603zM171.62 21.66l-.318.16-.92.316zm190.11.476.285.603-2.412-.317zm-144.72.286-1.841.92h-2.444l-.889.92.286-.92-2.444.92-.285-.602-.318-.318-3.332 1.841 1.809-1.523-1.524-.92-.603 1.205-.603-.603-.92.92-.92-.317-.286.635h2.73l-2.127.603.92.286-3.967.317 3.047 1.206-3.967 1.238 3.047-.317 1.206.317 1.237.603 4.253-.603 4.57-.92 3.65-1.524-.603-.317h1.238l-.317-2.127 1.523-.603-1.84.603zm161.76 0 1.84.317 2.444 1.206v-.285l2.127.603 3.65 1.84-3.968-1.84-1.809-.603.286.285 7.014 3.682.54.38 1.586.826 5.491 2.444-5.49-2.127-1.588-1.142-7.236-3.745-3.046-1.206zm-75.25.635.921.888-1.523-.285zm-131.01.888v.318l-2.284.444zm190.42 1.524 5.174 2.761 1.238 1.523 10.664 3.65 7.902.318 6.729 1.523.444.19.444.096 4.57 2.126 1.238.317 2.127.92 5.776 2.445 2.158.888 3.047 1.524-5.205-2.412-7.617-2.762-1.524-.92-5.014-2.222-5.332-1.11-8.22-.318 2.444 1.238-14.631-5.49-2.127-1.841-4.284-2.444zm-66.108.92 3.046.92h-2.729zm15.837 1.524h.317l2.73.92h-1.524l.603 1.206zm14.028.317 2.443 1.206 8.22 2.444-8.22-2.127zm-29.262.286 5.49 2.76-2.444-.92.318 1.175-1.524-.571.603-.92zm14.314.317 1.237.603-1.523-.286zm-15.837.603.603 1.84.317-1.237 1.206.635-.889-.92 1.524.602-2.761 1.841.285 1.333.286.159 1.555-.286-.286.92-1.27-.634-.253.032-.032-.19-.888-.445.603-.889.603-.92-.603-1.238-1.206-.286 1.206-.317zm18.598.603 3.046.92 3.047 3.047-.92.603-2.444-.285 1.84-.318-3.966-1.523-1.524-1.81 2.127 1.207-1.206-1.206 1.809 1.206.92-.318zm-163.32.635-1.143.412-.19.127zm-1.333.54-.19.063-3.048 1.523v.286l1.524-.889 1.714-.984zM146.61 32.8l-2.475 1.46.666-.254zm-2.475 1.46-.222.095.571-.349-1.206.603.413-.158-3.174 1.999 3.174-1.968-.127.127.571-.349zm-3.618 2.19h-.286l-.317.317zm9.521-5.364.222-.127-1.523.604zm153.48-.412 1.524.285v1.524l-2.73.92 1.524.318-2.444.285-1.524-1.206 1.841.286 1.524-.603-2.412-.92h3.015zm-11.87.889h2.127l.317.634-2.158.286v.92l2.158-.92-1.523 1.238-.635-.318v.318zm16.154.92 5.776 2.761-2.729 1.523-4.888-3.046zm-165.16 3.364-.888.476.603-.19zm-.888.476-.318.127-.508.35zm-.826.476-1.015.571-1.841.92-.889.604-1.237.603-3.65 2.126 2.444-1.523-2.762 1.523 3.365-2.126h-.318l-3.047 1.84-6.696 4.253-3.967 2.73-3.428 2.444 1.016-.603-1.238.92h-.19l-.413.286-7.617 5.49-1.524 1.238-.317.286h.317l-.317.317h.317l-4.252 3.333 3.364-2.825.571-.825-1.809 1.523-.317.318-.286.285-.19.095-1.556 1.238-.095.19-.412.223-.35.254-.095.095-.349.349-.222.127h-.032l-.38.19-.064.19h-.032l-.032.096h-.158v.317h-.318l-.285.318h.285l-.92.285-.286.603-.603.318-1.237 1.206-.603.317-.318.603-1.206.603-.317.635-.603.286-2.127 2.126-.603.317-.317.603-.603.318-1.65 1.65-.19.159-.286.317-2.444 2.444-.857.793-.064.127-.285.286-.19.095-.445.413v.095l-.889.825-.317.413-.825.603-.064.063-.19.159-.476.444-.032.032v.032l-.254.476-.603.317-.603.603-.317.603-.286.635 2.444-2.761-.92 1.237 2.126-1.523 1.206-1.523-.286.603 3.65-2.762-2.126 1.841H86.91l-1.523 1.206.888-1.206-3.65 2.73-2.126 2.443-.92 1.238 4.284-3.967v.603l.89-.92 2.76-1.524.92-.603.477-.73.761-.476h-.349l2.762-2.158 2.443-2.412-4.284 3.332-.984 1.206.38-.603-1.523.635 1.524-2.158.92-.889 1.524-1.523h-.318l2.761-2.444-.92.603.92-.92v-.286h.603l1.81-1.238 2.443-2.126-.285-.317-2.762 1.84-3.332 2.73 1.809-1.81 4.285-3.046 2.729-2.126.92-.92h3.333l.634-.318.064-.159h.032l3.84-2.57 1.84-.604 3.365-1.84.888-1.206.635.285-.317-.603h.603l.603-.603 2.158-1.523 1.206-1.238-2.126.92 2.126-1.523.317-.603-2.094.984 1.777-.984-1.523.603 3.65-1.523v-.603l.92-.603-.92.285 1.237-.888-2.158 1.206 1.84-1.206.318-.318-.73.476-1.11.445 3.364-2.127v-.634l1.206-.603h-.318l.635-.604.603-.317.286-.286 2.158-1.237.889-.889.92-.317.92-.92.92-.604 1.207-.603-1.206.286 1.809-.889 1.523-.92h-.603l.92-.318 2.54-1.777zM90.561 74.853l-1.237 2.127 2.158-1.524h-.92l1.808-2.126zm1.524.889-1.682 1.714.761-.476h.318l.285-.603zm-1.682 1.714-.73.444h.285zm-10.22 5.903-.285.317-.603.318-.317.285-.318.603.318-.285h.317zm1.81-2.063.349-.35-.318.286-.031.064zm2.76-2.603v-.19l-.285.286-.444.57zm17.837-16.186.254-.222-.095.064-.16.158zm32.436-23.01 1.238-.603-.92.603 2.126-1.206h-.286zm190.14-3.65.603.604h-1.84zm38.688.921 3.364 2.73-.317.602.92.699.35.222h1.776l-.92.317 1.524 1.206-2.38-1.523h-.064l-.286-.222-.603-.381-1.84-.318 1.205-.603-1.809-.317.603-.603-1.523-1.809zm-96.577 1.523h2.126l-.603 1.524-3.967.888.603-1.523h1.84zm58.492.286h2.126l-1.206.317.92.286 2.73 1.238-.603 1.206-4.285-1.81 2.762.604zm-36.88.603 1.239.635 1.523-.318-1.523-.317zm14.029 0v1.523l-1.84-1.206zm-79.82.92-1.524 1.841h-1.523l-.317 1.81-2.444 1.237h2.761l-3.967 3.65 2.126-1.524 1.841-.92.286.92-.889-.317-2.444 3.047.286.635.635-.635 4.57-.286-2.158 1.206.635 1.238 1.206-.317-1.524 1.84.603.604-4.253.285-1.84 1.238 1.84-.317v1.237l-4.887 1.81 4.57 1.523 3.65-1.206-2.73 1.809h-3.364l-5.776 3.364 6.094-.603 1.206-1.238 10.06-.285 4.285-1.238.286-.603-3.047-.286 1.84-.317 3.333-2.73-.603-1.238h-3.967l.92-1.809-.603-.317h-1.206l2.127-.317v-.889l-2.444-1.238-.603-3.65-3.967-.603 3.364-.317-1.84-.286 2.443-.634 3.047-2.73-6.411.318 4.887-2.761h-4.57zm-3.047.318-2.761 1.206-.286.603 1.524-.603zm68.553 0 .603 1.206 3.047-1.206zm23.454 0 1.206.92-2.126-.317zM281.59 41.94l-2.126.92.285 1.207zm85.31 0 2.444 1.524-2.127 1.206 1.524-1.524zm-24.374.286.317 3.047-2.158-2.412zm-124.92.317.603 1.524.317-.603zm38.402 1.206 2.126.318-1.84.317.317.889-.92-.603-1.206.603zm87.722 1.238 3.967 1.523 3.967-.603-3.967.89-3.967-1.81zm-126.12.286-1.206.92 1.81-.286zm-91.72 1.237-1.207.92.603-.634zm138.03 0-.604 1.206-.603-.92-2.761.635 2.761 3.332v-1.206l2.126-1.523zm99.623.604.92.603-.603.317-3.65 1.809.286.635-.285.888 1.523.92 1.809-.285-.603 1.523 2.444.286-2.127.603.603-.286-3.967-2.443.318-2.73-.603-.92 1.523.603 2.73-.603zm-104.19.603-1.809.317-.317 1.206h2.126v-1.524zm167.89.317.92.603.223.762.317.349 1.873 1.364 2.76 1.778-2.443-1.524-.317-.254-1.524-.952-.349-.412-.254-.19-.063-.16-1.143-1.364zm4.253 0 .603.286 1.523 1.237zm-219.37.286-1.206 1.237-.317-.603-3.047 1.524h1.523l-1.523 1.206h-3.967l.634 1.206-2.444.92 3.047.603-3.967 2.158 3.65-.317-5.173 1.206h1.523l-2.444.92h2.444l-2.126.92 2.126-.317-1.206.635 5.173-1.238 5.173-.92 2.444-5.173 3.333-1.206-.603-2.127-3.333.603 1.206-.603zm-91.404.92-2.476 2.063.953-.825zm313.76.286.762.54-.096-.223zm-20.947.031h1.206l.317 1.206-1.523-.285zm-293.1.603-2.444 1.841.286.286-1.206.317.92-.603-1.238.603-1.523 1.206.92-.92.603-.286.413-.38.508-.223.444-.317h-.127l1.809-1.206-1.682 1.206h.159zm146.85.603-1.238.603 1.238.318zm-153.86 4.57-1.524 1.238v-.317zm275.42 2.127 1.84 1.238-1.237.285zm57.19.73.7.508-.287-.318zm-84.897.19-1.524 1.524.603 1.84 2.444 1.81-1.84.317v-1.206l-.604-.92-1.237-1.841zm-246.79.603-4.888 3.047-2.444 2.158-2.126 1.524-.603.285-1.238 1.238.318-.635-3.047 2.158h.92l-3.047 1.81-.92 1.237 1.523-.92.318.92 2.412-1.238-2.127 1.524 2.127-.603-3.65 2.126h.92l3.968-3.047-1.238 1.524-2.412 2.126 2.126-1.523-2.126 2.158h.603l3.65-3.047.603-.92-1.524.92 2.761-2.158-3.046 2.158.888-.92.92-.603.318-.635 1.809-.889-1.523.286 3.681-2.73h-1.238l1.238-.92-2.761 1.524 2.126-1.524-1.523.317 2.444-1.523h-.286l.603-.635-.92.635 4.57-3.364.603-.92h.603l.635-.92zm332.1.635 1.809 1.206 2.126 1.84zm-341.59 1.08-.286.126-.285.317zm-.571.443-.603.286-.19.35zm341.24.89 1.809 1.237.317.92-1.84-1.523zm-159.96 2.157.285.889v.317l-.285-.92zm-183.41.286-1.524 2.444.889-.603.635-1.238zm218.45 0 11.267 4.284 1.523-.317 1.206 3.65-3.65.317-.603 1.81-3.047.634 2.73-.635.317-2.412h3.364l-.317-2.158-12.79-5.173zm119.43.317.253.762.92.508 1.27.54.603 1.523 1.206.92v.603l2.444.92v.603l-3.047-1.523-1.523-3.047-.952-.54-.857-.348-.064-.16-.856-.475.603-.286zm-84.104.92h.317l.317.254 1.524.635v1.524l-.318 3.364-2.443.317-.603-1.523 1.84.603-.634-2.127h1.237l.92-1.523-1.523-1.27-.634-.253zm94.45.286 1.237.92.286.318-1.523-1.238zm2.76 3.047.921.603.889 1.523zm-71.6 4.285 4.857.285 1.237 1.238.92 3.65 2.127.603-5.173-.318-.317 1.841 2.126 1.206-3.65-.285.318.92 2.126.603 3.047 3.65 4.856 1.523.317 2.127 3.364 3.65-1.523-3.333 1.809-.603 5.173 3.935-2.126 1.524-3.333-1.524.889 2.762 1.84 2.126-.92-1.206 2.127.286 1.237 1.84-1.523-.603.603 1.81.92-.92 1.81 1.84 3.967 7.934-6.38.889-10.06-3.935-3.047-4.888.603-1.523h.317l-.92-3.047 2.126-.92-3.047-.921-8.537-6.982-2.444-4.57v1.523l-3.935-3.967V77.9l3.935-.317v-2.73l4.285-1.523zm54.24.888 6.696 1.238.92-.92-.317 1.523-6.093-1.523v2.443l2.73 3.333-3.65-2.73-.604-2.126zm-30.468.318 2.73.603.602-.603-.285 2.126 1.206 1.523 3.967 1.841-.603 1.206v2.444l1.523 1.206-2.158.635-.603.285-1.523-1.523-2.73.317-2.761-3.967-1.206-3.047h2.126l-1.206-1.84 1.524.92v-.92zm-316.45.127-.413.19-.317.286-.159.285zm359.11.793 2.412 2.126-2.127-.92zm-369.58 9.743-.603.318-.318.603zm171.54 1.841-3.364 2.412 1.206 3.047 2.158-2.126zm-174.4 1.016-1.111 1.11-.159.223.476-.222zm-1.27 1.333-.158.063-.16.35.318-.413zm-.317.412-.444.572.317-.286zm378.88-1.555.92.318v1.523l-3.046-.92zm15.55 2.127.921.92h-.92zm-395 .158-.793.762-.095.127-.031.032-.16.158-.063.127-.444.572.064-.032.317-.413-.19.35.317-.318zm-1.395 1.682-.127.064-.16.222.287-.285zm-.19.096-.413.19-.318.635.318-.318zm176.62 1.11-3.968.92.286 7.3 4.284-1.206 1.206-4.57zm-177.95.318-.287.285-.92 1.238.286-.317zm-1.207 1.523.127-.285-.73.888zm-.603.603-.92.92-.127.255zm-1.047 1.175-1.111 1.27.92-.921zm-1.111 1.27-.286.285-1.015 1.333.412-.413.603-.603zm-.889 1.205-1.364 1.81.73-.89zm-1.364 1.81.222-.445-.698.92.317-.159zm-.476.475-.318.159-.285.603zm-.603.762-.603.603-.286.603zm-.89 1.206-.57.762 1.396-1.746zm-.57.762.317-.477-.984 1.238.286-.285zm-.667.761.095-.158-.412.476.285-.254.032-.032v-.032zm.095-.158.889-1.08.095-.126-.793.761zm3.333-4.253.73-.952-.508.507zm4.92-5.903.793-.953-.635.635zm309.41-.953 1.84.92-2.73-.285zm-152.62 3.968-3.365 1.523 2.126.92 2.158-1.523zm84.706 2.126-1.84.635 1.84.888h1.206zm25.263.92 1.238 2.444-1.524-.92zm-36.244.318-1.84.603 6.093 3.364-1.206-2.444zm72.203.285-.92 2.444-3.047-.603zm-82.549 1.841-.635 1.206 1.841.318zm-18.28.92-11.903.921.603 1.523 8.537 3.333 2.762-5.776zm107.53 0 3.046 3.333-1.206.92-3.047-3.967zm-317.76.604-.604.888.159-.158zm-.445.73-.222.412.317-.508zm-.222.285-.476.73.222-.222.063-.159.095-.063.064-.095-.064.031.096-.222zm-.635.92-.54.508-.317.603-.127.127.127-.444-.476.793.19-.158.127-.159-.127.444zm-1.333 1.588-.413.444-.317.603-.603.603-.127.285-1.365 1.81-.031.031v.032l-.096.159-.19.412.825-1.142-.317.349.857-1.111-.476.698.317-.286.286-.57.063-.128 1.174-1.46.413-.73zm-2.317 3.237-.54.857.572-.857zm437.88-3.396 1.84 2.412-.317-.286-.603-.603-.603-.317v-.603zm-174.59 2.73-2.126 1.205 1.237.635zM55.171 113l-.54.54-.285.54zm-.857 1.143-.54.73.255-.127zm-.285.603-.603.603.349-.476-.35.19-.634 1.238.635-.635zm-1.238 1.555-.286.286-.317.603.317-.318zm290.97-2.158-8.22 2.444 3.047 2.126 3.65-1.523-.89-1.206zm-41.735.317v1.524l4.57.888h5.49l.318-1.206-1.84.92zm-249.87 2.793-.254.254-.222.413zm-.476.667-.603.888.19-.095zm-.603.888-.413.223-.73 1.428zm-1.143 1.65-.412.604.222-.222zm-.476.699-.317.286-.381.73zm-.698 1.016-.825 1.27.285-.16zm-.825 1.27-.318.158-.603 1.206zm334.83 1.046 4.284 1.841 3.936.603 1.237 1.841-1.523-1.84h-2.761zm125.01 1.365.38.667.128.127.222.412.634 1.047-.222-.253-.412-.794-.35-.54-.158-.19zm1.523 2.507.317.508-.095-.095-.222-.413zm-7.11 4.983h.921v1.524zm10.982 1.365.095.159h-.095zm.317.571.095.19h-.095zm-358.32 5.078-2.126 1.524 1.523-.635zm351.3 0 .92.889v.92zm-353.43 1.81-3.047 3.046 1.81-.603zm-8.22.92-3.047.92.286 1.523zm.889 1.523-.603 1.206 1.523-.286zm285.51 5.173-3.047 1.84 2.412-.92zm81.629 3.047v2.444l3.047 7.3-3.333-7.3zm-1.523 5.173 4.284 4.888-2.761-2.73zm-166.65 4.57 1.523 4.888-4.253.92-3.967 5.174 2.444-4.888 3.65-.889zm-325.4 17.995-.286 1.206-.317.92h-.286l-.635 1.842v.285l-.603 2.127v-.603l-.286.92-.317 1.047v-.127l-.92 3.047.603-1.84.317-.604v-.127l.603-1.396v1.206l.92-1.81.318-2.126.286-1.237v.317l.603-1.84zm-.286 7.014-.92.286-.604 1.84.603-.317zm517.64 0 .317.286v.92zm-397 7.903 3.047 2.444 2.158 4.57-5.205-6.697-6.982.286zm-120.35.603-.603.92-.286 1.524.889-1.206zm359.84 3.047.317 1.238 1.81.285-1.81-1.523zm-198.96.92 1.523 1.84-1.206.287zm-76.455 1.524v1.523h.889zm438.1 1.523.92 3.967.35 1.016zm-281.19 4.888.889 3.046 1.84-.92v1.523l4.253.603-5.459 2.762-3.364-6.411zm275.42 4.855v1.524l.603 1.238zm-101.15 1.841 2.73.92 1.84-.92zm-425.63.318-.92 3.935-.318 1.523.159-.127.159-1.079.603-2.444zm-1.08 5.331-.158 1.016v-.254l-.92 4.57v.889l-.286.92-.159.857.16-.54-.096.572-.127.38.063-.412-.158.667-.127.984.127-.73v.254l-.127.476.127-.381v.317l-.159.286-.032.095v.032l-.031.222-.064.476v.413l-.063.222v-.254l.063-.381v-.508l-.127 1.27-.095.73.127-.794-.222 2.444v-.286l-.19 1.27-.032.127-.096.73-.888 6.696-1.238 11.267v2.761l-.286 4.57v.921l-.317 3.332v17.678l.317.603v2.761l.254 3.27.032.063v1.841l.317.603.286 2.444v.285L3.76 292.7l-.317-.634v1.84l.317.92v3.048l.286.603v2.443l.317.603v2.444l.318.603v2.127l.888 6.696 1.524 8.538 1.237 6.093 2.127 9.744.317 2.443 1.81 6.697 1.84 5.49.92 3.365 1.81 5.173 2.443 7.014 2.444 6.38 3.65 9.14 3.65 8.251 7.617 14.917 2.443 4.253.318.318 1.206 2.443 7.934 12.187 7.3 10.664 2.126 3.047.603.92 6.411 7.903 4.888 5.808 1.206 1.206.317.413v.19h.159l.73.92 2.444 2.444 3.046 3.333.92 1.237h.318v.286l5.173 5.205h.286l.762 1.016.571.507h.127l.159.254-.286-.254h-.095l.603.603.317.286-.349-.476.508.476h-.159l.286.317 1.84 1.841-.793-1.079.127.095.032.032.031.032.73.92h-.126l.38.318.223.285h.126l1.08.92.92.604v.285l.92.635-.603-.317 1.524 1.206 1.523 1.237.92.92.286.286.698.603h.223l.158.35.032.031 1.016.857.92.92 1.523 1.207.603.603.603.285.032.032 1.206.92 1.523 1.524 1.841 1.523 1.524 1.206-1.841-1.523.603.317.317.286 1.08.92h-.16l2.254 1.555.38.318.54.38.16.19.285.16h.032l.063.063.857.698.19.127.032.032.698.38.825.604-.222-.254.096.064.476.38.127.127.253.222-.73-.539.381.38.445.286h.063l.127.127-.19-.127h-.159l.317.318 1.524.92-.318-.317.572.285.063.032.603.286.286.318.444.444 2 .762-.92-.92-3.936-2.127-2.127-1.492.286.286-.603-.318-.413-.19-.063-.127.476.317-.476-.349-.095-.19.698.444-2.888-2.031-.603-.603-2.73-2.127-.317-.317-1.809-1.523-3.364-2.73-.317-.349v-.285l-3.333-2.73-6.093-6.093-.92-.603-3.65-3.047-2.444-2.761-.603-.89-4.285-4.57-1.523-2.157-1.524-1.206v-.603l1.238 1.206-.603-.92-1.84-1.81.92 1.206-1.524-1.206-4.284-4.887 2.158 1.523v-.92l-4.888-5.777.603.318-2.126-2.158 1.523.634.317-.634.603-.889-.317-1.84-2.444-4.571-1.809-2.126-1.523-1.238-1.523-2.73-3.968-3.364-3.364-5.459 2.444 3.333 1.84 2.444 3.048 1.523 1.809-.92-2.127-6.38-2.444-5.205-1.523-5.776-1.206-1.523 2.126 1.84 1.524 6.983-.286-3.936L58 411.208l-.92-2.73v-3.364l-2.444-5.776-2.127-3.681-.603-3.047-.92-.889.92.286-.317-3.333.92-3.364 1.81-.317.634-3.936 2.126.603.286-1.84.635 1.237 2.126.286-.603-2.126 1.523-2.444-.92-2.127.286-7.3v-1.237l-1.206-5.49.317-3.047-4.285-22.534.318-1.206.92 2.126.603-1.84 3.333-12.474 2.443-7.617-.285-5.808-1.841-7.902-1.206-1.841-4.285-.603-4.252-6.094-3.968-3.967h-5.776l-3.047-2.444-2.76 4.888v-3.65l.602-1.238-1.206.603.92-2.126-.92-3.047-.603 2.127-.317-2.412-.603.888.317-1.206-.635.92-.603-1.84-.285 1.238-.318-2.159-.317 1.238-1.809-2.761-.317 1.238-1.206-.92-.92 3.967.92.285-.603.92-.635-1.523-1.523 4.888.317-3.364-2.126 1.237 3.046-2.158.92-5.776-3.966-.92-.603 4.284-.318-2.158-.603 2.158v-2.444l-.603 2.444.603-4.57 2.444-6.094h-.317l.317-2.443-1.523-1.841-.318-10.346-.317-.603-.286 1.523-.92-4.284-2.444-4.253-4.253.285-.92-5.173-.603 2.444.603-4.57-.318-3.047-.603-2.444v-.603l-.92.318.635-4.285-.318-2.126-.603.603v-2.73l1.206-1.84-2.126.317.317.92-1.237 2.127-.286-2.762-.92.635.603-3.364-.286-1.047-.032.127v-.921l-.286 1.238-.031.032-.127.127zm.445-.761.032.158.285-1.079h-.158zm.159-.92.476-2.444-.635 2.443zm109.97 279.23-.445-.35v.19zm-.445-.35v-.095l-.888-.603.888.698zm-5.236-3.586.063.127.603.317-.666-.444zm-1.46-1.08-.698-.57-.508-.35 1.809 1.524-.286-.318zM5.984 232.48l.063-.666-.158.508v.92l.063-.507zm364-16.915-.603 3.332-1.524-2.412zm-153.54 4.57 2.73 2.126-.921 4.253v.635l-.286-.635-.92-1.809 1.809-2.444zm-202.93 2.444-.92.603v1.809l-.604 1.238.92-.318zm504.24 4.57-.317.286-.286.317h.286l.92 1.206-.603-.603v2.444l.063.127v.031l.54 5.015-.603-.92 1.206 4.347v.54l.317.603.92 4.888 2.127-.92.92-3.968-2.126-7.014-3.364-6.38zm-506.37.603-.603 4.856.286.317-2 2.761-1.047 1.81-.286-.921-.635.92-1.523 7.014.635-4.57.888-2.444.635-1.206.286 1.206.603-1.206.444-.603 1.397-2.444.317-1.523zm180.68 3.047 4.856 5.776.317.603.92-5.776-1.237 13.393v-1.524l-.286-.285-3.364-1.524 3.047.92.317-.634.603-2.412-.603-.92-.92-.318h-2.127l2.73-.92-3.047-1.524-.603-2.729h-3.364l3.046-.317-.285-1.81zm34.118 2.126 1.809 3.967-1.81 11.267 1.524-11.584-1.523-3.65zm-53.636 2.444-1.206 3.332.603.92 1.206-.92-.603 2.444-1.81-2.126zm-163 1.809-.603 4.285.317-3.65zm531.98 2.761.603 1.81v-1.207zm2.444 7.3.888 4.57 1.524 4.57.92 6.697.92 2.76.318 7.015.603 3.935v1.238l.286 11.267.317 10.346-.317 2.761.317-1.84V302.08l-.317 3.047v-.286l-.064.571-.222.953v.888l-.318 2.158v.889l-.222 2.317.222-1.08v-.317l.604-4.252v-.318l.317-2.73v-1.523l.92-12.79.286-3.967v-.603l-.286 1.524.286-2.444-.286-.603.286-4.57-.286-1.524v-6.093l-.063.317-.254-.952v-.603l-.92-7.014v2.444l-.604-5.174-.285-1.523-1.238-4.253v-1.523l-1.206-3.967-2.126-1.841zm4.633 65.379-.698 3.49.317-.92.318-1.84.063-.73zm-531.73-62.332v1.84l-.634.604zm349.14 1.523 2.127 10.981-3.65-6.093 1.523-4.888zm-128.25 4.285-2.444 1.809v.317l1.206.603zm307.73 4.57.889 2.126-.603-2.126zm-263.55 1.809-2.158 13.71 3.364-7.014 3.967-2.126 3.333-1.81.92-.634 9.998-.825.38-.064.064.032.54-.032 10.06 6.982-10.6-6.95-.444.031-10.918 2.35-3.332.92-4.285 3.046.318 3.967-10.664 10.346-.318 4.285-.285-3.967 7.617-8.538 2.443-13.71zm62.745.317-.92 3.333-3.332 3.046-.318-2.126zm9.458 3.333-1.84.634.602 1.524-3.047-.92zm192.87.634v.603l.286 1.81.317 2.158v-2.159zm3.047.603.285 1.81v-.89zm.285 1.81v.634l.318.889zm-196.8 2.443.603 1.524 2.127-.286 1.206 3.047 2.158-1.238.603.92-3.65 1.206-.317 4.57-3.65 2.444 3.047.92-2.127 1.524-2.158-.603.318 2.127-1.206.92.285-2.444-2.73-1.206-1.84 2.73-.92-3.968 1.84-9.426 3.047-1.523 1.524.889zm-328.45.92-1.523.604.603 1.237zm312.3 2.127-2.443 2.444.603-2.127zm-332.42.603 1.238.317.095.318h.19l.921 3.173.603 1.683 2.127 8.537h1.777l.159-.635.507-3.015.286.127.032-.127.285.318.635.285.889-2.73H16.245l.635.604v1.523l.603-.317 2.126-3.65-1.523 2.73-.603 1.237-1.238.286-.285 5.49v-6.093l.603.317-1.206-.92h.603l-.603-1.206-1.524 3.047-.635-.603-.317-.19-.793 2.887-.096.635h-.063l-.254.92-1.206-.92-.317.603-1.524 3.364-.19-.508-.095.19-.318-1.205-.603 3.65-.317-1.841v-.286l-.889-3.047v.92l-.635-3.966-.603-1.238-.603.317.92-.603 1.207 5.173.92 2.73.603-1.81.413 1.016.825-1.618v-1.841h.889l-.603-.603-1.524-7.617-.603-2-1.11-3.173h-1.62zm237.65 2.761 1.524.603-1.524.92zm305.92.92-.317.89.317 2.76zm-534.71 1.524.89.603v1.523zm269.64 1.206-1.237 1.84 1.523.604-1.809 2.73-.635-4.571zm49.955 0 1.524 2.126-2.444 2.127zm-311.98.92 1.81.286-.604 1.84.318 1.207-.92-3.047v2.444zm527.38 4.856v2.761l.318-1.84zm-544.46 2.761v.603l-.603-.317zm330.26 0 2.762 11.584-1.238 2.127 3.967 3.332 2.444 8.537-3.047-1.206-1.523-5.808-4.253-5.458.285-9.775-.92 1.237 1.523-4.57zm45.1 11.267-.604 2.127 1.524 1.523-.603-2.444zm-33.516 8.823 2.762 2.444-2.762-.603zm-10.346 4.285 1.81.285-3.047 1.841zm-2.76.603-2.127 3.967-1.81.286.286-2.127zm22.247 4.253 2.127 2.158 1.523 6.982-1.523 4.57 1.84 9.14-2.729-1.205-2.158-8.823 1.84-2.762-1.205-7.902-.318-1.238h.318zm-19.2 6.41h.317v1.841l-1.524.603zm59.411 2.444-.603 1.524.92.92zm24.09 2.73-2.445 2.126-.317 4.285-2.412 2.126-1.238-.92v3.047h-.92l-1.81 3.65.287-1.81-2.127 2.444.603 1.206-1.206.603.317-1.809-2.158 1.524v2.126l-1.206-1.238-7.3 2.158-3.046 6.094.603 11.267-4.888 5.776-1.809 4.57.603 11.902 3.333 1.81 8.537-2.127 14.948-30.15.889-4.57 1.84-1.524V347.5l1.207-.318.634 2.444 1.524-2.444-.635-11.267-2.412-3.364.603-1.523zm-19.805.317-.92.603 1.206.92zm-68.87 21.01-4.253 1.238-5.173 5.173 3.936-5.173zm-284.88 7.332 1.841 3.046-.317.889-.92-.286v-2.126l-.604.603zm397.92 8.22-1.238 2.443 1.524-1.237zm-395.16 2.443.286.889 1.238 1.84-1.841-2.126-.603.603 2.444 3.365-1.238-1.524-.286.889v-1.206l-1.523-2.127zm387.54 1.524-1.523.603 1.523 1.523zm-390.31 10.346h1.238l.286 1.206zm-5.173 17.36 3.364.92h-3.364L44 407.702l.285.413 1.524 3.047 1.809 3.047.603 1.523 1.237 3.047 3.333 5.49-3.333-5.173-1.237-3.047-.89-2.158-1.522-2.73-1.238-2.126-.572-1.333-.349-.507-2.73-6.697v-.92zm274.81.603-.92 1.84-1.65-.539h-.064l1.11.857-1.523-.635.413-.222-.095-.064.158.064zm-270.85 13.425.603 1.523-.92-1.238zm14.314 6.379 1.523 2.761h-.603l1.206 3.047-1.206-2.126zm-3.047.92v1.524l.603.92-.92-.317h-.286zm30.12 49.986h.03l.096.19zm.951 1.016.984.889-.984-.794v-.095zm332.1 8.125-3.046 3.332 1.523-.92.92.92-.317-1.206 1.523.286 1.238-1.206-2.761.603 1.238-.92-1.524.634zm-308.93 7.902 2.127 1.524.317-.286-1.238-.92.92.92zm2.127 1.524.603.92.92.92-.603-.92v-.317zm-3.047-1.206 1.84 1.206.604.92.603-.317-1.841-1.81h-.603zm2.285 4.538.667.413-.223-.096-.444-.317zm33.07 3.079 5.776 2.444-3.364-2.159zm-24.374 3.047 1.523 1.206.89.317zm38.085 19.804.889.603.317-.318zm-.635.285 1.238 1.238.286.286 1.428.888.095.032 2.285 1.429 1.682.698 1.841 1.238 2.127.92 3.046 1.206-1.015-.222-2.349-.984 2.031.92-.19-.032.635.223 1.491.698h.318v-.286l3.047 1.524 3.65 1.586.92.223h-.318l.92.38 1.524.223.603.634 2.444.889 2.444.635 2.73.888 2.126.92h.317l4.57 1.524h.254l-.413-.127-.127-.127.667.254h.54l1.205.603h.603l.635.318.889.317h.635l.603.286h.603l.603.317.92.286h.603l.603.317h.635l.888.317.635.286h.603l.603.317h.603l.92.286h.604l.603.317h.634l.889.318.635.285h.603l.603.318h.603l.92.285h.603l.603.318h.635l.889.317h1.237l.603.286h.92l.604.317h.603l.603.286h.92l.603.317h1.238l.92.317h.603l.603.286h1.524l.603.317h1.238l.888.286h.635l.603.318h1.523l.603.317h1.524l.603.286h2.126l.635.317h1.206l.92.286h2.126l.604.317H249.305l.634.317h2.729l.603.286h2.761l.89.317H260.887l.92.286h5.491l.603.317H285.866l.92-.317H292.88l.603-.286h3.681l.889-.317h3.047l.634-.286H303.861l.603-.317h2.729l.635-.317h2.126l.603-.286h1.524l.603-.317h1.238l.888-.286h1.841l.603-.317H318.777l.603-.318h.635l.889-.286h1.238l.92-.317h1.206l.603-.286H325.791l.603-.317h1.238l.603-.317h.603l.603-.286h.921l.603-.317h1.237l.889-.286h.635l.603-.317h.603l.603-.318H336.455l.603-.285h.603l.635-.318h.603l.92-.285h.603l.603-.318h.603l.603-.317h.92l1.239-.603h.603l.603-.286H346.516l.603-.317h.603l1.238-.603h.603l.92-.317h.603l1.206-.603h.603l.635-.318h.889l1.237-.603h.603l1.206-.603h.92l1.239-.603h.603l1.206-.603.92-.317h.603l1.238-.603h.603l1.206-.603.92-.318h.603l1.238-.603h.603v-.317h.603l1.206-.603h.635l1.206-.603h.317l1.81-.92h.602l1.841-.92h.603l1.238-.604.285-.317h.603l2.444-1.206 3.364-1.206h-.317l2.222-1.016-1.619.698 5.808-2.73-2.761 1.207.92-.603-2.444 1.206 2.444-1.81-4.856 2.127-2.443.92-.318-.317-3.047.603 2.762-1.523-5.491 1.238 1.809-1.524-2.412.889-2.761 1.84-3.333.921-1.84.603h-.603l-.127.127-1.111.19-4.253 1.524-3.364.603.92-.603-3.65.889 1.524-1.206-.92-.603 2.443-1.524-10.664-.603h-1.206l-2.158-.92 1.84-.92-3.363-1.207-6.38 1.206-1.523 1.524-1.523-.92-2.127.92h.889l-2.412.92-1.523-.92-1.524.92-10.06 1.524-2.762.92-3.332 1.523h-.318l-.285-.92-1.524.286-3.047-1.81-1.84.286-.92 1.238h-2.127l-.92-.92-3.65 1.206-3.365.634-5.458.603-5.491-.603-.92-.317-3.365-.317-3.65.317-.92-.92-3.65 1.237h-9.14l-.92.603-9.744-.603-2.444-1.84h-1.809l1.81 1.206-1.207.634-.603.286-7.33.603-2.127-.286-2.444 1.524.635.92h-2.762l-1.206.889h-2.126l1.523 1.238.286.285-.92 2.158 1.523.889.635 1.238h-1.238l1.524.92-2.92-.254-.127-.064h-.603l-.92-.317.602.317-1.523-.317.635.635-15.583-2.635h-.064l-.222-.127h-.444l-.222-.032h-.032l-.508-.253h-.92l-2.127-.635-6.696-2.127h-.318l-2.126-.92-11.267-3.65-1.238-.285-2.126-.92-.603-.318h-.127l-.889-.381-.19-.222h-.286l-.571-.254-.064-.063h-.095l-2.031-.889h-.635l-11.267-5.205-5.395-2.697 1.745.57-.603-.602-1.84-.603.57.571-.57-.285-.604-.89-1.84-.634zm40.306 17.678h-.127l.952.318zm-15.012-4.855-1.206-.635h-.317zm-3.65-1.46h-.095l.413.158zm.318.158.889.381.158.032-1.047-.412zm-.413-.158-1.745-.699 1.523.635.222.063zm-18.598-8.95-2.03-.889.602.317zm-1.428-.254 1.84.888v-.285zm35.038 14.314 2.158.603.603.222z"/><path fill="#b9b9b9" d="m248.66 107.73-7.018 2.147-5.449-1.218-4.294 1.827-5.16-1.218-10.992 1.827-4.55 2.436-3.333.609-4.583 2.435h-3.044l-.32-1.506-6.378.93-2.147-2.789-1.827.61-4.871 7.017-10.672 5.801-3.333 4.583-.93 5.448-.32.32-2.436 3.045-6.089 4.262-5.448 1.25-3.974 5.48-3.653 2.115-3.045 6.378-4.23 3.429-6.441 9.39-1.507 4.262.866-1.506 1.858 4.23-2.115 3.974.577 7.339-3.653 9.422-4.263 4.294 3.365 3.91-.32 2.467 3.685-.608-3.044 1.217-1.25-.897-.93 3.942h2.18l-2.18.897 3.045.32-1.506 1.218 1.827.32-.61 1.187 4.263-1.186-2.435.93 1.826.865-2.115 1.25.93 1.506 1.185-.577-.577 1.185 1.507-.929.609 4.295 1.826.897 1.827.93-.93 1.505 1.539.61.288 3.973 1.539-.288-2.115.609 3.332 3.333-.288 1.826 5.16 2.724 10.063 9.454 5.191 2.148 6.09-3.045 9.453-1.218 8.813 2.436 9.134-4.262 6.41-2.468 11.28-2.404-1.858 1.218 4.582.32 3.045 2.725 1.538-.93-1.538 1.25 2.147.288-1.538.289.64.93 1.507-.93-1.506 1.827 3.044 4.294 3.333-.32v-1.218l.61 1.217-.29-1.538.898 1.538.609-1.826 1.218 1.218 4.294-.32-.32-1.795 1.506 2.115 1.538-1.218 1.506 3.653 2.468-.609.577 1.218h-1.186l1.795 3.654-3.045 9.133 1.859.32-.32 3.045-1.539-.32 3.045 1.538-2.115.609-.93-1.218-.93 4.871h-2.114l4.583 8.236 10.063 9.743 2.115 6.089 2.435 1.218-2.115.608 5.48 10.96-1.826 3.045 2.115 4.294 2.115 4.84-.866 5.832-5.223 5.448-3.333 11.313.609 9.743 12.498 20.382 2.147 16.44 9.742 15.575 4.23 6.986.321 3.333-1.827 1.25 2.148 5.768 1.538-.897 4.55 3.044 10.352-3.333 8.845.898 8.845-2.436 13.107-9.133 4.262-5.48 1.827-2.148 4.839-3.974 3.974-10.319-.609.866-1.218-1.506 13.428-7.916 1.186-8.525-2.724-7.307.288-3.973.93.929 6.698-4.583 2.756-4.55 13.716-6.41.609-1.218 4.23-6.089-.865-8.845.865-.93-.609-6.697 1.538-3.045-2.724-2.115-1.25-.93v-.288l-1.185-7.947.897-2.116h-1.218l1.827-3.973-3.365-4.551 2.147-6.41 3.654-7.627.929-1.827 3.653-2.115-.929-1.506h2.468l9.742-12.851 10.32-8.204 7.626-9.742 10.063-23.46v-2.756l-.288-1.538 2.115-.577h-1.506l.288-6.377-2.147-.93-4.84 3.045-8.267.93-3.622 2.114-2.756-.929-4.871 2.436-6.377-5.8-2.757.32 3.654-2.116-.609-2.147-10.063-10.063-4.262-1.506-.93-1.538-.897-.898-.288 1.827-6.41-13.716-5.512-3.685-2.404-10.32.898.578-2.404-4.551-5.512-3.974-1.506-4.262h1.185l-3.044-2.436-8.204-14.325-4.583-4.871-1.09-3.654c-.012-.018-.02-.044-.032-.064a1.356 1.356 0 0 1-.16-.352c-.209-.836-.705-1.716-.705-2.788v-.449c0-.459-.058-.937-.128-1.41l-1.538.224-.898-1.858-3.653-.321-7.339 3.045-8.493-2.404-7.339-.32-1.217-1.827-6.698-.898-.93-1.858-5.48-1.186-6.41 3.044v5.448h-.288l-4.294 2.18-4.55-2.468-8.525-2.115-2.148-3.974-7.306-2.115-4.23.288-8.269-3.653-.609-1.859 4.904-3.91-2.436-3.685 2.436-3.654-2.436 1.507-2.468-2.436zm-108.1 55.218.256-.385-.929.93zm50.475-50.09.064.096.16-.096c-.074.004-.15-.003-.224 0zm-35.893 27.497-2.147 1.538 1.538-.64zm-2.147 1.827-3.045 3.044 1.827-.609zm-8.204.897-3.045.93.289 1.538zm.897 1.538-.609 1.218 1.506-.288zm198.95 17.947 1.538 4.904-4.262.929-3.974 5.16 2.436-4.872 3.653-.897zm-205.04 32.913 3.045 2.468 2.147 4.55-5.192-6.697-6.986.288zm239.49 3.654.288 1.25 1.827.288-1.827-1.538zm-198.98.93 1.538 1.826-1.217.288zm80.471 7.947.865 3.044 1.86-.929v1.506l4.261.61-5.48 2.755-3.365-6.41zm109.35 7.595-.577 3.333-1.538-2.404zm-153.54 4.583 2.724 2.115-.897 4.262v.641l-.289-.64-.93-1.827 1.795-2.436zm-24.356 10.672 4.84 5.768.32.61.93-5.801-1.25 13.396v-1.506l-.29-.289-3.364-1.538 3.044.93.32-.642.61-2.403-.61-.93-.929-.32h-2.115l2.724-.898-3.044-1.538-.609-2.724h-3.365l3.077-.32zm34.098 2.115 1.827 3.974-1.827 11.249 1.538-11.57-1.538-3.652zm-53.615 2.436-1.218 3.333.61.929 1.185-.93-.577 2.436-1.827-2.115zm193.47 16.44 2.115 10.992-3.653-6.09 1.538-4.903zm-128.25 4.294-2.468 1.795v.32l1.218.61zm44.161 6.377-2.147 13.716 3.365-7.018 3.974-2.115 3.333-1.827.897-.64 9.999-.802.384-.064.064.032.545-.032 10.063 6.954-10.608-6.922-.448.032-10.896 2.34-3.333.929-4.295 3.044.32 3.942-10.671 10.351-.32 4.295-.29-3.974 7.628-8.525 2.436-13.716zm62.749.32-.93 3.334-3.332 3.044-.32-2.115zm9.454 3.334-1.827.64.61 1.507-3.045-.93zm-.609 5.48.609 1.538 2.147-.288 1.186 3.044 2.18-1.25.576.93-3.653 1.218-.289 4.55-3.653 2.436 3.044.93-2.147 1.538-2.147-.61.32 2.116-1.217.93.288-2.436-2.724-1.218-1.827 2.724-.929-3.974 1.827-9.422 3.044-1.506 1.539.897zm-16.152 3.044-2.435 2.436.608-2.115zm-94.764 3.365 1.538.61-1.538.929zm40.86 3.654-1.25 1.859 1.539.576-1.827 2.757-.641-4.583zm49.962 0 1.506 2.115-2.435 2.147zm1.186 8.524 2.756 11.601-1.218 2.115 3.942 3.333 2.468 8.557-3.045-1.218-1.538-5.8-4.262-5.48.288-9.775-.897 1.25 1.506-4.583zm45.09 11.281-.576 2.115 1.506 1.539-.609-2.436zm-33.49 8.813 2.757 2.468-2.756-.609zm-10.35 4.295 1.795.288-3.045 1.827zm-2.756.609-2.147 3.974-1.795.288.288-2.147zm22.24 4.262 2.116 2.147 1.538 6.986-1.538 4.551 1.859 9.166-2.756-1.218-2.148-8.813 1.86-2.756-1.219-7.916-.32-1.25h.32zm-19.195 6.41h.32v1.826l-1.538.61zm59.416 2.435-.61 1.506.898.93zm24.068 2.724-2.436 2.115-.32 4.295-2.404 2.115-1.25-.898v3.045h-.929l-1.795 3.653.289-1.826-2.115 2.435.576 1.218-1.185.609.32-1.827-2.18 1.538v2.116l-1.185-1.218-7.307 2.147-3.044 6.089.609 11.281-4.903 5.768-1.795 4.583.609 11.89 3.333 1.795 8.524-2.115 14.934-30.157.898-4.55 1.858-1.54v-6.088l1.186-.32.641 2.435 1.506-2.436-.609-11.249-2.435-3.365.609-1.538zm-19.805.32-.898.61 1.186.897zm-68.87 21.024-4.23 1.217-5.192 5.192 3.942-5.192zm113.06 15.543-1.25 2.435 1.538-1.25zm-7.627 3.973-1.507.577 1.507 1.539zm-120.66 28.298-.93 1.827-1.634-.513h-.064l1.09.834-1.507-.61.417-.224-.096-.064.16.064 2.564-1.313z"/><path fill="none" stroke="#aaa" stroke-miterlimit="10" stroke-width="1.5234" d="M551.04 275.01c1.493-111.81-73.219-219.51-178.6-257.05C273.502-19.943 154.03 6.356 80.91 83.267c-75.217 74.634-98.988 194.42-59.201 292.44 38.902 102.12 143.8 174.18 253.12 173.48 112.42 2.415 221.25-72.393 258.93-178.45 11.367-30.545 17.349-63.119 17.271-95.723z"/><path fill="#b9b9b9" stroke="#fff" stroke-width=".59846" d="m392.29 214.56-11.782-9.071-7.003-.328-2.326-1.624-1.229 3.617-4.405-.643m67.155-52.842 1.219 1.828m-35.952 36.562 7.921 3.351.61 4.875 7.921-12.187 21.328-7.921.305-8.836-2.437-3.047-11.578-1.219-7.922-10.968m-.914-7.312-6.398-6.398m11.273-56.975 6.398-.914 4.266 3.046.304-.609 1.219 2.133m13.1 18.585-1.218-2.437-15.234-7.617m-52.709-4.57-4.875.609m-2.742-6.399-9.445-2.132-1.828.609m22.242 5.18-5.18-2.743-3.35.305-2.438-1.219m28.944-36.257 2.132-.609m-92.013-3.047h-.609m1.828-.914-1.218.914m-.61 0-1.828.305.914.914-1.523.914m12.187-1.828-7.922-1.219m-4.265 3.047-.61 2.437-6.398.305m-7.312-5.789 2.437-.914h7.617l4.875 2.133m-194.08 442.39 1.828 1.219m.914.609 8.836 6.398m-16.453-11.883-.305-.304 3.352 2.742 1.828 1.219m-55.147-68.857 4.265 7.007m4.57-1.828-1.523-2.437-.61-1.524-2.437-2.742-5.18-4.875v.914l-3.046-3.96-.914.304m-.305-.914.305.914 4.875 9.14M40.884 411.12l.304.914 2.743 4.57 7.617 11.578 2.742 3.96 2.132 3.352 2.133 3.047 5.18 6.398 10.664 12.796.61.914 7.616 7.617.61.914 3.046 3.047 3.657 3.352 2.742 2.437 4.57 4.265.61.61m222.72-67.943-.915-.61m-.305-1.218.305 1.218m.914.61 2.133.914 1.219-2.133 2.132-.61m56.366-86.223 1.829-.914m-53.32 53.014.61.609m-13.711 10.664-2.437.61m25.593 9.14-.305-3.961m17.976-62.764v-.305zm-44.788 61.24 1.523-3.656m3.047 20.718.914 1.523m-9.445-54.538-13.1 2.438m52.708-3.047-.61 4.57m-58.802 28.335v7.312m35.952 9.14-4.266 1.22-3.351 3.046m57.28-81.349 6.703-3.351m-50.881 52.709 8.226.914 5.484-4.57m-20.414-3.961.914 4.875 5.18 2.132m-25.288-18.28 1.523 2.437 7.312-3.352m23.765-9.75v1.524l11.273 3.352v3.046m-4.265 17.976.305-3.351 2.742-2.742-.914-4.875 1.523-2.438m-9.14 17.976 2.132 9.14-.609 5.18-.914 1.524-3.047-.305-1.828 3.656 2.742 2.133h1.828l.305-2.133 3.656.305m-17.976 13.1 1.219-.304 1.523-2.437-2.742-3.047m-8.226-17.062 3.351-4.875 10.36-5.789m-21.633-21.023 3.656.305 4.57 8.836 6.704 4.57m-34.733 15.234v3.351l2.742 3.047v6.094m12.796-39.304-10.36 1.523-.609 16.453h-4.265m16.148-19.5-6.703-6.703.61-14.625h9.14l.304-10.054m3.961 66.725-3.656.914-7.008-2.133-4.57 5.79-5.789.913m4.266-38.999-6.398-.609m23.765-.61 7.921.915 3.961-4.57 4.265-1.829.915-2.742 6.702-1.523-.609-3.047 13.711-4.57m6.703-18.89 1.828 7.617m15.539-.914-2.133-.61-2.437 2.133-7.008-1.523-5.484.914-1.219 3.047.61 5.18 5.18 7.007-.915 5.484-3.047 2.437.305 2.438-3.96-5.484 1.827-6.094h-3.96l-3.961-4.57 1.828-4.57 2.437-1.219-.914-7.008 1.828-1.523-1.218-2.742m-21.937 0 .61 3.351-1.829 3.961 2.742 3.961 3.656-.914-.305 6.094-3.656-.305-7.921-8.531-2.133 2.133-3.352-.61-3.046-1.218v-2.133l-4.875.914-1.219-2.438-8.226 1.829.304-4.266-.914-1.828m-10.968 74.646-.304 8.53-3.656 2.134-3.961-.305-3.352-.61-1.523-3.046-2.437 2.437m15.539-28.64-.305 8.836m.61-27.116-4.876-.305-2.132-2.132-20.414.304-2.743-2.133-7.312 1.22m130.71-99.022 3.352-2.742 4.875 1.523 7.617-4.57h5.484l11.578-14.625H412.9l-15.234-6.703-1.828-2.742m-59.108 54.233-1.524 1.524m21.937-9.445-.304 6.093m2.742-10.054-2.438 4.266m-21.937 9.14-1.218 4.875m24.679-35.038 4.265-2.133 1.828 2.133m-23.46 33.515 1.524-1.523-1.828-4.875m.609 33.819 9.75 5.789m5.789-64.897 4.265 8.226.305 3.96-2.133 2.743m6.094-16.757h-7.008l-3.96 3.96-5.79 1.22-4.875-1.22-1.523 1.22m-6.703 38.084.61 8.836 5.179 8.836-8.531 1.523m1.828-24.374.914 5.18h1.523l5.18-7.008-1.828-.61.61-2.132-2.743-.61-1.219 2.438-3.046-.914.609 3.656m18.281 31.382-1.828-2.742 6.093 1.523.61 1.219m-.914-95.06-.305 6.703-3.96.61-.61 3.046 3.047.61 4.57 4.57 3.047 6.398 2.437.304.61 3.657 4.874.914 4.875 3.656 6.399.914 1.828-1.524m-76.17-29.858.609.61-.61 5.484h3.352l-.304 1.828 5.179 2.133-.305 1.828 5.79 3.96.304 2.743 3.656 1.828 2.742 5.18 3.047 1.523 5.484-1.828 6.094 5.484-.61 5.18 2.438 1.523-6.094 6.093-1.828 10.664 5.484-1.828h15.234l15.843 9.445v2.438l7.008 5.484m-79.216 25.288-1.524-2.742.305-10.054-8.53-.914m41.74 6.703-2.742 3.656.914 3.351m-125.53-77.388-.914.305m-1.828.61-2.437-2.438m58.194 59.412-3.657.914m-45.397-59.412.305-7.007m48.444 59.717-3.047 1.828.305 3.351-1.523.305m-49.967-75.256.914 4.57.609 13.101m37.17 18.585 7.009.914.304 5.484-8.836.305m-27.116-42.96-2.132 4.265-1.524.305-.61 5.484m-10.358-10.054-.61 2.438 1.524.304v13.406m69.467-4.57-5.18 7.008 3.047 10.359 4.875 4.875.305 5.484-7.617-2.133h-6.094m23.46-1.219-2.437 14.32-7.312 7.617-1.22 8.531-6.093 4.57-1.218-3.046-4.57 3.047-3.047-2.438-3.657 3.047m-3.351-34.429 9.14-.305-.304 4.875 5.18-.61.913 2.438-2.742 4.875 3.047 2.133v3.656l-1.828 5.18-1.828-1.828-1.219 1.523-2.437-.305-1.524-2.437-.914 2.437h-4.265l1.828 6.094-2.133-.61-1.828 2.133m10.359-66.42-8.226 16.148-1.829.61-2.742-3.352-3.656 1.828-4.57 4.57-1.523 5.485m54.538 56.06-2.133-.304-.914 4.57-8.227.61-3.351-4.266-1.828-6.094-16.148-.304m-60.326-79.826v-.305m0 1.828v-1.523m1.523 3.047-1.523-1.524m16.453-5.18 2.742-8.53 6.703-1.828M209.07 218.56l.305-2.743 2.132-.609m-2.437 3.352-4.266.914-1.523 2.132-4.875-.304m3.96.61-.608 2.741 2.437 1.828m57.28-17.367-.914-3.656 9.445-10.968 2.437-15.843-3.351-5.18-.914-6.398m-56.67 48.14 3.351 3.35.914 5.18-1.523 2.742m-14.32-1.218-.305 1.218m24.68-18.28 3.96 1.218 2.133 3.047 3.96-1.828 8.532 2.742 4.875-2.742 8.226 1.523 5.484-3.047 2.437 6.094 2.133.914-.304 3.352-3.961 2.132-2.438 4.875m-76.17 24.588.914-1.432m.61-2.133-.61 2.133m2.133-17.367.305 2.742-3.656 7.617 1.828 4.875M153.01 233.49l-5.79 7.617m38.695-14.625.305 5.789m-29.554 6.398-1.524-5.484-4.265 1.523m13.1-.61-2.437-.304.914 2.133-1.218 2.133-1.829-.61-2.132 2.133-.61-.914m-16.148-7.617 3.656-3.96 5.18-.61 2.437 4.57-.914 3.656m9.445 3.352.61 2.437-1.524 2.438 4.875 3.351-.61 7.008m-.609-26.812-.914 2.437 1.22.305.608 4.875m21.937-5.18-2.132-2.133-6.399 1.219-1.523-1.523m216.63 28.64-3.96 5.484v17.67l2.437 3.657m-64.287-31.991-9.14-1.523-1.22 1.523-4.265-.305-4.57 2.438-2.438-.914-2.742 3.046-8.226-1.218-2.742-1.828m5.484-24.68-3.656 3.961-1.828.305m-15.234 7.312 4.265-2.132m3.961 23.46-.305-2.743-8.53.61-2.133 6.093m2.742-25.288-1.219-1.523-4.875 1.523-1.523-4.57-5.79-5.18 1.22-1.827h7.007m20.414 24.679-2.742-1.524-4.266 3.656.61 4.266m6.398-26.812-4.875.61.61 1.218-2.438 3.047-4.265.304m-81.96-14.625-.609-.304m-57.28-5.18v-1.828m17.671 1.828.305-1.218m-17.976 1.218-1.219.61m15.843-69.772h16.757m1.828 77.693-3.046.914m-12.187-10.664 1.828 2.437m10.359 8.226.304-2.132-1.828.304m-21.632-19.195.305 4.875m37.171-50.88 17.671 14.014m-4.266 49.053-12.796.305m-35.647-6.398v1.828l1.524-.914 1.219 1.523 1.523-1.523 3.96-.305m25.594-4.57 4.875-4.875 1.828.61.304-1.829 5.79-2.437 3.046.304m-30.468 20.414-1.828 2.438-1.828-1.524-2.437 1.22m-28.64-3.657 1.523-2.437 3.96-1.22-.609-1.827m46.616 5.18v4.874m-9.75-25.593.915-3.96-.914-.915 1.523-37.78h7.312l-13.406-9.75m4.57 52.406-16.147-.914-.305 1.218h-5.484l-.914 1.524-2.133-2.742-2.742 4.265m-18.585 5.484 6.093-1.218 4.57 1.828-2.132.914-3.047-1.524-6.398 2.438m31.382 4.875 1.523 3.046-1.219 1.829 1.524-.305 1.219 3.656-.305 1.219m-15.54-17.367 2.743 3.351-.305 2.742-15.539-1.218-5.789 1.523m19.804-11.273-7.921-8.836-7.617.61-1.219 2.133m44.178 28.335-2.133-2.133 1.828-4.57-.609-1.829 4.57-2.437 2.133-5.484 2.133 1.219m-50.272-34.43 1.219-2.437h14.625l1.218-7.007 4.57-2.438 2.438-10.968h12.796l2.742-11.578 12.187-5.484m231.86 23.156.305-.305m-17.976-22.85 1.218.609m25.593 17.976 2.133-.61m4.266-1.218 1.218 1.828m-35.952 36.562 7.922 3.351.61 4.875 7.92-12.187 21.329-7.922.305-8.835-2.438-3.047-11.578-1.219-7.921-10.968m11.882 28.64v1.828l6.093 9.14m-36.866-55.146-3.351 1.523-3.352-1.828m24.68 8.531-6.399-6.398m-10.359-5.484-.914 3.656m35.647 12.187 2.437-2.133 1.828 4.265m-40.522 66.725-4.874.305-.305-2.437 2.437-4.875 2.742-.914m-11.273-76.78.305 1.829 1.523.61m12.492 52.708-4.874-.304v3.656l-1.524 1.218M402.847 143l-11.882-3.96-2.437 1.218-3.047-1.218m48.139 29.249-.305-5.485 1.524-.609-1.524-3.351 1.524-.61m-33.21-21.328.609.61m-6.398 88.966-2.133-3.047 2.437-3.961m-38.39-53.014-6.093 5.789-3.656-.914m3.046-34.43-.304 1.829m-38.39 32.601h27.42l.61-.914.305.914h7.312m1.524-34.429.914 2.133M308.7 182.607l.609 17.367-4.875.61-4.875 12.795 3.047.914 2.133 7.922-5.484 1.219-2.438 3.046m12.492-89.576 1.219 3.047 2.437 40.218h-4.57l.305 2.438-18.281-9.14m60.326-33.82 4.57.61 2.133-2.743 2.742-.609M198.41 221.91v-.61m67.334-8.226-2.438-1.218m-43.264-27.726 7.008-1.22 7.617-6.397m-19.195 24.984-15.843 1.523m35.038-26.507 20.414-11.882m-54.538 38.39.914 5.18 3.352 2.437-1.524 1.523 2.742 1.829 2.438-.305.914 3.96m61.545 8.836-2.742-2.437v-7.008l-2.438-3.96m-50.272-11.578 3.352-4.875 1.218-12.492-4.265.914v-3.961l-5.789-1.828-7.312-7.008m87.748 1.219-17.671-8.836-7.922 3.961-3.047-2.437-6.703-1.524-1.523-3.351-5.789-1.524-3.351-6.703 2.132-1.523.914-5.484-1.828-9.14m-53.014-23.46v-.305m-7.312 23.765 9.14-3.961v-3.047l3.961-1.523h6.398V117.71l-1.523-1.219m196.21 20.414h-3.047m-28.335-7.922 15.234 6.399.305 1.523m-7.922-37.78-2.133.914 3.047 3.961-.304 1.523 6.398 7.313 3.656.914-.914 7.007 3.656 3.961 5.484 2.437 2.133 2.438.61 3.351h1.218l.61 1.828 2.437 2.133m-54.842-4.875.61-1.523m1.218-6.094 1.828-.609m14.93 3.96 2.741 1.22m-17.367-3.352-1.523 3.047m.304.61-.304 1.827 2.133-.304.304 1.523-.61 4.57m-4.57-5.484 3.048 5.484m-39.304-6.703-1.22 6.094.306.61m50.88 0h.305l1.524-2.134-4.875-3.96 8.226-3.047-3.047-4.57-6.398 4.265-4.875-1.828m-104.81 10.36-1.219-7.618-2.742-1.828-2.742-5.484 3.352-3.047.609-7.008 1.828-1.828m.305 27.726-.305-.304 3.96-2.743.61-3.96 5.484-3.047v-2.742m292.8 119.13h.305l-.305-1.219.61.914.61 4.266.304-.61-.305-2.437m-4.57-15.54v-2.132m3.047 16.757h.304m-263.85 16.148-1.523 3.047m263.55-44.788v.914m-15.234-46.006.305 1.219m-1.219-2.438 1.219 2.438m15.843 50.577.304 1.218-.304-.914.304 1.524m-4.265-20.718.305.609-.305-.61m-5.18-14.014-.609-3.047.61 1.828-.305-1.523m8.226 27.42.305 1.524m-15.234-45.092.609.914 1.219 5.18.61.914m7.007 15.843.609 1.828m5.18 21.328v.304l.914 3.961-.305-.914.305 2.437m-13.711-44.788.914 2.743h.609l2.742 8.835.305.305m-2.438-9.75.61 1.828 1.218 2.438 3.047 9.445m5.18 23.156-2.133-8.836-.61-3.656h.305m-12.796-36.562 1.524 3.351v-.304l.609 2.132.914 1.829.61.914-.61-1.524.61 1.219.304 1.219.914 1.828L536 182l-.305-.305m2.133 7.008-.305-1.219.305.305 1.523 4.265 2.437 7.922 1.828 7.007.305.914-.305-1.828-.304-.609m-11.882-32.296.914 1.828h.305l-2.438-5.789.305.305-.61-1.524.914 1.524-.609-1.828.61 1.523-1.22-3.96.915 2.132.304.305 1.524 3.656v.61m12.492 54.537v-1.828m-14.625-53.624v.305m-36.257-34.429 10.054 8.836-.305-1.219 3.352 1.219m4.57.609.914-.61-.914-3.046-.305-3.047m-3.351 11.882 2.133.61-3.047-6.703v-.61l3.656 5.484 3.351-.609-2.742-4.265-2.742-1.524.61 4.266m6.702-3.961-.609-1.219.914 1.219 1.828 3.047.305-.305 1.828 3.351 1.828 4.266.914 3.047 2.133 5.18.61-.915 1.827 4.266.914.914.914 3.656.915.305m-18.89-31.382 1.218 1.218-.304-1.828.609.914.61 1.524v-.61l.913 1.219.305 1.523 1.523.914.914 2.438 1.22 2.133-1.22-.61.61 2.742 4.57 11.882-1.219-.914 3.047 7.922v1.219m-33.515-34.43-.305 1.22 1.524 3.655 7.617 5.485h2.133l3.351 3.351 3.047.914m36.866 73.123-.914-6.703-2.438-9.75-2.132-5.484-1.219-6.093v.61l-3.96-10.36.304-.305-1.828-5.484.61.305-.61-3.047.304.305m-12.796-5.79-2.742-7.007-1.523-1.828-.914-2.742-1.524-1.828v-2.437l-2.132-2.438-1.219-3.351 2.437 2.437v-.914l2.133 4.266 3.656 1.523.914 5.18 1.829 3.351-.915-3.352h.305l4.875 10.664-.61-.609.305 1.219m-49.967-13.711-1.523-.305-.61 3.047m3.047-27.116-.304 8.53-2.133 1.22-1.828-1.524-.61 3.656.61 1.829 2.133.914.609 2.437 2.133 1.219 3.047 5.484-4.57.61m-17.672-24.375.305.61-5.18 1.828-10.358-1.828m9.445 19.804-.61-4.57 3.352-1.524-.305-2.133-2.133-.61-1.523-4.265-3.047-1.218-5.18-5.485v-.609m35.648-48.749h.609l4.57 3.96-2.437-3.046m10.054 46.92 1.523-.61 1.828 1.524m-35.647-47.53.61.61M440.94 64.085l1.828 1.22 1.523.304-.305-.914 2.742 2.133m40.522 66.42 3.352 2.742v.914m-40.522-72.818 2.437.61-.609-.61m-4.875 2.437-.61-2.437m4.266 16.148 1.219-1.219 1.828.61-1.523-1.524-4.266-5.18 3.352 1.22.304-.915-4.265-4.265.61-.305-1.829-1.828.914-.305 2.133 1.828 4.57 2.133 3.96 3.047 5.79 5.789 3.047.914 3.656 2.133 5.484 5.484 2.133.305m-18.281 2.742v-.61l-1.828-2.133-.61-1.828-5.18-5.18-1.218-.608m-7.922 16.757h-.304m-3.961-3.352-.914-.61m5.18 3.657h-.915m3.352-1.828-.305.914m-9.14-2.438 1.828-.304m-7.008-4.266.914 1.524h.914l3.352 3.046M412.3 81.453l5.789 3.961m28.944 11.882 1.218.914zm-1.524-11.273 3.961 1.828m25.288 39.608v3.047m-56.67-45.092 6.398-.914 4.266 3.047.305-.61 1.218 2.133m-3.351 8.531-3.656-3.96-1.524-.305m19.195 7.007v-1.218l2.133.304-.305-2.132m0-.305-.914-2.133 1.22.61.608-1.524 1.524 1.219m-4.266 5.18 2.438 1.218 2.437 3.047.914 3.656m1.219-8.531 1.523-.61 2.742 1.524 2.133-.914m-15.843-5.789.305.914 1.828.61-.914-2.743 1.828-3.046m5.18 7.312-2.743 1.219.914 1.218 3.047.305m1.524-11.882h6.093l2.742 1.523m-16.757.305-.609-1.523.914-.61 4.57 1.524-1.523-2.133.61-.914m-.61 10.054 3.656 1.219 1.523-2.438-2.742-.61-2.437-2.132.61 1.523-3.657-1.523.61-2.133-.915-.304m1.829 17.976-1.22-2.438-15.233-7.617m45.702 17.062v3.352h-6.094l1.219 2.437 1.219.305.914 3.047 4.875 3.656m-53.014-34.124-3.657-.61-1.828-2.742-.304-.304m17.062 24.679-2.438-3.961h-2.133l-1.523-1.219m47.835 21.328 1.219 2.133v4.265m3.656-13.71 2.742 2.437-.305 1.523-1.523-.61 3.351 4.876.305-.305 3.047 2.133m-24.984-24.374-4.875 2.133v1.523l3.047 3.352-.305 2.742 1.219 1.828h-2.742l2.742 3.047-1.524.914 1.829 4.57-5.18 3.047.914 4.874m-15.234 0 .914-4.265-.914-1.523-2.742-.305-3.656-6.398.304-1.828-1.523-.61-.914-1.828.914-.61-1.523-5.179 4.57 1.524v-2.438l2.742-1.523-.914-3.352 1.523-1.828 7.008 2.438 1.218-1.524 1.22.914.609-5.18 2.742 2.134 3.351 4.875 1.524-3.047 3.96.61M450.691 80.54h-.304l.304-.305m28.03 41.436.914 1.524-2.132-3.961-2.133-1.219-2.438-3.351-4.57-1.219-2.437-3.047-4.266-1.828.914-1.218-3.351-3.961-2.438-.305-2.437-3.351-.305-3.961 3.352.61-.914-2.438h2.133l.914-3.047m-89.271 17.062.914.914m28.335-28.64 5.18-2.133 3.35 1.524m-.913 13.406-7.617-12.796m-25.288 12.796-4.875.609m-3.047-29.554.61 4.875 2.132.61m6.703 29.248 3.351.61 2.438 2.742m-15.54 18.89 3.352-2.133-1.218-7.313 3.046-2.742m6.399-17.976 5.484 2.438 1.219-2.133m-10.054 1.828 4.874.914-1.523-3.047M366.6 87.242l-9.445-2.133-1.828.61m51.795 7.312h-1.523l-5.79-3.656-3.656 2.133M369.037 69.57l.915 1.218 4.57 1.219 2.437 2.133-1.219.304 2.743 1.22m-.915 15.233-5.179-2.742-3.352.305-2.437-1.219m4.266 21.328 1.218-.914 4.57.305 1.22 1.218 1.218-.609m3.351-6.703-.914-2.437-3.656-1.524.914-.914-4.57-3.96m-3.96-28.945h.304-.61m5.79 35.038 5.788 3.047 4.266-3.351 1.828 1.218-.305 2.133 3.352 1.524m-28.03-11.273 3.96-.305 3.657 2.437 1.218 2.743 4.266 1.828m40.218-9.445-4.875-1.828-.914.609 1.828.914-1.828-.61-1.523 2.133 1.523 2.438-3.047-.305m19.804 16.148-3.047-2.133-6.093-1.523-1.524-1.219-4.57.61-1.219 2.437-2.132.305m-38.085 0-7.313 2.132m-.609 13.406 3.656-2.132m-3.047-11.273-2.437.609-9.445-.61.61 2.133-2.438 1.22m96.583-54.843 2.742 1.524 4.57 3.656-.914-.914 1.524 1.218m-21.937-2.437.609.305-1.219-1.524 3.352 1.524 1.218-.61 5.18 3.047m10.968 0-.914-.914-2.742-2.133-3.656-3.656 1.218.914m.61 5.789-1.219-2.742 2.437.914 2.133 1.523.305.305m-51.795-3.96-.914-.61m-3.656-7.922h.914m.914 7.617 1.828.305m-2.742-7.922.914-.609m24.984 3.047 7.921 4.875m-14.625-5.18h1.22v-1.828m-19.5 7.312-2.743-1.218m7.008-9.445h3.351l3.047 1.828 1.219 1.218m-11.882-.609 2.132-.61m17.367 1.524.61-.914.914 1.219 3.96 1.828m-22.85-3.656 2.742-.914-.305-.914m7.312 3.046 2.133.305-.914-.914 2.133 1.523 1.523-.609 1.524 1.828m14.625 5.18 3.351 2.437m-33.515-1.219.61 1.524-3.352-.305m-2.742-3.351 1.219-.914-1.828-1.828 2.437-.305-2.742-.914v-.61l-1.524-.304-.609-.914 3.96-.61m-3.046 9.14-.61-.304m.915 0-.305.305m-11.882-1.219h-1.828m6.703 2.742-4.875-2.742m-12.796 3.352.305 1.218m10.664-4.57-1.22-.914-.913.914-3.047-.914m23.765 2.742v1.219l-4.57-2.133m-.914 0-.305.914-2.742-.61-.61 1.524-3.655-1.523.914 1.523m-13.711 1.828-3.961-1.218m5.789-4.266-3.352 3.352 1.828 2.132m-151.73 24.07-5.18-2.437m-24.678 4.875h6.398l1.523 1.523-3.046 1.828-2.133 4.875-1.828.305 1.218 2.133-3.656 7.007m159.96-42.96.61 1.219m0 .305v-.305m-.914-1.219h.304m-59.412 21.328 1.22.61-.915 1.218m8.226.914-6.093 1.524m22.85 10.359-.304.61m-3.351-5.485-.61.61m3.352 5.484v.914m6.093 7.007h.61m-10.054-12.796.304.914m6.703 10.36.914.304m-5.789-9.14h1.22m-.306 3.96.305.914m3.047 2.133.61.914m.913 1.828.61.914m2.132-35.647.914.305m21.937 3.351-.304.914m-22.242 31.382h1.523m-6.398-5.18v.61m32.6-38.085.915.61m-33.21 1.218h-1.219m10.36 42.046 1.218.61m-14.93-44.178-2.741.914m2.742-.914 3.351 1.523m33.515-1.828.305-1.523m-1.219 3.96-1.828.914.305 1.524m1.523-2.438h2.133l-.305-1.828m-31.99 21.632-3.657-.304-2.133 1.218m30.163-27.116 6.094.914m-27.42 9.75-4.266-4.875m25.288-6.093.304.304m-42.046 28.64-.61-2.437-1.827-1.219 2.133-3.047-2.438-2.132.914-1.524m-8.53 15.843.913.61 2.742-3.657-3.351-6.703h-.61m3.657 5.79 11.578-2.438 6.093.914.914-1.523 1.524 1.218-1.828 2.438M286.78 69.88l4.57-1.524 4.875 2.133m-2.438-1.523 2.133-1.828-.914-1.829 1.828-1.218M288 76.278l3.046-.305 2.438-4.265 3.351-1.829 5.79 1.22 5.483-1.524 5.18 3.96.914 4.57 5.484 1.22m-32.296-3.047h.61l4.57 3.351-.305 1.219 4.57.61.914 2.741 8.531.61 5.18-1.828 5.484 1.523M286.78 66.528h.305l4.57-.914 3.047 1.219m-18.89 8.226-3.047 1.219-.914 2.437-6.094-.305m17.671-1.218 2.133 2.132-1.523 1.22m.914 4.57 2.742 1.523m-5.18 2.133 1.524-3.657 2.132-.304-1.218-1.219h1.218l-1.828-1.219.914-1.828-12.187-.914 1.524 3.352 7.921 5.789zm-38.39-4.266h.305m4.265 8.531 1.524-.305m1.828-3.96v-.61m25.898-17.976-.305-.304m-24.374 3.351v-.61m32.296 25.594 1.524-.305m-35.343-10.664-.61-.914m-27.116 2.437-.914-.304zm5.18.305-5.18-.305M243.82 64.09l-.914 1.22m-19.5 23.155-4.875-.305m48.75-20.414 2.741.61 1.219-1.219 4.57.61 1.828 2.132m-11.273 8.227-.914-2.133 1.219-.914-4.265-.61-.61-1.218-5.789.609m-17.67-9.75h-.305m6.398 1.524h-2.742l-.914-1.524m42.35 1.524-6.094 2.742m10.968 20.414-1.523-.305-.914 2.742m2.437 7.312h.305m-43.874-21.632-.914-1.523-2.438.914 3.961-4.265 5.18-1.22 3.656.915m20.414 2.133 1.523-.305-.305-2.437 2.438-.914 4.57.914 4.266-1.219m-32.905 1.828 1.218.914 1.219-.914 2.437.61 3.352-1.22 2.437.915-.61-2.133 3.352-2.133-3.351-2.133-.914-1.523M244.734 84.2l.61-1.219-2.438-.61-.61-2.436 2.133-1.22-.914-1.218 3.656-.305 2.133-1.828 1.524 2.133 1.218-2.437 2.742.914 1.22-2.133-3.048-.61.305-1.523m-6.094 0 2.743-4.57-5.485-1.523V64.09m22.242 10.968 2.742.61 5.485-1.829 5.18 3.657 7.311-1.219m-6.398-12.187 2.438 1.828 1.523-.61 1.828 1.22M213.048 49.16l-3.351 1.829 4.265.914m88.662-16.757-.305.914m1.828 1.828.61.304m23.46 21.632v.305M305.67 47.334h-.61m-1.218-8.836.914-.304m14.015 14.015v.609M306.89 46.42l-1.219.914m-.61 0-1.827.304m15.539 4.57-2.133-1.218m-12.796-8.226.61-1.22m23.46 16.758.304 1.523m-7.922-2.132-2.437.304m-14.015-19.499.61 3.047m-10.969 9.75-.61-2.133-3.96-.305m28.944 9.14-.305 2.133m4.266-6.398-3.047-.914m-4.875 7.008 3.656.304m10.664 0 3.352.914m-28.335-13.406.914.914-1.523.915m19.195 4.265-3.657.914 2.133 3.047m-17.67.61 5.788.913m-5.789-.914-5.484.914m19.499-8.226-1.828-3.352m-18.89-31.382 1.828.61.305 1.218 2.132-1.523m6.703 29.858-3.046-3.656m5.179-12.796-6.094 5.18m5.485 24.07 5.484.609m.914-12.187-7.922-1.219m-3.047-3.656-5.484-1.524-2.437.61m24.374 15.843 5.484-.914 2.133 1.523m3.656 2.742 1.828 1.828 5.18-.304 1.828 1.523m-37.78-14.625-.61 2.437-6.398.305m-7.312-5.789 2.437-.914h7.617l4.875 2.133m-5.18-29.554.305 1.219 2.742.914-.914 1.523 5.485 5.484-.915.914 4.266 1.829m-14.015-13.711-2.437.609-1.22 1.828-4.265-.305-2.132-.914-1.22.61 5.79 1.828 2.133 4.57m-7.922-6.398-.914.914m14.015 45.092 2.133-1.828-3.657-5.18 1.829-2.437-3.047-3.657h-8.227m-31.99-1.828 4.265.914M244.128 63.48l-.305.61m.61-2.438-2.438-2.132-4.875.304m33.82 1.524-.305-5.18-1.524-.61.914-1.218m-31.99 9.75-3.657-3.352m6.398 3.352-.304-.61-2.133.61m44.483-45.092v.304l-3.352-.304-.304.914h-2.133l-2.437 3.047-1.829.304-2.132 3.047.914.914-3.047.305-1.828 1.523-.305 3.352 1.523.914-1.523.914.305 2.133-1.524.609-.914 2.133h-2.132m.914 24.984-.61-1.219m23.46-11.882h-1.218m-40.218 13.101-.305-3.351.914-2.133 3.351-1.219-.914-.914 2.133-2.437-2.133-.61m14.93 9.445 9.444-1.828 3.656.914.61 1.828.914-1.218 2.437.304 1.524 1.219m14.32-47.835h.609m-.305 0h-.609m-260.8 360.74H32.38m9.445 22.85 3.351.61m-2.132-7.921 1.218.304 3.047 6.399m-21.632-34.733 2.742 2.437 2.133 5.18 1.828 5.18m2.132 9.444 4.57 5.18 2.743 7.921m-7.921-13.71.914.913m-.61-10.054 1.524 1.524 3.046 7.007 1.828.305 3.961 10.359.61 4.265m2.132-1.218-.304 4.57 1.828 7.312m-27.421-60.326h1.828l1.219 4.57 2.437 4.266 2.133 8.836m-.914 9.445-3.656-11.578 1.219-1.828m.61 15.843-1.22-4.57 1.523 1.827 1.524 3.047-1.22-3.96h.61l4.876 7.921 1.523 1.523m-24.68-60.022 1.83 7.313 3.35 14.32.915 3.351 1.219 3.961 1.218 4.266.305.914M8.007 321.545l.914 4.875.61.609v-2.133m.608-3.351 1.22 6.093.913 3.352.914 2.437.915.61 2.132 4.265 1.523 1.219 1.524 5.789 1.828 5.484h.304M9.53 324.896v-3.352m7.312 35.038 2.438 6.399.914 2.132 1.524 4.57 4.57 10.665.609.914 1.828 4.265.914 3.352 4.875 9.75v.304l4.57 9.14 1.828 3.047m-27.726-175.8.305-.61v-1.523m4.265 29.554 1.22-5.18-.305-7.007 1.218-3.96m-4.874 18.28h.609v-3.046l1.523-.305 1.219 2.437.61-1.218 1.218.914 2.742-8.836m-11.578-1.828.304 2.133-.608 5.484v4.57l.913 3.047 1.828-3.656 1.22.305-1.524-10.054.304-3.961.914-.914.305-2.133m-2.437-11.273.609-1.219M4.35 265.79l-.305 3.047.305.305v1.828m.61-10.36.304 1.829v5.789-4.57l-.304 2.132-.305-1.523v1.523H4.35m2.133-21.328-.914 7.922v5.484l-.609 2.742m6.702-11.578h-.608l-.306-3.351.61-3.656.914-1.828v-2.133l.305-1.524m-1.523 12.492v1.22l-.61 2.132-1.828 2.437-.305 2.133-.914-3.047-.305 8.227.61.304v1.219l-1.828 7.312v-1.828l-.305 1.219-.305-2.133m1.828-37.78-.609 4.875-.305 3.047-.304 2.437h.304l-.304 3.96.61-.304m5.178 4.57-.304 3.352v.61m-3.351 68.552-.305-2.742.305 2.742m-.61-2.437v.305l.61 2.132M4.96 294.733l-.305-.914.305 4.57m4.57 23.157v-.305l.305-.914.304 1.219m-6.094-35.952v-1.524l.305 2.438.305 5.484.305 2.133-.61-14.32-.305-5.18v-3.351l.305-.305m15.538-89.271-2.741 7.312M9.53 217.65l-1.22 6.703m78.608-146.25-1.219 1.523m2.437-3.351 4.875-4.266-.914.915.61-.61-5.79 5.789m-2.437 1.523.61-.304 3.046-3.047m216.63 145.94 3.047 4.265.599.99-.714 4.82 3.213.357 4.105-6.783h3.391l1.964 2.856 7.14-.357-.025-2.072 5.529.004.029 1.89c-2.357.942 2.32-.18 2.32-.18V226.4l2.499-1.25 3.57 2.499 1.606.714 4.82-6.247.178-3.57-1.071-.714 3.034-.357-.178-1.963 1.963.892.357 8.21 1.963.536.893 1.785v2.677l1.963-.892.21-2.24v-2.742l1.22-1.523 1.218.914.914-5.18 2.437-3.96 1.828-.305 2.133-20.109h1.828l4.266-4.266"/><path fill="none" stroke="#000" stroke-opacity=".46667" stroke-width=".30163" d="M140.27 37.16h96.583m0 0h177.63M40.033 137.4h167.27m0 0h307.42M3.163 274.5h193.17m0 0h355.26M40.033 411.6h167.27m0 0h307.42m-374.45 100.24h43.569l.61.305h52.404m0 0c59.284.089 118.49-.042 177.63-.305m-137.11 36.867c-19.746-1.032-31.392-20.098-40.218-35.952-12.473-25.01-18.968-49.222-25.288-76.17-13.709-66.29-17.507-136.14-14.625-205.66 3.071-54.687 9.667-109.49 25.898-160.26 8.209-23.256 18.121-50.457 39.304-65.811 4.713-2.683 9.454-4.577 14.93-4.57m0 548.42c-37.55.09-71.972-14.314-101.46-37.171-30.953-25.046-54.874-59.056-71.537-96.761-22.715-53.033-31.25-110.42-27.18-168.92 4.296-52.405 19.057-103.56 46.921-149.29 21.218-33.176 49.562-62.79 85.31-80.131C230.326 6.133 253.224.344 277.374.283m-.304 548.42c-53.387.04-105.56-16.673-149.9-47.225-44.959-31.494-79.57-76.133-99.326-128.27-16.137-42.926-21.37-89.824-15.538-135.89 5.778-42.161 21.521-83.955 45.782-119.9 32.292-47.133 79.5-84.34 134.28-102.82C219.625 5.032 248.112.377 277.373.278m.305 548.42c50.513-.01 99.222-15.41 141.68-43.57 42.524-29 76.206-69.94 97.05-118.23 19.44-45.6 26.661-95.427 21.165-145.31-5.652-47.641-23.58-95.1-52.709-134.36-27.387-37.606-64.427-67.498-108.16-86.528C345.2 7.345 312.002.345 277.378.287m0 548.42c36.223.025 68.864-15.398 95.974-39 41.452-37.147 67.273-90.893 79.826-144.42 14.662-61.055 14.072-128.24-1.828-188.9-13.942-53.692-41.238-107.46-84.7-142.59C340.686 13.044 310.54.355 277.377.284m0 548.42c14.423-1.229 22.007-17.714 27.421-29.858 13.93-32.54 19.012-65.822 24.374-99.935 9.253-70.687 10.944-144.32 7.008-216.63-3.495-49.724-8.886-99.495-21.815-145.58-6.466-19.356-12.288-41.914-29.371-54.293-2.388-1.096-4.726-2.248-7.617-2.133"/><path fill="#346733" stroke="#346733" stroke-width=".39419" d="M185.54 251.1c-.81-.235-1.503-.457-1.54-.495-.038-.037.03-.218.15-.402.255-.389.844-2.228.844-2.635 0-.153-.381-1.288-.847-2.523-.465-1.235-.846-2.297-.846-2.361s.802-1.789 1.781-3.833l1.782-3.716-.158-1.719a93.393 93.393 0 0 1-.41-8.638v-2.752l1.075-.077c.59-.043 3.141-.116 5.669-.162l4.594-.085-.067.505c-.062.47-.472 7.747-.691 12.262l-.097 1.99-2.148-2.556a9079.531 9079.531 0 0 1-2.384-2.837c-.23-.276-.234-.268-.154.435.045.394.109.812.142.929.05.18-.115.226-1.084.303-1.855.148-1.913.261-.171.331l1.623.065.232 1.042c.127.573.259 1.16.292 1.304.042.182.502.48 1.491.969.787.388 1.409.74 1.382.784-.027.043-.594.252-1.26.464l-1.212.386 1.17.07c.643.038 1.346.156 1.56.261l.391.193.038 1.3c.039 1.347-.2 2.408-.542 2.408-.087 0-.732-.18-1.435-.4-.702-.219-1.3-.375-1.33-.347-.028.029.667.375 1.544.769l1.595.716.042 1.031c.023.567.003 1.5-.045 2.073l-.088 1.041-4.618 2.15c-2.54 1.181-4.659 2.156-4.708 2.165-.05.01-.752-.174-1.562-.408z"/><path fill="#346733" stroke="#346733" stroke-width=".098547" d="M196.92 245.23c.021-.963.05-1.315.542-6.633.286-3.09.55-5.936.588-6.326.036-.39.062-.724.056-.742-.006-.018-.216 1.249-.466 2.815s-.458 2.845-.461 2.841c-.027-.026.274-6.978.379-8.762.218-3.727.393-6.571.41-6.682.01-.064.036-.106.064-.106.041 0 .048.154.048 1.058v1.058h.273l-.095.099-.094.098.705.708.706.707-.472 1.885c-.26 1.037-.46 1.895-.447 1.908s.305.077.645.144c.34.067.688.136.773.154l.155.033v13.147h.273l-.104.106-.103.107 1.04 1.04c.665.664 1.027 1.048 1 1.062-.021.012-.791.31-1.71.66l-1.671.638-.996.424-1.06.39.022-1.831z"/></svg>