<svg xmlns="http://www.w3.org/2000/svg" width="550" height="550"><defs><linearGradient id="a"><stop offset="0" style="stop-color:#000;stop-opacity:0"/><stop offset="0.492695" style="stop-color:#000;stop-opacity:.0235294"/><stop offset="0.570873" style="stop-color:#000;stop-opacity:.0352941"/><stop offset="0.636455" style="stop-color:#000;stop-opacity:.0666667"/><stop offset="0.69579" style="stop-color:#000;stop-opacity:.148936"/><stop offset="0.730304" style="stop-color:#000;stop-opacity:.212766"/><stop offset="1" style="stop-color:#000;stop-opacity:.546099"/></linearGradient><linearGradient id="b" x1="52.778099" x2="22.0144" y1="-13.2386" y2="51.987099" gradientUnits="userSpaceOnUse"><stop offset="0" style="stop-color:#ffe1b8;stop-opacity:1"/><stop offset="1" style="stop-color:#ff8b00;stop-opacity:1"/></linearGradient><linearGradient id="o" x1="-52.250999" x2="-52.250999" y1="457.03" y2="361.422" gradientTransform="matrix(1.68 0 0 -1.68 899.213 789.761)" gradientUnits="userSpaceOnUse"><stop offset="0" style="stop-color:#fff;stop-opacity:1"/><stop offset="1" style="stop-color:#94caff;stop-opacity:1"/></linearGradient><linearGradient id="j" x1="141.271" x2="141.271" y1="70.4282" y2="158.071" gradientTransform="matrix(1.68 0 0 1.68 -86.7 -86.7)" gradientUnits="userSpaceOnUse"><stop offset="0" style="stop-color:#fff;stop-opacity:1"/><stop offset="1" style="stop-color:#00a200;stop-opacity:1"/></linearGradient><linearGradient id="g" x1="127.662" x2="127.662" y1="63.214802" y2="183.368" gradientTransform="matrix(1.68 0 0 1.68 599.333 -89.72)" gradientUnits="userSpaceOnUse"><stop offset="0" style="stop-color:#006a00;stop-opacity:1"/><stop offset="0.2" style="stop-color:#009800;stop-opacity:1"/><stop offset="1" style="stop-color:#00d000;stop-opacity:1"/></linearGradient><linearGradient id="e" x1="-117.002" x2="12.9912" y1="397.34" y2="397.34" gradientTransform="matrix(1.68 0 0 -1.68 899.209 789.763)" gradientUnits="userSpaceOnUse"><stop offset="0" style="stop-color:#0053bd;stop-opacity:1"/><stop offset="0.9944" style="stop-color:#0032a4;stop-opacity:1"/></linearGradient><linearGradient id="h" x1="-52.250999" x2="-52.250999" y1="457.03" y2="361.422" gradientTransform="matrix(1.68 0 0 -1.68 899.213 789.761)" gradientUnits="userSpaceOnUse"><stop offset="0" style="stop-color:#fff;stop-opacity:1"/><stop offset="1" style="stop-color:#94caff;stop-opacity:1"/></linearGradient><linearGradient id="i" x1="141.271" x2="141.271" y1="70.4282" y2="158.071" gradientTransform="matrix(1.68 0 0 1.68 -86.7 -86.7)" gradientUnits="userSpaceOnUse"><stop offset="0" style="stop-color:#fff;stop-opacity:1"/><stop offset="0.4972" style="stop-color:#00a100;stop-opacity:1"/><stop offset="0.9944" style="stop-color:#000;stop-opacity:1"/></linearGradient><linearGradient id="k"><stop offset="0" style="stop-color:#b5b5b5;stop-opacity:1"/><stop offset="1" style="stop-color:#b5b5b5;stop-opacity:0"/></linearGradient><linearGradient id="d"><stop offset="0" style="stop-color:#676767;stop-opacity:1"/><stop offset="1" style="stop-color:#656565;stop-opacity:0"/></linearGradient><linearGradient id="n" x1="127.662" x2="127.662" y1="63.214802" y2="183.368" gradientTransform="matrix(1.68 0 0 1.68 599.333 -89.72)" gradientUnits="userSpaceOnUse"><stop offset="0" style="stop-color:#6a0000;stop-opacity:1"/><stop offset="0.573327" style="stop-color:#569b0f;stop-opacity:1"/><stop offset="1" style="stop-color:#4ce72c;stop-opacity:1"/></linearGradient><linearGradient id="l"><stop offset="0" style="stop-color:#000;stop-opacity:0"/><stop offset="0.567426" style="stop-color:#000;stop-opacity:.176471"/><stop offset="1" style="stop-color:#000;stop-opacity:.319149"/></linearGradient><linearGradient id="m"><stop offset="0" style="stop-color:#000;stop-opacity:0"/><stop offset="0.414995" style="stop-color:#000;stop-opacity:.00392157"/><stop offset="0.567632" style="stop-color:#000;stop-opacity:.027451"/><stop offset="0.772448" style="stop-color:#000;stop-opacity:.0784314"/><stop offset="0.888672" style="stop-color:#000;stop-opacity:.176471"/><stop offset="1" style="stop-color:#000;stop-opacity:.319149"/></linearGradient><linearGradient id="c"><stop offset="0" style="stop-color:#000;stop-opacity:0"/><stop offset="0.492695" style="stop-color:#000;stop-opacity:.0235294"/><stop offset="0.570873" style="stop-color:#000;stop-opacity:.0352941"/><stop offset="0.636455" style="stop-color:#000;stop-opacity:.0666667"/><stop offset="0.69579" style="stop-color:#000;stop-opacity:.148936"/><stop offset="0.730304" style="stop-color:#000;stop-opacity:.212766"/><stop offset="1" style="stop-color:#000;stop-opacity:.546099"/></linearGradient><radialGradient id="f" cx="-57.0215" cy="439.63199" r="97.988297" fx="-57.0215" fy="439.63199" gradientTransform="matrix(1.68 0 0 -1.68 899.213 789.761)" gradientUnits="userSpaceOnUse"><stop offset="0" style="stop-color:#fff;stop-opacity:1"/><stop offset="0.5955" style="stop-color:#57adff;stop-opacity:1"/><stop offset="0.9944" style="stop-color:#c9e6ff;stop-opacity:1"/></radialGradient></defs><path d="M551.048 777.404c.423-79.994-36.484-159.163-98.107-210.228-61.305-51.787-146.281-74.613-225.157-59.412-84.018 14.42-159.213 71.15-196.518 147.77-34.7 68.85-38.064 152.548-8.836 223.938 30.52 78.025 99.268 139.713 180.065 161.785 77.74 22.602 165.118 7.72 231.25-38.999C500.35 956.42 544.46 879.454 550.134 798.732c.72-6.532.907-13.183.914-19.804" style="fill:#fff;fill-opacity:1;fill-rule:nonzero;stroke:none" transform="translate(0 -502.362)"/><path d="m244.419 504.094-1.238.286h.635zm-1.238.286h-1.206l-.54.285zm5.49-.286-1.808.286h.603l-1.524.317.286-.317-.984.222-.222-.222-.794.317h-.127l-1.809.286 1.524-.286-3.682.603.635-.317 1.523-.286-2.443.286-1.333.159 1.015-.16 1.714-.285h-1.714l-.603.286H238.008l-.286.159-.317.031v-.19l-.572.317H235.564l-.444.254.952-.159-1.111.223.127-.064-.254.032-.127.031h-.952l-1.238.286h-.603l-1.523.317H231.31l1.84-.317.985-.19-.222.095v.032h-.032l-.444.063H233.152l-.095.064h-.032l-1.714.253-1.523.286.92-.286-1.047.19.444-.19h-.317l-1.841.286h.317l-.317.159.92-.159h.318l-1.397.254.159-.095-.889.159h.318l-1.429.253.477-.253-1.524.317-1.27.286h-.253l-.19.095-1.016.222-.064.032-1.142.253h-.635l-.222.096-2.507.54h.317l-.92.285h-.318l-.285.317h-.635l-1.81.286-1.237.317-1.523.318-.603.285 1.523-.285-.92.285 2.158-.603-.635.318-.889.285-4.887 1.841-2.444.286h1.238l-5.205 1.523-1.81.92h-.602l-2.158.603 1.428-.222h.032l.38-.063-.761.222-.127.032-2.476.666v.286l1.524-.603h.92l-2.126.603h1.206l-2.127.317.318.286h-.318l-2.126 1.238.317-.92-1.238.317-1.523.888h1.238l-3.967 1.524h.603l-1.429.285-1.618.952-.603-.317-2.127.603 2.412-.286-1.523.286-.603.635-2.888.603 2.285-.603-.92.285 1.523-.285-.603-.635-.317.635-.286-.318-2.507 1.08-.54.126 1.206.318-2.444.317v.603l-1.809.286.223.222 2.824-.825v.317l-4.284 1.206-2.127.603-1.079.825-.444.096h.603l-1.777.888-.953.35-1.84 1.205 3.046-1.206 1.841-.92-2.444 1.809v-.603l-.285.317-2.158.603h1.237l-1.523.318v.285l-1.523.318.603.285-1.206.318h.603l-.92.317.317.286-2.158.92 1.84-.603-2.73 1.206v.317l-1.523.92 1.206-.317-1.84.603 1.523-.285-1.523.603h.317l-.92.285h.92l-1.523.318h.92l-1.523 1.206 3.967-.889-2.761 1.206 1.84-.603-2.443.92 1.523-.317-1.206.92 1.206-.602-2.126 1.523 1.809-.92.317.603.317-1.206h1.81v-.635l1.84-.603h.286v-.603l1.523-.318-.285-.285h1.523l-.603-.318 1.81-.603.92-.92.317.317.285-.92 1.841-.317 1.206-.889v.603l.92-.92.318.317v-.317l1.523-.318v-.603l.603.318 1.524-.92-.603-.318h1.523l2.127-1.81.285.287 1.841-.603.603-.286 2.126-.318 3.365-1.523.317.317-1.08.445-.443.444 2.729-.603.603-.603.92.317 6.697-2.76 2.126-.286 1.841-1.238-.92.92h2.126l.92-.603v.286l5.174-.603 9.14-2.444h.635l-3.047-.603-3.364.603-.603.318-.317-.318h-.603l3.65-.603H210.586l3.65-1.206.634.286 2.412-.286-2.412-.603h1.81l-.287-.635 2.127.92-1.238 1.524 2.444-.603-1.206.603h1.206l.603-.92 1.84-.603h-.92l1.524-.603-1.81.317 1.81-.635-.92-.603-1.81.603.92-.603h1.207v-.603l-2.127.603v-.603l3.333-.317h-2.412l1.523-.286v-.317l.286.317 2.126-.317.317-.603v.603l.984-.222.54.54 2.73-.318 1.237-.286-.92-.317-1.524.317.603-.317 2.127-.92 1.237.603 1.524-.286h-.92l-.604-.317 1.524-.603h.285l-.603-.318 1.238.318h.286l1.84-.603h-.602l-1.238-.318 2.444-.285h-1.524l.603-.635h4.285l1.206-.603h-.92l-.604-.286h2.126l-.285-.317h-.317l-1.841.317 1.523-.635 3.682-.603 4.57-.92h-2.761l.92-.286H249.591l.096-.095 2.634-.222h-2.412l4.253-.286 3.047-.634h-1.841l-2.126.317h-1.206l-5.174.603 5.777-.92-4.57.317 2.729-.317h-4.253l1.84-.286h3.048l3.332-.317h-1.81l1.524-.286-5.49.286 2.444-.286-3.365.286.603-.286zm-23.77 9.426-1.81.318 2.444.285zm-12.791 4.57 3.65-.285.635-.635zm-25.739 7.776.159-.159-.286.223.127-.064zm-.127.064-.952.38v.318zm-11.68-.92-.285.094h.35l-.064-.095zm-.285.094h-.54l-.222.223zm-.762.223-1.3.38 1.205-.285zm144.31-20.027 3.968.92 1.523.286-.286-.285-2.158-.318zm5.49 1.206h-.92l1.841.318h.318l-.92-.318zm-22.533-.888-.603.603 1.809-.318zm7.014 0-.92.285h-.318l1.523.318zm-28.945.285v.318h-1.523l.888.603 1.238-.318h1.524l-1.524.318 3.333.317 2.443-.635-2.126-.285H281.9l-.317-.318-.318.603-1.809-.254v-.031h-.317l-.286-.318zm44.464.318 1.841.603 3.332.603h.92l-.92-.286h-.412l-1.301-.286-.096-.031h-.063l-1.46-.318-1.523-.285.92.285-1.238-.285zm-49.034.285-3.047.318 1.81 1.206 2.126-.603v.317l1.237-.317-1.523-.92-.603.634-1.523-.317zm2.126.92.92.318-3.966.603.285.317 3.047-.317-2.126.317 1.237.286-2.158-.286 3.047 1.206 2.158-2.126h.889l1.238-.317-1.524-.286-1.523-.317-.603.317-.92-.635zm3.333.318.92.286.603-.286zm.92.286.318.92 1.523-.286.286.286 1.237-.286-1.523-.634zm46.622-1.206 1.81.444.158.032 4.443 1.047-2.158-.603-1.523-.317-2.73-.603zm7.935 1.84 5.459 1.206h-.286l1.11.318h-.19l.572.095.634.19-1.206-.285h-.317l.92.285 1.206.92 2.127.604-1.524-.286 5.205 1.524-2.443.285 4.855 1.524 3.65.92h-.603l-1.428-.222-.095-.095h-.603l-2.444-.603v.317l1.84.603h-1.65l-4.76-1.523 2.761.92 1.523 1.206 3.968 1.238 2.126.888 2.73 1.524 1.84-.286 2.73.603 3.046 1.206 1.238.92 2.126.604-2.443-.603-5.174-2.127-.92.318 3.967 1.809 2.73 3.046-4.856-.92 2.126-.603-3.65-2.73-3.046-.92-3.682-1.84-3.332-1.207-3.047-.92-3.65-1.809-1.84-.317h-1.841l3.681 1.84.286.889 3.65 1.523 1.84.92h1.206l3.365.921 1.84 1.524-6.728-1.841h1.238l-8.855-1.206v.603l3.682 1.238h-1.238l.317.285.603.603-3.047-1.206-.92.603h-2.73l.604.92h-1.206l-1.238.921 5.173 3.967h3.364l-3.364.286-5.459-4.253 1.524-.92h-1.238l-1.206-1.206.92-.318h-.92l-.318 1.206-.92-.603-3.935 1.238 1.523.603h-1.84l1.205 1.206-2.412.317-3.047-1.237 1.81-.603-.92-.603-6.095-.92 2.159.602 4.57 4.285-4.285-.92-1.809.92-.635.603-.285.317 1.206.889 1.84 1.238-.92-.318-3.364-.285-.603.285.317-.603-3.364-.603v.92l3.65.89-.603 1.237-6.093-1.523-2.127-1.841.603-.92-3.967-.89.92-.317-3.967-1.206 14.345 1.81.89-.604 1.237-1.206-3.65-1.523-.635-.317-9.14-2.127h-2.73l-.317.92v-.92h-2.126l-.603-.603h1.84l-2.158-.317-.888.603-1.841-.603-.92.317-1.524-.635-.603-.285 2.73.285.92-.603-3.65-.603-1.206.603.603-.92-1.523-.286-.318 1.206h-.92l-.286-.92-1.523 1.523.603-1.206-2.126-.317-1.238 1.523h-.286l-3.047-.285.603.285.603.635-1.523-.635-1.809 1.238h-.317l.317-.317.286-.92-.603.634-.318.603v-.92l-1.206.317.92.889-2.443-.603-.603 1.523-2.127.318h-.317l.317 1.206-.92-.92-1.238.317.92.317h-1.808l1.809.603-2.73.603 2.127.317-3.968.286.92.317-1.681 1.111-1.048.095.89.603-.89-.285-1.523 1.523 1.81-.317-3.333.92h1.809l-1.81.318.89.603-1.524.285-.286-.603-3.364 2.127h1.841l2.126-1.206-1.206 1.523-2.444.317v-.634l-2.76.317v1.523l-1.524-.603 1.238.92-1.46-.285-3.714.286.89.603-.604.603-1.206-.318.603.318-2.444-.318v.635l-.603.889h1.524l-1.841.317h1.523l-1.206.603 3.047-.286.603-.317 1.238.603.603-.92.286.634-1.81.89-.603-.604-3.967.317 1.206.286h-1.523l.603.635 1.238-.318-1.841.92.603.604.92-.603-.92 1.206 4.284-1.523-5.49 2.126.92.92 2.444-.92-2.158 1.238h1.84l-.92.603-1.523-.603-.286 1.206 3.047 1.523 3.047-.286 3.65-2.443h2.126l1.206-2.127.635 3.936 1.206-.286-.603 1.206 1.206-.92-.92 1.523 2.76 3.047-1.237.635.635 2.412h3.65l1.523-1.81h3.047l2.443-3.364-.634-2.729h1.237l-1.84-.317 3.364-.603.285-.92.635.92 1.81-1.206-1.524-.318 2.444-.603-2.73-2.126-1.84-.317 1.205-5.174.92.603 3.968-1.84 1.206-.286 1.84-1.523-1.205-1.841 1.206.317-.318-1.238 1.524.635.317-.92 3.65.285 2.444 1.524-8.22 4.887 2.126 2.73-.603 2.158 2.73.889 1.237-.286-.317 1.206 12.79-2.127.318.92 4.57.921-5.173.286-.318.92-5.49-.603-4.856 1.206.888 2.127h2.159v2.76l-1.841.921-3.047-2.158-2.126.317-1.524 2.73 1.206 4.284h-2.126l1.206-2.126-1.206 1.81-1.524.316v.921h1.206l-.888.285-1.841.92 1.206-1.205-2.73.888-2.443-1.523-9.14 2.444-.286 1.238-4.285-2.444-6.093 1.206.92-1.206-2.73.285-1.84-1.523.92-2.126 3.968-2.127-2.159-.603 1.841-2.76-5.49 1.522-2.127 6.411.92-.317.92 1.238-1.522.285 3.046 2.159-3.046-.92-.635 1.523-1.206-.92-2.73.317.889.888-4.253-.285-1.84.92.92 1.206-1.81.92-.92-1.84-2.76 2.76 1.523.89-3.65.317 2.126.603-8.22 1.523-.285 2.127-1.238.634-4.57 2.127-5.49-1.524.634 3.65-4.285.318-.603-1.238-5.49 1.238 1.523.888-1.523-.285.317 1.523 5.49 1.206.604 3.047 2.126.603-1.206 2.158.286.603-3.967 7.014h-17.36l-1.524-1.238-6.094 2.761 1.238 2.412-3.967 7.935-3.967 4.887 2.126-.635-1.809 2.159h1.206l-2.126 5.173 7.617-.92 3.046 4.887 4.856-2.761h8.252l3.332-3.047 2.762-.286 1.206-2.76 2.126-.921.92-.603-.603-.603-.603-.92.603-2.127 1.206-1.206 3.968-3.682 8.537-3.046v-3.333l1.523-1.523 2.73-.92 6.696 1.84 9.775-4.887 4.57 1.523 2.413 5.49 16.154 8.538 1.84 4.57-2.126 3.047 1.524.286 2.126-3.333 2.126-.92-2.443-2.444 1.237-2.73 3.65.604 1.81 1.809.634-1.206-9.14-4.888.603-1.523-4.888-.603-3.967-5.174-3.935-2.126-.635-4.284 4.887-1.206.92 3.364 2.444-1.841 4.57 6.41 3.333.286 2.761 1.841-2.444-.603 6.094 1.81 3.047 2.443-.92 5.173 2.729 2.444 2.761 2.73 1.523-.286-1.523.92 1.523 1.81 7.903.602-.889.92-5.808-1.205-.92 1.523 2.444 3.967 1.523-.92 1.524 2.444.317-1.524 2.444 1.524-2.158-4.285 3.046.317-2.126-1.523 1.84-.603 2.127 1.206v-1.84l-6.093-2.413 1.84-.635-.317-1.523 1.523.92-3.364-4.855 1.238-.635 3.967 2.444-.92-1.524 2.444.92-2.444-2.126 4.856-.92 6.093 1.206-1.809 2.158 4.253-3.364h5.173l-5.459-5.173h-1.237l3.65-3.65v-5.205l.634.92 1.81-.603-.604-3.046.603.603 2.127-1.524.317-1.523 3.65-1.206 1.84 1.206-3.046-.286 1.809.603-.603.603 5.808.318.603 1.206-3.364 1.206h2.126l1.523 2.76 2.158.921 7.617-3.364h-3.681l-3.047-2.73 3.047 3.047-1.81-.317-2.126-1.84 1.524-2.127v1.523l2.126-1.809 9.744-2.158-1.524 2.158-2.73-.317 3.65 2.126-1.237-.603-1.206 3.047-2.73.603 12.79 5.808 5.491 2.412 2.412 3.364-.603 1.523-3.332 1.841H351.976l-7.014-1.238-5.808-3.046-5.459.317-6.728 3.333-7.3-.604.604 1.524 2.76.317-3.68.286.317.92h-7.935l-1.809 1.841-.317 1.523 3.364-.317-.603 3.364 1.809.92-1.809.286-.92-1.206-.603 1.524 3.935.92-.889 1.206 2.73 1.523-1.206 1.206 3.935-.285-3.332 1.523 3.967-.92 4.856 2.73h2.76l.287-2.73h2.126l6.728 3.364 4.253-.92 1.84-2.127 2.73.889 2.73-.889-.286 4.57 1.81 4.253-4.254 12.79-8.22 1.238-.92-1.84-3.65-.318-7.331 3.047-8.506-2.412-7.331-.318-1.206-1.84-6.697-.889-.92-1.84-5.49-1.207-6.412 3.047v5.459h-.285l-4.285 2.158-4.57-2.444-8.506-2.126-2.158-3.967-7.3-2.127-4.252.286-8.252-3.65-.603-1.84 4.888-3.936-2.444-3.682 2.444-3.65-2.444 1.524-2.444-2.444-7.014 2.158-5.459-1.238-4.284 1.841-5.174-1.238-10.98 1.841-4.57 2.444-3.333.603-4.57 2.444h-3.047l-.318-1.524-6.379.92-2.158-2.76-1.809.603-4.887 7.014-10.664 5.808-3.333 4.57-.92 5.459-.317.317-2.444 3.047-6.094 4.253-5.459 1.237-3.967 5.49-3.65 2.127-3.046 6.38-4.221 3.427-6.443 9.394-1.524 4.253.89-1.523 1.84 4.253-2.127 3.967.603 7.331-3.65 9.426-4.284 4.285 3.364 3.935-.317 2.444 3.681-.603-3.046 1.206-1.238-.889-.92 3.936h2.158l-2.159.92 3.047.317-1.523 1.206 1.84.318-.602 1.206 4.252-1.206-2.443.92 1.84.889-2.126 1.238.92 1.523 1.206-.603-.603 1.206 1.524-.92.603 4.284 1.84.889 1.81.92-.92 1.524 1.523.603.317 3.967 1.523-.286-2.126.603 3.332 3.333-.285 1.84 5.173 2.73 10.06 9.458 5.174 2.126 6.094-3.047 9.457-1.206 8.823 2.444 9.14-4.285 6.412-2.443 11.266-2.412-1.84 1.206 4.57.317 3.047 2.73 1.523-.921-1.523 1.238 2.126.285-1.523.318.634.92 1.524-.92-1.524 1.809 3.047 4.284 3.333-.317v-1.206l.603 1.206-.286-1.523.92 1.523.603-1.81 1.206 1.207 4.285-.317-.317-1.81 1.523 2.127 1.523-1.206 1.524 3.65 2.444-.603.603 1.206h-1.206l1.809 3.65-3.047 9.14 1.84.317-.317 3.047-1.523-.317 3.047 1.523-2.127.603-.92-1.206-.92 4.888h-2.127l4.57 8.22 10.06 9.743 2.127 6.094 2.444 1.206-2.126.634 5.49 10.95-1.84 3.047 2.126 4.284 2.126 4.856-.888 5.808-5.205 5.459-3.333 11.298.603 9.744 12.505 20.407 2.126 16.44 9.744 15.55 4.252 7.015.318 3.332-1.841 1.238 2.158 5.776 1.524-.92 4.57 3.047 10.346-3.333 8.823.92 8.855-2.443 13.107-9.14 4.253-5.491 1.841-2.127 4.856-3.967 3.967-10.346-.603.889-1.238-1.524 13.425-7.902 1.206-8.538-2.73-7.3.286-3.967.92.92 6.697-4.57 2.761-4.57 13.711-6.41.603-1.207 4.253-6.093-.889-8.855.889-.92-.603-6.697 1.523-3.047-2.73-2.126-1.237-.92v-.286l-1.206-7.934.92-2.127h-1.237l1.84-3.967-3.364-4.57 2.158-6.411 3.65-7.617.92-1.81 3.65-2.125-.92-1.524h2.444l9.743-12.822 10.347-8.22 7.616-9.743 10.061-23.454v-2.761l-.285-1.524 2.126-.603h-1.523l.285-6.379-2.126-.92-4.856 3.047-8.252.92-3.65 2.126-2.729-.92-4.887 2.444-6.38-5.808-2.76.317 3.649-2.126-.603-2.127-10.06-10.06-4.254-1.524-.92-1.523-.92-.92-.286 1.84-6.411-13.71-5.49-3.682-2.413-10.346.89.603-2.413-4.57-5.49-3.968-1.524-4.252h1.206l-3.047-2.444-8.22-14.314-4.57-4.887-1.206-3.936 3.936 5.776 4.57 3.365 1.84-7.332-.92 5.808 2.761.286 10.03 12.187 1.523 3.65 4.57 2.444 3.681 6.093 1.206 5.808 3.65 3.047 3.65 3.047 9.775 13.71.603 6.982 4.856 11.902 6.41-.318 2.127-3.046 11.902-3.047 2.126-2.73 10.347-4.57.603-3.967 8.854-2.444.603-3.65 3.365-.602.603-3.65 3.332-1.238-1.206-5.49.92-1.81 1.206.92 2.127-7.934-5.173-5.776-5.491-1.84-2.73-2.444-2.443-4.856-.286-3.047-5.49 9.426-5.174-.286-1.523 1.206-3.364-1.523-.92-7.014-2.127-.286.603 5.46-4.253-5.46v-2.76l-5.808-4.253-4.856-7.332h-1.523l1.523-.888-1.237-1.841-.286-.318 3.333.318-.286-1.524 2.73 1.524 1.84-.603.603.603 6.697 8.823 3.967 1.238 5.776 3.967 3.967.888 5.173-3.046 3.968 6.093 9.457 1.84 5.777 1.524 13.107-2.73 1.84 3.333 1.81.318 1.84 3.65h.604l-.445-5.65-.158-1.65-3.65-5.808 3.65 5.49.158 1.968.445 4.73.92.92h.92l.286 1.523.92-1.206-.317 1.523 3.047 3.047 3.047-.635v1.841l-3.047 1.206 7.331 7.014 2.73-2.126-1.206-5.174 1.523.286-.603 1.238.603 1.523h.92l-.317 1.524 1.84 2.443.286 4.253 6.697 17.075 10.664 22.85 1.84 5.46 1.524 5.205 2.73 3.935 1.237-1.523v-3.047l1.81-1.206-.604-.92v-2.444l.317-1.206 1.206-.318-1.523-6.379v-7.617l-2.73-8.22v-2.761l1.207-.286v-2.444l1.84-1.237-.603-2.412 1.524-5.808v-4.856l1.523-2.444-.317-3.364-1.206-2.73.888-1.84-.603-2.127 1.524 2.73-.286-2.127 1.206 2.127-.603-2.127.603 1.524v-1.524l.603.92-.603-2.443 1.206 2.761-.888-3.681 1.206 2.76v-.602l-1.206-2.761h.888l5.808 11.266-.317-1.523.603 1.84 1.238.921 1.206 2.73 3.046 8.22 1.841 7.33v-1.522l.286 2.126v-1.206l.92 1.523-.285-1.84.603 1.84-.318-2.443.318-.604-.603-1.84.603 1.523v-1.523l-1.238-3.364 1.84 4.57.318-.286 2.126 7.903 1.81 6.093-.286-1.809 1.523 5.173.92 4.57.286.921.603 4.57.635 3.333v-1.524l.286 1.524.92 8.537.317-.92 1.524 6.696v.032l.031.095.254 1.11v.604l1.238 10.664.889 7.014 1.238 7.617v-1.841l.285 1.523-.603-6.982-.603-8.252-.317-3.935-1.524-7.014-.603-1.523-1.206-7.617-.603-2.444h-.317l-.603-3.364-.317-1.81-1.206-8.22v-.634l-.096-.254v-.032l-.222-1.238-.92-3.332.317-.92.92 3.967.286-.318.92 2.444 1.302 5.205.54 2.73v-.92l.92 3.332-.635-2.73-.762-4.253.762 3.65-1.523-7.617-.667-2.793-2.38-9.108-.222-1.492-.223-.825-.444-1.333-1.174-3.809.444 1.175-.508-2.54-.285-.317-3.047-9.426-1.523-4.284-.635-1.81-.603-2.126v.286l-.35-.889-.856-2.443.285.888-.603-1.523-.19-.476.032.19-.445-.92.223.222.095.095-.318-.635-.857-2.158-.063-.254.317.603-1.3-2.824-.223-.54.063.254.127.35.032.158.032.063.032.096.127.19.793 1.936-.603-1.206-.603-1.523.222.444-.54-1.365-.602-1.206-.603-1.84-.92-1.524.602.92-1.206-2.76-.603-.89v-.317l-.92-1.523-.603-1.841v.317l-.92-1.84.602.92-1.523-3.047-.92-1.523v-.286l-.92-1.523-.604-1.238-.285-.286-1.238-2.443-.286-.318v-.603l-.92-1.84-.318-.286-.92-1.84.635 1.522-.92-1.523-.572-1.142.571.856-1.237-2.443-.286-.286v-.032l-.127-.095-.19-.508-.286-.444v-.159h-.095l-.825-1.237.412.73-.412-.413v-.603l-.318-.317-.285-.603-.318-.318-.317-.603-.286-.285-.603-1.238-.317-.286-.318-.635-.126-.127-1.683-2.92-.317-.285v-.032l-.286-.571-.317-.317-.317-.603-.603-.603-.286-.635-.317-.286-.603-1.238-.318-.285-.603-1.238-.603-.286-.603-1.237-.317-.286-.603-1.238-.603-.285-.318-.92-.92-1.207-2.444-3.047-.285-.634-.318-.286-.603-1.238-.603-.285-.317-.603-.286-.318-.317-.603-.92-.92-.286-.603-.92-.92-.318-.572-1.809-2.158v-.317l-2.158-2.444-.889-.92-2.76-3.333-.604-.603-.317-.635-.889-.888-.317-.635-.603-.286-.318-.603-.603-.635-.317-.603-.603-.285-.286-.635-.634-.286-.286-.603-.603-.634-.635-.286-.285-.603-1.524-1.523-.317-.635-.603-.286-.318-.603-.603-.317-.285-.603-.635-.603-.603-.318-.286-.603-.634-.317-.286-.603-1.523-1.523-.603-.318-.318-.603-1.523-1.523-.603-.286-.318-.634-.603-.286-2.443-2.444-.603-.317-.318-.603-.603-.286-1.523-1.523-.603-.318-.318-.603-.603-.317-1.523-1.523-.603-.286-.317-.635-.603-.285-1.524-1.524-1.206-.603h.286l-.286-.317h-.158l-.16-.318-.285-.127v-.158h-.317l-.92-.92-.286-.286v-.032l-.318-.286-1.206-.603-.317-.634-.603-.286-.92-.92-.603-.318.603.635-.92-.635-.604-.603-.317-.285-1.016-.794.825.603-.698-.73-.634-.317.253.254-1.46-1.175-1.206-.983-.38-.254-.54-.286-.063-.127-.254-.159-.35-.349-.825-.54 1.778 1.492-2.127-1.523-.603-.317h.318l-.794-.54-1.047-.666.317.317-3.364-2.507-3.872-2.73-.38-.222v.254l1.554 1.08-1.872-1.08-.317-.603.634.35v-.032l.381.253 1.143.667-.635-.635-1.81-.888-.316-.635-2.444-1.206-.603-.603-.603-.318-.318-.285-1.206-.635-.603-.603-2.443-1.206-.92-.92-2.445-1.206-.158-.096-.032-.031-1.619-.794-.285-.285 1.904 1.079-2-1.175-.54-.54-2.538-1.269-1.428-.857.825.54-.508-.254-1.238-.603-.285-.286-1.841-.92-.286-.317-1.84-.92-.318-.286-1.206-.603h-.603l-.317-.318-2.444-1.206-.286-.317-1.84-.92h-.286l-1.238-.604-4.253-2.126h-.603l-.634-.317-.286-.286-3.65-1.84h-.635l-3.046-1.524h-.603l-2.444-1.206h-.603l-2.444-1.238h-.603l-2.444-1.206h-.603l-1.809-.92h-.634l-1.207-.603h-.603v-.318h-.603l-1.237-.603h-.603l-1.206-.603h-.635l-1.206-.603h-.603l-.159-.063.445.063-.794-.254-.159-.063-.158-.064-.635-.222-.667-.317h-.317l-1.047-.35-.476-.253h-.603l-.603-.318h-.445l.73.318-.825-.318h-.095l-.317-.158-1.175-.445H355.626l-.762-.253 1.048.253-1.429-.412.223.095-1.206-.286-1.238-.317 1.523.317-.317-.127.38.064-.158-.064-.571-.158-.857-.35.158.16-5.934-1.683-2.762-.603-2.285-.54-.127-.063h-.158l-1.365-.317-.635-.286h-.888l-1.238-.317-1.81-.286zm18.63 4.507.127.064h.126zm.127.064h-.19l.697.19zm1.935.603-1.523-.603h-.254zm1.207.444.412.159h.095l-1.396-.603.888.444zm74.075 35.514 2.729 2.063 4.094 2.856 1.301.794-.825-.54-2.539-1.872-.508-.254-.095-.19-1.364-1.016-.667-.318-.54-.54-.063-.094-.095-.032-.54-.254-.285-.317-.603-.286zm9.077 6.348.507.349-.158-.318-.603-.285zm1.586 1.174.572.349-.286-.254-.444-.254zm89.88 117.397.064.254.54 1.27-.603-1.524zm.064.254-.159-.35.19.508-.03-.158zm12.346 40.211.508 1.84-.127-.57-.92-3.65zm2.19 10.41.349 1.809h.286l-.318-1.206v.92zm.635 3.332v-.603l-.254-.73zm0 0 .825 5.047-.222-2.285zm.825 5.047.063.761v-.317zm-18.82-48.305h-.604l1.206 2.127zm-388.403-20.343.254-.381-.92.92zm116.095-132.567.54-.032-2.444-.317 1.904.349zm68.775-23.486-.603.92h-2.729v.286l-1.238.92 2.444.603-.603.603.286.032-.603.603h2.76l-.92.603H327.284l-1.84-.603 1.523.286-1.524-.603 1.524.317-1.524-.635 1.238.318-1.84-.603h1.523l-.286-.318-.635-.92 2.444-.889-2.444-.92zm-.285 4.57-1.524.286 1.206.317-.92.317h1.84l-.602 1.206 1.523.603 1.81-.285 2.76 1.206 4.57.317-6.41-1.84-1.81-1.207-.317-.634zm-88.072-2.761-1.809.635h1.524zm110.32.317 1.205.318 1.524.603h.317l.603.285 1.81.635-2.73-.92h-.603l-.318-.318h-.285zm-116.096.92-1.206.286h1.524zm-4.887.921 1.523.286-1.65-.254.127-.032zm113.969.286-.92.317 1.206.286h.634zm-114.572.603-1.81.317h-.92l-.603.603 1.207.317.825-.825 1.3.222zm-29.865.317-.952.38.063-.063-.857.286h.223l-.508.159.825-.159 1.206-.603zm-2.126.603-.857.317h-.064l-.222.127-1.301.476.92-.285-.603.285.92-.317.857-.286h-.253l.603-.317zm-.603.317.54-.095.285-.19zm-1.524.603h-.603l-.666.318h-.254l-.698.285h-.223l-1.142.572h.063l.794-.254.888-.318h-.095l.222-.063-.127.063.92-.285.921-.318zm168.367-.793.571.19h-.158zm-9.267 1.047 4.824 1.27-2.761-.603zm5.776.19 2.095.762 4.253 1.524 1.237.635.603-.318 2.127.603-2.73-.285-1.523-.635-1.238-.286-2.73-1.238.921.635zm-169.129.762-.825.413 1.396-.413zm0 .318-1.428.412-.19.096zm-1.619.508-1.428.412-.634.19v.032l-.286.064h.286l1.237-.286-.857.159 1.46-.476zm-2.348.698-1.523.635-2.127.603-2.158.92 1.238-.317-2.127.603h.603l.603-.286h.318l1.047-.444.762-.19 1.237-.604 1.207-.285zm0 0 .286-.095v-.032l-.286.127zm.286-.127.412-.159h-.412zm.412-.159h.222l.603-.317.095-.032.699-.222h.063l-.571.254.73-.19.159-.096h-.16l.191-.063-.222.031-.032.032h-.349l-1.428.603zm-6.792 2.73-3.364 1.237-4.57 1.81-.603.317-.317.285h.317l-2 .857.477-.254 1.206-.603v-.285l-2.412 1.206v.317l-.92.286-3.048 1.84 4.57-2.126-1.237.92 2.158-1.237-.317.317 1.206-.603h.317l1.206-.635h.635l1.11-.825 1.016-.38-2.126.602 1.523-.603.286-.317 1.809-.508.952-.38-1.84.602 1.523-.603-.92.286-.921.317 2.158-.92-.635.317 1.524-.634h-.286l.92-.286zm-2.76 1.237-.604.286 1.524-.603zm-8.506 3.333-3.047 1.238-.92.603-2.444 1.206-.603.317h-.35l-.317.159-1.174.444-1.206.603-.92.603-.604.317-1.523.603-3.967 2.762 6.601-3.745.698-.223-4.252 2.444 2.729-1.523 4.888-2.444 1.27-.762-.667.445.983-.603 2.38-1.111zm-2.444 1.333-.318.19 1.238-.603zm-4.92 2.031.635-.317 1.143-.572-2.031.889zm179.19-10.981 1.205.603 2.444.635v-.318l-.603-.317h-.317zm-149.294.317-.92.286-1.523.635.603.285-1.524.318 2.158-.318 1.524-.92.603-.286zm176.714.286h.318l2.412.92-2.412-.603zm-87.753.92-1.206.92 1.809-.92zm18.883 0-.285 1.238-2.127-.317zm31.389 0-.286.603 1.809.635.92-.635zm40.528 0 1.524.318h-.92zm-94.768.92-1.523.604h.92zm.635 0-1.238 1.207 3.047-.889-1.523.286zm99.02.921h1.207l-.318.286zm-68.266.286 1.237 1.237-1.237.286zm-12.188.317h3.365l-.603.603zm-121.237 1.968-.317.158-.92.318zm190.107.476.286.603-2.412-.317zm-144.722.286-1.84.92h-2.444l-.889.92.286-.92-2.444.92-.286-.603-.317-.317-3.332 1.84 1.809-1.523-1.524-.92-.603 1.206-.603-.603-.92.92-.92-.317-.286.635h2.73l-2.127.603.92.285-3.967.318 3.047 1.206-3.967 1.237 3.046-.317 1.206.317 1.238.603 4.253-.603 4.57-.92 3.65-1.523-.603-.318h1.238l-.318-2.126 1.524-.603-1.84.603zm161.765 0 1.841.317 2.444 1.206v-.286l2.126.603 3.65 1.841-3.967-1.84-1.81-.604.287.286 7.014 3.681.54.381 1.586.825 5.49 2.444-5.49-2.126-1.587-1.143-7.236-3.745-3.047-1.206zm-75.249.634.92.889-1.523-.286zm-131.012.889v.317l-2.285.445zm190.424 1.523 5.173 2.761 1.238 1.524 10.664 3.65 7.902.317 6.729 1.523.444.19.444.096 4.57 2.126 1.238.318 2.127.92 5.776 2.444 2.158.889 3.047 1.523-5.205-2.412-7.617-2.761-1.523-.92-5.015-2.222-5.332-1.111-8.22-.317 2.444 1.237-14.631-5.49-2.126-1.841-4.285-2.444zm-66.109.92 3.047.921h-2.73zm15.837 1.524h.317l2.73.92h-1.523l.603 1.206zm14.028.317 2.444 1.206 8.22 2.444-8.22-2.126zm-29.262.286 5.49 2.761-2.443-.92.317 1.174-1.523-.571.603-.92zm14.314.317 1.237.603-1.523-.285zm-15.837.603.603 1.841.317-1.238 1.206.635-.889-.92 1.524.603-2.761 1.84.285 1.334.286.158 1.555-.285-.286.92-1.269-.635-.254.032-.032-.19-.888-.445.603-.888.603-.92-.603-1.239-1.206-.285 1.206-.318zm18.598.603 3.047.92 3.046 3.048-.92.603-2.444-.286 1.841-.317-3.967-1.524-1.524-1.809 2.127 1.206-1.206-1.206 1.809 1.206.92-.317zm-163.321.635-1.143.413-.19.127zm-1.333.54-.19.063-3.047 1.524v.285l1.523-.888 1.714-.984zm-3.237 1.587-2.476 1.46.667-.254zm-2.476 1.46-.222.095.571-.35-1.206.604.413-.16-3.174 2 3.174-1.967-.127.127.571-.35zm-3.618 2.19h-.286l-.317.317zm9.521-5.364.222-.127-1.523.603zm153.482-.413 1.524.286v1.523l-2.73.92 1.524.318-2.444.286-1.524-1.206 1.841.285 1.524-.603-2.412-.92h3.015zm-11.87.889h2.127l.317.635-2.158.285v.92l2.158-.92-1.523 1.238-.635-.317v.317zm16.155.92 5.776 2.761-2.73 1.524-4.887-3.047zm-165.161 3.364-.889.476.603-.19zm-.889.476-.317.127-.508.35zm-.825.477-1.016.57-1.84.921-.89.603-1.237.603-3.65 2.127 2.444-1.524-2.761 1.524 3.364-2.127h-.317l-3.047 1.841-6.697 4.253-3.967 2.73-3.427 2.443 1.015-.603-1.238.92h-.19l-.413.286-7.617 5.49-1.523 1.238-.317.286h.317l-.317.317h.317l-4.253 3.333 3.364-2.825.572-.825-1.81 1.523-.317.318-.285.285-.19.096-1.556 1.237-.095.19-.413.223-.349.254-.095.095-.35.35-.221.126h-.032l-.38.19-.064.19h-.032l-.032.096h-.159v.317h-.317l-.286.318h.286l-.92.286-.286.603-.603.317-1.238 1.206-.603.317-.317.603-1.206.603-.318.635-.603.286-2.126 2.126-.603.317-.317.603-.603.318-1.65 1.65-.191.159-.286.317-2.444 2.444-.856.793-.064.127-.286.286-.19.095-.444.413v.095l-.889.825-.317.413-.826.603-.063.063-.19.159-.477.444-.031.032v.032l-.254.476-.603.317-.603.603-.318.603-.285.635 2.444-2.761-.92 1.238 2.126-1.524 1.206-1.523-.286.603 3.65-2.761-2.127 1.84h.921l-1.524 1.206.89-1.206-3.65 2.73-2.127 2.444-.92 1.237 4.284-3.967v.603l.889-.92 2.76-1.524.921-.603.476-.73.762-.476h-.35l2.762-2.158 2.444-2.412-4.285 3.333-.984 1.206.381-.603-1.523.634 1.523-2.158.92-.888 1.524-1.524h-.317l2.76-2.444-.92.603.92-.92v-.286h.604l1.809-1.237 2.444-2.127-.286-.317-2.761 1.84-3.333 2.73 1.81-1.809 4.284-3.047 2.73-2.126.92-.92h3.332l.635-.318.063-.159h.032l3.84-2.57 1.841-.603 3.364-1.841.889-1.206.635.285-.318-.603h.603l.603-.603 2.158-1.523 1.206-1.238-2.126.92 2.126-1.523.318-.603-2.095.984 1.777-.984-1.523.603 3.65-1.523v-.603l.92-.603-.92.286 1.238-.89-2.158 1.207 1.84-1.206.318-.317-.73.476-1.111.444 3.364-2.127v-.634l1.206-.603h-.317l.634-.603.603-.318.286-.285 2.158-1.238.889-.889.92-.317.92-.92.921-.603 1.206-.603-1.206.285 1.81-.888 1.522-.92h-.603l.92-.318 2.54-1.778zm-50.367 38.053-1.238 2.126 2.158-1.523h-.92l1.809-2.127zm1.523.888-1.682 1.714.762-.476h.317l.286-.603zm-1.682 1.714-.73.444h.286zm-10.22 5.903-.285.318-.603.317-.317.286-.318.603.318-.286h.317zm1.81-2.063.349-.349-.318.286-.031.063zm2.76-2.602v-.19l-.285.285-.444.571zm17.837-16.186.254-.222-.095.063-.159.159zm32.436-23.01 1.238-.603-.92.603 2.126-1.206h-.286zm190.139-3.65.603.603h-1.84zm38.688.92 3.364 2.73-.317.603.92.698.349.223h1.777l-.92.317 1.523 1.206-2.38-1.523h-.063l-.286-.223-.603-.38-1.84-.318 1.205-.603-1.809-.317.603-.603-1.523-1.81zm-96.577 1.524h2.126l-.603 1.524-3.967.888.603-1.523h1.84zm58.492.286h2.126l-1.206.317.92.286 2.73 1.238-.603 1.206-4.285-1.81 2.762.604zm-36.879.603 1.238.635 1.523-.318-1.523-.317zm14.028 0v1.523l-1.84-1.206zm-79.82.92-1.523 1.84h-1.523l-.318 1.81-2.443 1.238h2.76l-3.967 3.65 2.127-1.524 1.84-.92.286.92-.888-.317-2.444 3.047.286.634.634-.634 4.57-.286-2.158 1.206.635 1.238 1.206-.318-1.523 1.841.603.603-4.253.286-1.84 1.237 1.84-.317v1.238l-4.888 1.809 4.57 1.523 3.65-1.206-2.73 1.81h-3.363l-5.776 3.363 6.093-.603 1.206-1.237 10.06-.286 4.285-1.238.286-.603-3.047-.285 1.841-.318 3.333-2.73-.604-1.237h-3.967l.92-1.809-.602-.317h-1.206l2.126-.318v-.888l-2.444-1.238-.603-3.65-3.967-.603 3.364-.317-1.84-.286 2.443-.635 3.047-2.73-6.41.318 4.887-2.76h-4.57zm-3.046.318-2.761 1.206-.286.603 1.523-.603zm68.552 0 .603 1.206 3.047-1.206zm23.454 0 1.206.92-2.126-.317zm-30.468 1.523-2.126.92.286 1.206zm85.31 0 2.444 1.523-2.126 1.206 1.523-1.523zm-24.374.286.318 3.046-2.159-2.412zm-124.918.317.603 1.523.318-.603zm38.402 1.206 2.127.317-1.841.318.317.888-.92-.603-1.206.603zm87.722 1.238 3.968 1.523 3.967-.603-3.967.889-3.968-1.81zm-126.124.285-1.206.92 1.81-.285zm-91.72 1.238-1.207.92.603-.634zm138.025 0-.603 1.206-.603-.92-2.76.634 2.76 3.333v-1.206l2.127-1.524zm99.624.603.92.603-.602.317-3.65 1.81.285.634-.285.889 1.523.92 1.81-.285-.604 1.523 2.444.286-2.126.603.603-.286-3.968-2.444.318-2.73-.603-.92 1.523.604 2.73-.604zm-104.194.603-1.809.317-.317 1.207h2.126v-1.524zm167.891.317.92.604.223.761.317.35 1.873 1.364 2.76 1.777-2.443-1.523-.317-.254-1.524-.952-.349-.413-.254-.19-.063-.159-1.143-1.365zm4.253 0 .603.286 1.523 1.238zm-219.369.286-1.206 1.238-.317-.603-3.047 1.523h1.523l-1.523 1.206h-3.967l.634 1.206-2.443.92 3.046.604-3.967 2.158 3.65-.318-5.173 1.206h1.523l-2.444.92h2.444l-2.126.921 2.126-.317-1.206.635 5.173-1.238 5.174-.92 2.443-5.174 3.333-1.206-.603-2.126-3.333.603 1.206-.603zm-91.404.92-2.475 2.063.952-.825zm313.756.286.762.54-.095-.222zm-20.946.032h1.206l.317 1.206-1.523-.286zm-293.095.603-2.444 1.84.285.286-1.206.318.92-.603-1.237.603-1.523 1.206.92-.92.603-.286.413-.381.507-.222.445-.318h-.127l1.809-1.206-1.682 1.206h.158zm146.849.603-1.238.603 1.238.317zm-153.863 4.57-1.524 1.238v-.318zm275.417 2.126 1.84 1.238-1.237.286zm57.19.73.699.508-.286-.317zm-84.897.19-1.524 1.524.603 1.841 2.444 1.809-1.84.317v-1.206l-.604-.92-1.237-1.84zm-246.79.604-4.888 3.047-2.443 2.158-2.127 1.523-.603.286-1.238 1.238.318-.635-3.047 2.158h.92l-3.046 1.809-.92 1.238 1.523-.92.317.92 2.412-1.238-2.126 1.523 2.126-.603-3.65 2.127h.92l3.968-3.047-1.238 1.523-2.412 2.127 2.126-1.524-2.126 2.159h.603l3.65-3.047.603-.92-1.524.92 2.761-2.158-3.046 2.158.888-.92.92-.604.318-.634 1.81-.889-1.524.286 3.681-2.73h-1.237l1.237-.92-2.76 1.523 2.126-1.523-1.524.317 2.444-1.523h-.286l.603-.635-.92.635 4.57-3.364.603-.92h.603l.635-.921zm332.1.635 1.809 1.206 2.126 1.84zm-341.59 1.079-.285.127-.285.317zm-.57.444-.603.286-.19.349zm341.24.889 1.809 1.237.317.92-1.84-1.523zm-159.956 2.158.285.888v.318l-.285-.92zm-183.41.285-1.524 2.444.889-.603.635-1.238zm218.448 0 11.266 4.285 1.524-.317 1.206 3.65-3.65.317-.603 1.809-3.047.635 2.73-.635.317-2.412h3.364l-.317-2.158-12.79-5.174zm119.428.318.253.761.92.508 1.27.54.603 1.523 1.206.92v.604l2.444.92v.603l-3.047-1.523-1.523-3.047-.952-.54-.857-.349-.064-.159-.856-.476.603-.285zm-84.105.92h.318l.317.254 1.524.635V570.489l-.318 3.364-2.444.318-.603-1.524 1.841.603-.635-2.126h1.238l.92-1.523-1.523-1.27-.635-.254zm94.451.286 1.238.92.285.318-1.523-1.238zm2.761 3.047.92.603.89 1.523zm-71.6 4.284 4.856.286 1.238 1.238.92 3.65 2.127.602-5.173-.317-.318 1.84 2.127 1.207-3.65-.286.317.92 2.127.604 3.047 3.65 4.855 1.523.318 2.126 3.364 3.65-1.523-3.332 1.809-.604 5.173 3.936-2.127 1.523-3.332-1.523.889 2.761 1.84 2.126-.92-1.206 2.126.286 1.238 1.84-1.523-.602.603 1.809.92-.92 1.81 1.84 3.966 7.935-6.379.888-10.06-3.935-3.047-4.888.603-1.523h.317l-.92-3.047 2.126-.92-3.047-.92-8.537-6.983-2.444-4.57v1.523l-3.935-3.967v-3.65l3.935-.317v-2.73l4.285-1.523zm54.24.889 6.696 1.238.92-.92-.317 1.523-6.093-1.524v2.444l2.73 3.332-3.65-2.729-.604-2.126zm-30.468.317 2.73.603.602-.603-.285 2.127 1.206 1.523 3.967 1.84-.603 1.207v2.444l1.523 1.206-2.158.634-.603.286-1.523-1.523-2.73.317-2.76-3.967-1.207-3.047h2.127l-1.206-1.84 1.523.92v-.92zm-316.453.127-.413.19-.317.286-.159.286zm359.108.794 2.412 2.126-2.126-.92zm-369.582 9.743-.603.317-.317.603zm171.54 1.84-3.363 2.413 1.206 3.047 2.158-2.127zM75.513 590.42l-1.11 1.111-.16.222.477-.222zm-1.27 1.333-.158.064-.159.349.317-.413zm-.317.413-.444.571.317-.286zm378.881-1.555.92.317v1.523l-3.046-.92zm15.551 2.126.92.92h-.92zm-395.003.159-.793.762-.095.126-.032.032-.159.159-.063.127-.444.571.063-.032.317-.412-.19.349.317-.317zm-1.396 1.682-.127.063-.159.223.286-.286zm-.19.095-.413.19-.317.635.317-.317zm176.619 1.11-3.968.921.286 7.3 4.285-1.206 1.206-4.57zm-177.952.318-.286.286-.92 1.238.285-.318zm-1.207 1.524.127-.286-.73.889zm-.603.603-.92.92-.127.254zm-1.047 1.174-1.11 1.27.92-.92zm-1.11 1.27-.286.285-1.016 1.333.413-.413.603-.603zm-.89 1.205-1.364 1.81.73-.89zm-1.364 1.81.222-.445-.698.92.317-.158zm-.476.476-.317.158-.286.603zm-.603.761-.603.603-.286.603zm-.889 1.206-.571.762 1.396-1.746zm-.571.762.317-.476-.984 1.238.286-.286zm-.667.762.096-.159-.413.476.286-.254.031-.032v-.031zm.096-.159.888-1.08.096-.126-.794.762zm3.332-4.253.73-.952-.508.508zm4.92-5.903.793-.952-.635.635zm309.407-.952 1.841.92-2.73-.285zm-152.625 3.967-3.364 1.523 2.127.92 2.158-1.523zm84.708 2.126-1.841.635 1.84.889h1.207zm25.263.92 1.237 2.445-1.523-.92zm-36.245.318-1.84.603 6.093 3.364-1.206-2.443zm72.203.286-.92 2.444-3.047-.603zm-82.549 1.84-.635 1.207 1.841.317zm-18.28.921-11.902.92.603 1.524 8.537 3.332 2.761-5.776zm107.525 0 3.047 3.332-1.206.92-3.047-3.966zm-317.755.603-.603.889.16-.159zm-.444.73-.222.413.317-.508zm-.222.286-.476.73.222-.223.064-.158.095-.064.063-.095-.063.032.095-.222zm-.635.92-.54.508-.317.603-.127.127.127-.445-.476.794.19-.159.128-.158-.127.444zm-1.333 1.587-.412.444-.318.603-.603.603-.127.286-1.364 1.809-.032.032v.031l-.095.159-.19.413.824-1.143-.317.35.857-1.112-.476.699.317-.286.286-.571.063-.127 1.175-1.46.412-.73zm-2.317 3.237-.54.857.572-.857zm437.881-3.396 1.841 2.412-.317-.285-.603-.603-.603-.318v-.603zm-174.587 2.73-2.126 1.206 1.238.634zm-264.214 1.904-.54.54-.285.539zm-.857 1.142-.54.73.255-.127zm-.285.603-.603.603.349-.476-.35.19-.634 1.239.635-.635zm-1.238 1.556-.286.285-.317.603.317-.317zm290.968-2.159-8.22 2.444 3.047 2.127 3.65-1.524-.889-1.206zm-41.735.318v1.523l4.57.889h5.491l.317-1.206-1.84.92zm-249.868 2.793-.254.254-.222.412zm-.476.666-.603.889.19-.095zm-.603.889-.412.222-.73 1.428zm-1.142 1.65-.413.603.222-.222zm-.476.698-.318.286-.38.73zm-.699 1.016-.825 1.27.286-.16zm-.825 1.27-.317.158-.603 1.206zm334.83 1.047 4.284 1.84 3.935.604 1.238 1.84-1.523-1.84h-2.762zm125.013 1.365.381.666.127.127.222.413.635 1.047-.222-.254-.413-.793-.349-.54-.159-.19zm1.524 2.507.317.508-.095-.096-.222-.412zm-7.11 4.983h.92v1.523zm10.982 1.364.095.159h-.095zm.317.572.095.19h-.095zm-358.315 5.077-2.126 1.524 1.523-.635zm351.301 0 .92.89v.92zm-353.428 1.81-3.047 3.046 1.81-.603zm-8.22.92-3.047.92.286 1.524zm.889 1.523-.603 1.206 1.523-.285zm285.509 5.173-3.047 1.841 2.412-.92zm81.628 3.047v2.444l3.047 7.3-3.332-7.3zm-1.523 5.173 4.284 4.888-2.76-2.73zm-166.653 4.57 1.523 4.888-4.253.92-3.967 5.174 2.444-4.888 3.65-.888zM19.242 682.936l-.286 1.206-.317.92h-.286l-.635 1.84v.287l-.603 2.126v-.603l-.285.92-.318 1.048v-.127l-.92 3.047.603-1.841.317-.603v-.127l.603-1.397v1.206l.92-1.809.318-2.126.286-1.238v.318l.603-1.841zm-.286 7.014-.92.285-.603 1.841.603-.317zm517.637 0 .318.285v.92zM139.59 697.85l3.047 2.444 2.158 4.57-5.205-6.696-6.982.285zm-120.348.603-.603.92-.285 1.524.888-1.206zm359.838 3.047.318 1.238 1.809.286-1.81-1.524zm-198.962.92 1.524 1.841-1.206.286zm-76.455 1.524v1.523h.889zm438.103 1.523.92 3.967.35 1.016zm-281.193 4.888.889 3.047 1.84-.92v1.523l4.253.603-5.459 2.76-3.364-6.41zm275.417 4.856v1.523l.603 1.238zm-101.147 1.84 2.73.92 1.84-.92zm-425.63.318-.92 3.935-.318 1.524.159-.127.158-1.08.603-2.443zm-1.08 5.332-.158 1.015v-.254l-.92 4.57v.89l-.286.92-.159.857.16-.54-.096.571-.127.381.063-.412-.158.666-.127.984.127-.73v.254l-.127.476.127-.381v.317l-.159.286-.032.095v.032l-.031.222-.064.476v.413l-.063.222v-.254l.063-.38v-.509l-.127 1.27-.095.73.127-.794-.222 2.444v-.285l-.19 1.27-.032.126-.096.73-.888 6.697-1.238 11.266v2.762l-.286 4.57v.92l-.317 3.333v17.677l.317.603v2.761l.254 3.27.032.063v1.841l.317.603.286 2.443v.286l-.286-2.412-.317-.635v1.841l.317.92v3.047l.286.603v2.444l.317.603v2.444l.318.603v2.126l.888 6.697 1.524 8.537 1.237 6.094 2.127 9.743.317 2.444 1.81 6.696 1.84 5.491.92 3.364 1.81 5.173 2.443 7.014 2.444 6.38 3.65 9.14 3.65 8.252L36.92 909l2.443 4.253.318.317 1.206 2.444 7.934 12.187 7.3 10.664 2.126 3.047.603.92 6.411 7.903 4.888 5.808 1.206 1.206.317.412v.19h.159l.73.921 2.443 2.444 3.047 3.333.92 1.237h.318v.286l5.173 5.205h.286l.761 1.015.572.508h.127l.158.254-.285-.254h-.095l.603.603.317.286-.35-.476.509.476h-.159l.286.317 1.84 1.841-.793-1.08.127.096.032.032.031.032.73.92h-.127l.381.317.222.286h.127l1.08.92.92.603v.286l.92.635-.603-.318 1.523 1.206 1.524 1.238.92.92.286.286.698.603h.222l.159.35.032.031 1.015.857.92.92 1.524 1.206.603.603.603.286.032.032 1.206.92 1.523 1.524 1.84 1.523 1.524 1.206-1.84-1.523.603.317.317.286 1.079.92h-.159l2.254 1.555.38.318.54.38.159.19.285.16h.032l.064.063.857.698.19.127.032.032.698.38.825.604-.222-.254.095.063.476.381.127.127.254.222-.73-.54.381.382.444.285h.064l.127.127-.19-.127h-.16l.318.318 1.523.92-.317-.317.571.285.064.032.603.286.285.317.445.445 2 .762-.921-.921-3.936-2.126-2.126-1.492.286.286-.603-.318-.413-.19-.063-.127.476.317-.476-.349-.096-.19.699.444-2.889-2.031-.603-.603-2.729-2.127-.317-.317-1.81-1.523-3.364-2.73-.317-.349v-.286l-3.332-2.729-6.094-6.094-.92-.603-3.65-3.046-2.444-2.762-.603-.888-4.284-4.57-1.524-2.158-1.523-1.207v-.603l1.238 1.206-.603-.92-1.841-1.809.92 1.206-1.523-1.206-4.285-4.887 2.158 1.523v-.92l-4.887-5.777.603.318-2.127-2.158 1.524.634.317-.634.603-.89-.317-1.84-2.444-4.57-1.809-2.126-1.523-1.238-1.524-2.73-3.967-3.364-3.364-5.459 2.444 3.333 1.84 2.444 3.047 1.523 1.81-.92-2.127-6.38-2.444-5.205-1.523-5.776-1.206-1.523 2.126 1.84 1.523 6.983-.285-3.936-1.524-4.887-.92-2.73v-3.364l-2.444-5.776-2.126-3.681-.603-3.047-.92-.889.92.286-.318-3.333.92-3.364 1.81-.317.635-3.936 2.126.603.286-1.84.634 1.237 2.127.286-.603-2.126 1.523-2.444-.92-2.127.285-7.3v-1.237l-1.206-5.49.318-3.047L55.2 837.4l.318-1.206.92 2.127.603-1.841 3.332-12.473 2.444-7.617-.285-5.808-1.841-7.903-1.206-1.84-4.285-.603-4.253-6.094-3.967-3.967h-5.776l-3.047-2.444-2.76 4.888v-3.65l.602-1.238-1.206.603.92-2.126-.92-3.047-.603 2.126-.317-2.412-.603.889.317-1.206-.635.92-.603-1.84-.285 1.237-.318-2.158-.317 1.238-1.81-2.761-.316 1.238-1.206-.92-.92 3.966.92.286-.603.92-.635-1.523-1.524 4.888.318-3.365-2.127 1.238 3.047-2.158.92-5.776-3.967-.92-.603 4.284-.317-2.158-.603 2.158v-2.444l-.603 2.444.603-4.57 2.444-6.094h-.318l.318-2.444-1.524-1.84-.317-10.347-.317-.603-.286 1.524-.92-4.285-2.444-4.253-4.253.286-.92-5.173-.603 2.443.603-4.57-.318-3.047-.603-2.443v-.603l-.92.317.635-4.284-.318-2.127-.603.603v-2.73l1.206-1.84-2.126.317.317.92-1.238 2.127-.285-2.761-.92.635.602-3.364-.285-1.048-.032.127V721.306l-.286 1.238-.031.031-.127.127zm.445-.762.032.159.285-1.08h-.158zm.159-.92.476-2.444-.635 2.444zm109.97 279.226-.445-.35v.191zm-.445-.35v-.095l-.888-.603.888.699zm-5.236-3.586.063.127.603.318-.666-.445zm-1.46-1.079-.698-.571-.508-.35 1.809 1.524-.286-.317zM5.944 734.888l.063-.666-.158.508v.92l.063-.508zm363.996-16.916-.603 3.333-1.524-2.412zm-153.545 4.57 2.73 2.127-.921 4.253v.635l-.286-.635-.92-1.81 1.809-2.443zm-202.93 2.444-.92.603v1.81l-.603 1.237.92-.317zm504.245 4.57-.318.286-.285.318h.285l.92 1.206-.602-.603v2.443l.063.127v.032l.54 5.014-.603-.92 1.206 4.348v.54l.317.603.92 4.887 2.127-.92.92-3.967-2.126-7.014-3.364-6.38zm-506.37.604-.603 4.855.285.318-2 2.76-1.046 1.81-.286-.92-.635.92-1.523 7.014.635-4.57.888-2.444.635-1.206.286 1.206.603-1.206.444-.603 1.396-2.444.318-1.523zm180.68 3.046 4.857 5.777.317.603.92-5.777-1.237 13.394v-1.524l-.286-.286-3.364-1.523 3.047.92.317-.634.603-2.412-.603-.92-.92-.318h-2.127l2.73-.92-3.047-1.524-.603-2.73h-3.364l3.046-.317-.285-1.809zm34.118 2.127 1.81 3.967-1.81 11.267 1.524-11.584-1.524-3.65zm-53.636 2.443-1.206 3.333.603.92 1.206-.92-.603 2.444-1.809-2.127zM9.5 739.586l-.603 4.284.318-3.65zm531.982 2.76.603 1.81v-1.206zm2.444 7.3.889 4.57 1.523 4.57.92 6.697.92 2.761.318 7.014.603 3.936v1.238l.286 11.266.317 10.347-.317 2.76.317-1.84v1.524l-.317 3.046v-.285l-.064.57-.222.953v.889l-.317 2.158v.888l-.222 2.317.222-1.079v-.317l.603-4.253v-.317l.317-2.73v-1.523l.92-12.79.286-3.967v-.603l-.285 1.523.285-2.444-.285-.603.285-4.57-.285-1.523v-6.094l-.064.317-.254-.952v-.603l-.92-7.014v2.444l-.603-5.173-.286-1.524-1.238-4.252v-1.524l-1.206-3.967-2.126-1.84zm4.634 65.38-.699 3.49.318-.92.317-1.84.064-.73zm-531.73-62.333v1.841l-.634.603zm349.144 1.524 2.126 10.98-3.65-6.093 1.524-4.887zM237.722 758.5l-2.444 1.81v.317l1.206.603zm307.726 4.57.888 2.127-.603-2.127zm-263.547 1.81-2.159 13.71 3.365-7.014 3.967-2.126 3.332-1.81.92-.634 9.998-.825.38-.064.064.032.54-.032 10.06 6.982-10.6-6.95-.444.032-10.918 2.348-3.332.92-4.285 3.047.318 3.968-10.664 10.346-.318 4.284-.285-3.967 7.617-8.537 2.444-13.71zm62.744.317-.92 3.332-3.332 3.047-.318-2.126zm9.458 3.332-1.84.635.602 1.523-3.046-.92zm192.868.635v.603l.286 1.81.317 2.157v-2.158zm3.047.603.286 1.81v-.89zm.286 1.81v.634l.317.888zM353.5 774.02l.603 1.523 2.126-.285 1.206 3.046 2.158-1.237.603.92-3.65 1.206-.317 4.57-3.65 2.444 3.047.92-2.126 1.524-2.159-.603.318 2.126-1.206.92.285-2.443-2.729-1.206-1.84 2.73-.921-3.968 1.84-9.426 3.047-1.523 1.524.888zm-328.45.92-1.524.603.603 1.238zm312.296 2.127-2.444 2.443.603-2.126zm-332.417.603 1.237.317.096.317h.19l.92 3.174.603 1.682 2.127 8.538h1.777l.159-.635.508-3.015.285.127.032-.127.286.317.634.286.889-2.73H16.195l.635.603v1.524l.603-.318 2.127-3.65-1.524 2.73-.603 1.238-1.238.285-.285 5.491v-6.094l.603.318-1.206-.92h.603l-.603-1.207-1.524 3.047-.634-.603-.318-.19-.793 2.888-.095.635h-.064l-.254.92-1.206-.92-.317.603-1.524 3.364-.19-.508-.095.19-.318-1.206-.603 3.65-.317-1.84v-.286l-.889-3.047v.92l-.634-3.967-.603-1.238-.603.318.92-.603 1.206 5.173.92 2.73.603-1.81.413 1.016.825-1.619v-1.84h.889l-.603-.603-1.524-7.617-.603-2-1.11-3.174H4.643zm237.65 2.76 1.523.604-1.523.92zm305.917.921-.318.889.318 2.761zm-534.711 1.524.888.603v1.523zm269.64 1.206-1.237 1.84 1.523.603-1.809 2.73-.635-4.57zm49.955 0 1.524 2.126-2.444 2.126zm-311.978.92 1.81.286-.604 1.84.318 1.206-.92-3.046v2.443zm527.38 4.856v2.761l.318-1.84zM4.327 792.619v.603l-.603-.317zm330.26 0 2.76 11.584-1.237 2.127 3.967 3.332 2.444 8.537-3.047-1.206-1.524-5.808-4.252-5.458.285-9.776-.92 1.238 1.523-4.57zm45.098 11.267-.603 2.126 1.523 1.524-.603-2.444zm-33.515 8.823 2.761 2.444-2.76-.603zm-10.346 4.284 1.809.286-3.047 1.84zm-2.761.603-2.127 3.967-1.809.286.286-2.126zm22.248 4.253 2.126 2.158 1.523 6.982-1.523 4.57 1.84 9.141-2.729-1.206-2.158-8.823 1.841-2.761-1.206-7.903-.317-1.237h.317zm-19.201 6.411h.317v1.84l-1.523.604zm59.412 2.444-.603 1.523.92.92zm24.089 2.73-2.444 2.126-.318 4.284-2.412 2.127-1.237-.92v3.046h-.92l-1.81 3.65.286-1.81-2.127 2.445.603 1.206-1.206.603.318-1.81-2.158 1.524v2.126l-1.206-1.237-7.3 2.158-3.047 6.093.603 11.267-4.887 5.776-1.81 4.57.604 11.902 3.332 1.81 8.538-2.127 14.948-30.15.888-4.571 1.841-1.523v-6.094l1.206-.317.635 2.443 1.523-2.443-.634-11.267-2.412-3.364.603-1.524zm-19.804.317-.92.603 1.205.92zm-68.87 21.01-4.253 1.238-5.174 5.173 3.936-5.173zM46.06 862.092l1.841 3.047-.317.889-.92-.286v-2.126l-.604.603zm397.923 8.22-1.237 2.444 1.523-1.238zm-395.162 2.444.286.889 1.238 1.84-1.84-2.126-.604.603 2.444 3.364-1.238-1.523-.286.888v-1.206L47.3 873.36zm387.545 1.523-1.523.603 1.523 1.524zM46.061 884.626H47.3l.286 1.206zm-5.173 17.36 3.364.92h-3.364l3.079 7.205.285.413 1.524 3.046 1.809 3.047.603 1.523 1.238 3.047 3.332 5.49-3.332-5.172-1.238-3.047-.889-2.158-1.523-2.73-1.238-2.126-.571-1.333-.35-.508-2.729-6.696v-.92zm274.814.603-.92 1.84-1.65-.539h-.064l1.11.857-1.523-.634.413-.223-.095-.063.158.063zM44.855 916.014l.603 1.523-.92-1.237zm14.314 6.38 1.523 2.76h-.603l1.206 3.047-1.206-2.126zm-3.047.92v1.523l.603.92-.92-.317h-.286zM86.241 973.3h.032l.095.19zm.952 1.016.984.888-.984-.793v-.095zm332.1 8.124-3.047 3.333 1.524-.92.92.92-.317-1.206 1.523.285 1.238-1.206-2.761.603 1.237-.92-1.523.635zm-308.932 7.903 2.126 1.523.318-.285-1.238-.92.92.92zm2.126 1.523.603.92.92.921-.602-.92v-.318zm-3.046-1.206 1.84 1.206.603.92.603-.317-1.84-1.809h-.603zm2.285 4.539.666.412-.222-.095-.444-.317zm33.07 3.078 5.776 2.444-3.364-2.158zm-24.374 3.047 1.523 1.206.889.318zm38.085 19.805.888.603.318-.318zm-.635.285 1.238 1.238.285.286 1.428.888.096.032 2.285 1.428 1.682.699 1.84 1.237 2.127.92 3.047 1.207-1.016-.222-2.348-.984 2.03.92-.19-.032.635.222 1.492.699h.317v-.286l3.047 1.523 3.65 1.587.92.222h-.317l.92.381 1.524.222.603.635 2.443.889 2.444.635 2.73.888 2.126.92h.317l4.57 1.524h.254l-.412-.127-.127-.127.666.254h.54l1.206.603h.603l.635.317.888.318h.635l.603.285h.603l.603.318.92.285h.604l.603.318h.634l.889.317.635.286h.603l.603.317h.603l.92.286h.603l.603.317h.635l.889.317.634.286h.603l.603.317h.603l.92.286h.604l.603.317h.634l.89.318h1.237l.603.285h.92l.603.318h.603l.603.285h.92l.604.318h1.237l.92.317h.604l.603.286h1.523l.603.317h1.238l.889.286h.634l.603.317h1.524l.603.318h1.523l.603.285h2.127l.634.318h1.206l.92.285H246.547l.603.318h2.127l.634.317h2.73l.603.286h2.761l.889.317h3.967l.92.286h5.491l.603.317h17.963l.92-.317H292.851l.603-.286h3.682l.888-.317h3.047l.635-.286h2.126l.603-.317h2.73l.634-.318h2.126l.604-.285h1.523l.603-.318h1.238l.889-.285h1.84l.603-.318h1.524l.603-.317h.634l.89-.286h1.237l.92-.317h1.206l.603-.286h.921l.603-.317h1.237l.603-.318h.603l.603-.285h.921l.603-.318h1.238l.888-.285h.635l.603-.318h.603l.603-.317H336.426l.603-.286h.603l.635-.317h.603l.92-.286h.604l.603-.317h.603l.603-.317h.92l1.238-.603h.603l.603-.286H346.487l.603-.317h.603l1.238-.603h.603l.92-.318h.603l1.206-.603h.603l.635-.317h.889l1.238-.603h.603l1.206-.603h.92l1.238-.603h.603l1.206-.603.92-.318h.603l1.238-.603h.603l1.206-.603.92-.317h.603l1.238-.603h.603v-.317h.603l1.206-.603h.635l1.206-.603h.317l1.81-.92h.602l1.841-.921h.603l1.238-.603.285-.318h.603l2.444-1.206 3.364-1.206h-.317l2.222-1.015-1.619.698 5.808-2.73-2.761 1.207.92-.603-2.444 1.206 2.444-1.81-4.856 2.127-2.443.92-.318-.317-3.046.603 2.76-1.523-5.49 1.238 1.81-1.524-2.413.889-2.761 1.84-3.333.92-1.84.604h-.603l-.127.127-1.111.19-4.253 1.524-3.364.603.92-.603-3.65.888 1.524-1.206-.92-.603 2.443-1.523-10.663-.603h-1.206l-2.159-.92 1.841-.92-3.364-1.207-6.38 1.206-1.523 1.523-1.523-.92-2.126.92h.888l-2.412.92-1.523-.92-1.524.92-10.06 1.524-2.762.92-3.332 1.524h-.317l-.286-.92-1.523.285-3.047-1.809-1.84.286-.921 1.238h-2.127l-.92-.92-3.65 1.205-3.364.635-5.459.603-5.49-.603-.92-.317-3.365-.318-3.65.318-.92-.92-3.65 1.237h-9.14l-.92.603-9.744-.603-2.444-1.84h-1.809l1.81 1.205-1.207.635-.603.286-7.331.603-2.127-.286-2.443 1.524.634.92h-2.76l-1.207.889h-2.126l1.523 1.237.286.286-.92 2.158 1.523.889.635 1.237h-1.238l1.523.92-2.92-.253-.127-.064h-.603l-.92-.317.603.317-1.523-.317.634.634-15.583-2.634h-.063l-.222-.127h-.445l-.222-.032h-.032l-.507-.254h-.92l-2.127-.634-6.697-2.127h-.317l-2.127-.92-11.266-3.65-1.238-.286-2.127-.92-.603-.317h-.126l-.89-.381-.19-.222h-.285l-.571-.254-.064-.063h-.095l-2.031-.889h-.635l-11.267-5.205-5.395-2.698 1.745.572-.603-.603-1.84-.603.57.57-.57-.285-.604-.888-1.84-.635zm40.306 17.678h-.127l.953.317zm-15.011-4.856-1.206-.635h-.318zm-3.65-1.46h-.095l.412.159zm.317.159.889.38.159.033-1.048-.413zm-.412-.159-1.746-.698 1.523.635.223.063zm-18.598-8.95-2.032-.888.603.317zm-1.429-.254 1.841.889v-.286zm35.038 14.314 2.159.603.603.222z" style="fill:#b9b9b9;fill-opacity:1;fill-rule:nonzero;stroke:none" transform="translate(0 -502.362)"/><path d="m248.66 610.093-7.018 2.148-5.448-1.218-4.294 1.826-5.16-1.217-10.992 1.826-4.55 2.436-3.334.609-4.582 2.435h-3.045l-.32-1.506-6.378.93-2.147-2.789-1.827.61-4.87 7.018-10.673 5.8-3.333 4.583-.929 5.448-.32.32-2.436 3.045-6.09 4.262-5.447 1.25-3.974 5.48-3.653 2.116-3.045 6.377-4.23 3.429-6.442 9.39-1.506 4.262.865-1.506 1.86 4.23-2.116 3.974.577 7.339-3.654 9.422-4.262 4.294 3.365 3.91-.32 2.468 3.685-.61-3.044 1.219-1.25-.898-.93 3.942h2.18l-2.18.897 3.045.32-1.506 1.219 1.826.32-.609 1.186 4.263-1.186-2.436.93 1.827.865-2.115 1.25.929 1.506 1.186-.577-.577 1.186 1.506-.93.61 4.295 1.826.897 1.826.93-.929 1.506 1.538.609.289 3.973 1.538-.288-2.115.609 3.333 3.333-.289 1.827 5.16 2.724 10.063 9.454 5.192 2.147 6.089-3.045 9.454-1.218 8.813 2.436 9.133-4.262 6.41-2.468 11.28-2.403-1.858 1.217 4.582.32 3.045 2.725 1.538-.93-1.538 1.25 2.147.289-1.538.288.64.93 1.507-.93-1.506 1.827 3.044 4.294 3.333-.32v-1.218l.61 1.218-.29-1.538.898 1.538.609-1.827 1.218 1.218 4.294-.32-.32-1.795 1.506 2.115 1.538-1.218 1.506 3.653 2.468-.608.577 1.217h-1.186l1.795 3.654-3.045 9.133 1.859.32-.32 3.045-1.539-.32 3.045 1.538-2.115.609-.93-1.218-.93 4.871h-2.114l4.582 8.237 10.063 9.742 2.116 6.089 2.435 1.218-2.115.609 5.48 10.96-1.827 3.044 2.116 4.295 2.115 4.839-.866 5.833-5.223 5.448-3.333 11.312.609 9.743 12.498 20.382 2.147 16.44 9.743 15.575 4.23 6.987.32 3.332-1.826 1.25 2.147 5.769 1.538-.897 4.55 3.044 10.352-3.333 8.845.897 8.845-2.435 13.108-9.134 4.262-5.48 1.827-2.147 4.839-3.974 3.974-10.32-.61.866-1.217-1.506 13.428-7.916 1.186-8.524-2.724-7.307.288-3.974.93.93 6.697-4.584 2.757-4.55 13.716-6.41.609-1.218 4.23-6.089-.865-8.845.865-.929-.609-6.698 1.538-3.044-2.724-2.116-1.25-.929v-.288l-1.185-7.948.897-2.115h-1.218l1.827-3.974-3.365-4.55 2.147-6.41 3.654-7.628.929-1.826 3.653-2.115-.929-1.507h2.468l9.742-12.85 10.32-8.205 7.627-9.742 10.063-23.459v-2.756l-.289-1.538 2.115-.577h-1.506l.288-6.378-2.147-.929-4.839 3.045-8.268.929-3.622 2.115-2.756-.93-4.87 2.436-6.378-5.8-2.756.32 3.653-2.115-.609-2.147-10.063-10.063-4.262-1.506-.93-1.538-.897-.898-.288 1.827-6.41-13.716-5.512-3.686-2.403-10.32.897.578-2.404-4.551-5.512-3.974-1.506-4.262h1.186l-3.045-2.436-8.204-14.325-4.583-4.871-1.09-3.654c-.011-.018-.02-.045-.031-.064a1.356 1.356 0 0 1-.16-.352c-.21-.836-.705-1.717-.705-2.788v-.449c0-.459-.058-.937-.129-1.41l-1.538.224-.897-1.859-3.654-.32-7.339 3.044-8.492-2.403-7.339-.32-1.218-1.827-6.698-.898-.929-1.858-5.48-1.186-6.41 3.044v5.448h-.288l-4.294 2.18-4.551-2.468-8.525-2.115-2.147-3.974-7.307-2.115-4.23.288-8.268-3.653-.61-1.859 4.904-3.91-2.435-3.685 2.435-3.653-2.435 1.506-2.468-2.436zm-108.095 55.218.256-.385-.93.93zm50.474-50.09.065.096.16-.096c-.075.004-.15-.003-.225 0zm-35.893 27.497L153 644.256l1.538-.641zM153 644.544l-3.044 3.045 1.826-.609zm-8.204.898-3.044.93.288 1.537zm.897 1.538-.609 1.218 1.507-.289zm198.95 17.947 1.539 4.903-4.263.93-3.974 5.159 2.436-4.871 3.653-.898zm-205.039 32.912 3.045 2.468 2.147 4.55-5.192-6.697-6.986.288zm239.49 3.654.289 1.25 1.826.288-1.826-1.538zm-198.982.929 1.539 1.827-1.218.288zm80.471 7.948.866 3.044 1.858-.93v1.507l4.263.609-5.48 2.756-3.365-6.41zm109.346 7.595-.577 3.333-1.538-2.404zm-153.539 4.583 2.724 2.115-.897 4.262v.641l-.288-.64-.93-1.827 1.795-2.436zm-24.356 10.672 4.84 5.768.32.609.93-5.8-1.25 13.395v-1.506l-.289-.288-3.365-1.539 3.045.93.32-.641.609-2.404-.609-.93-.93-.32h-2.114l2.724-.897-3.045-1.538-.609-2.724h-3.365l3.077-.32zm34.099 2.115 1.826 3.974-1.826 11.248 1.538-11.569-1.538-3.653zm-53.616 2.435-1.217 3.333.609.93 1.185-.93-.577 2.436-1.826-2.115zm193.47 16.44 2.116 10.993-3.654-6.09 1.538-4.902zm-128.254 4.295-2.467 1.795v.32l1.218.609zm44.162 6.377-2.147 13.717 3.365-7.019 3.973-2.115 3.333-1.826.898-.641 9.998-.802.385-.064.064.032.545-.032 10.063 6.955-10.608-6.923-.449.032-10.896 2.34-3.333.93-4.294 3.044.32 3.941-10.671 10.352-.32 4.294-.29-3.974 7.628-8.524 2.436-13.717zm62.749.32-.93 3.334-3.333 3.044-.32-2.115zm9.454 3.334-1.827.64.609 1.507-3.045-.93zm-.61 5.48.61 1.538 2.147-.288 1.185 3.044 2.18-1.25.577.93-3.654 1.218-.288 4.55-3.654 2.436 3.045.93-2.147 1.538-2.148-.61.32 2.116-1.217.93.289-2.436-2.724-1.218-1.827 2.724-.93-3.974 1.827-9.422 3.045-1.506 1.538.897zm-16.151 3.044-2.436 2.436.609-2.115zm-94.764 3.365 1.538.61-1.538.929zm40.86 3.654-1.25 1.859 1.538.576-1.826 2.756-.641-4.582zm49.962 0 1.506 2.115-2.436 2.147zm1.186 8.524 2.756 11.602-1.218 2.115 3.942 3.333 2.467 8.556-3.044-1.217-1.538-5.801-4.263-5.48.289-9.775-.898 1.25 1.507-4.583zm45.09 11.281-.577 2.115 1.507 1.539-.61-2.436zm-33.49 8.813 2.757 2.468-2.756-.61zm-10.35 4.295 1.794.288-3.044 1.827zm-2.757.608-2.147 3.974-1.794.289.288-2.147zm22.241 4.263 2.115 2.147 1.539 6.986-1.539 4.551 1.86 9.166-2.757-1.218-2.147-8.813 1.859-2.756-1.218-7.916-.32-1.25h.32zm-19.196 6.41h.32v1.826l-1.538.609zm59.416 2.435-.61 1.506.898.93zm24.067 2.724-2.435 2.115-.32 4.294-2.404 2.115-1.25-.897v3.045h-.93l-1.794 3.653.288-1.827-2.115 2.436.577 1.218-1.186.609.32-1.827-2.178 1.538v2.115l-1.186-1.217-7.307 2.147-3.045 6.089.61 11.28-4.904 5.769-1.795 4.583.61 11.89 3.332 1.794 8.525-2.115 14.934-30.157.897-4.55 1.86-1.539v-6.089l1.185-.32.64 2.435 1.507-2.435-.609-11.249-2.435-3.365.608-1.538zm-19.805.32-.897.61 1.186.897zm-68.87 21.023-4.23 1.218-5.192 5.192 3.942-5.192zm113.063 15.543-1.25 2.436 1.539-1.25zm-7.627 3.974-1.506.577 1.506 1.538zM315.704 902.59l-.93 1.827-1.634-.513h-.064l1.09.833-1.507-.609.417-.224-.096-.064.16.064 2.564-1.314z" style="fill:#b9b9b9;fill-opacity:1;fill-rule:nonzero;stroke:none" transform="translate(0 -502.362)"/><path d="M551.04 777.373c1.493-111.812-73.22-219.508-178.598-257.054-98.938-37.903-218.41-11.604-291.525 65.307C5.699 660.26-18.071 780.042 21.716 878.063c38.902 102.116 143.798 174.18 253.124 173.48 112.418 2.416 221.248-72.392 258.929-178.448 11.367-30.545 17.348-63.119 17.27-95.722z" style="fill:none;stroke:#aaa;stroke-width:1.52339005;stroke-linecap:butt;stroke-linejoin:miter;stroke-miterlimit:10;stroke-opacity:1;stroke-dasharray:none" transform="translate(0 -502.362)"/><path d="m392.288 716.92-11.783-9.072-7.002-.328-2.326-1.624-1.23 3.617-4.404-.643m67.154-52.842 1.22 1.828m-35.953 36.561 7.922 3.352.61 4.875 7.92-12.188 21.328-7.921.305-8.836-2.437-3.047-11.578-1.218-7.922-10.969m-.914-7.312-6.398-6.398m11.273-56.975 6.398-.914 4.266 3.046.304-.609 1.219 2.133m13.101 18.585-1.218-2.437-15.234-7.617m-52.71-4.57-4.875.609m-2.742-6.398-9.445-2.133-1.828.61m22.242 5.179-5.18-2.742-3.351.304-2.438-1.218m28.945-36.257 2.133-.61m-92.013-3.046h-.61m1.828-.914-1.218.914m-.61 0-1.828.304m0 0 .914.915-1.523.914m12.187-1.829-7.922-1.218m-4.265 3.047-.61 2.437-6.398.305m-7.312-5.79 2.437-.913h7.617l4.875 2.132M109.13 992.393l1.828 1.22m.914.609 8.836 6.398m-16.453-11.883-.304-.304 3.351 2.742 1.828 1.218m-55.147-68.857 4.266 7.008m4.57-1.828-1.523-2.438-.61-1.523-2.437-2.742-5.18-4.875v.914l-3.047-3.961-.914.305m-.304-.914.304.914 4.875 9.14m-13.101-10.054.305.914 2.742 4.57 7.617 11.578 2.742 3.96 2.133 3.352 2.132 3.047 5.18 6.398 10.664 12.797.61.914 7.616 7.617.61.914 3.046 3.046 3.656 3.352 2.742 2.437 4.57 4.266.61.61m222.72-67.944-.914-.61m-.305-1.218.305 1.218m.914.61 2.133.914 1.218-2.133 2.133-.61m56.366-86.223 1.828-.915m-53.319 53.015.61.609m-13.711 10.664-2.438.61m25.593 9.14-.304-3.961m17.976-62.764v-.305zm-44.788 61.24 1.523-3.656m3.047 20.718.914 1.524m-9.445-54.538-13.101 2.438m52.71-3.047-.61 4.57m-58.803 28.335v7.312m35.952 9.14-4.265 1.22-3.352 3.046m57.28-81.349 6.703-3.351m-50.882 52.709 8.227.914 5.484-4.57m-20.414-3.961.914 4.875 5.18 2.133m-25.288-18.281 1.523 2.437 7.312-3.351m23.765-9.75v1.524l11.273 3.351v3.047m-4.265 17.976.305-3.352 2.742-2.742-.914-4.875 1.523-2.437m-9.14 17.976 2.132 9.14-.609 5.18-.914 1.523-3.047-.304-1.828 3.656 2.742 2.133h1.828l.305-2.133 3.656.304m-17.976 13.102 1.219-.305 1.523-2.437-2.742-3.047m-8.226-17.062 3.351-4.875 10.36-5.789m-21.633-21.023 3.656.305 4.57 8.836 6.703 4.57m-34.733 15.234v3.351l2.742 3.047v6.093m12.797-39.303-10.382 1.776-.587 16.2h-4.265m16.148-19.5-6.703-6.702.61-14.625h9.14l.304-10.054m3.961 66.724-3.656.914-7.008-2.133-4.57 5.79-5.789.913m4.266-38.998-6.399-.61m23.765-.61 7.922.915 3.96-4.57 4.266-1.828.914-2.743 6.703-1.523-.61-3.047 13.712-4.57m6.702-18.89 1.829 7.617m15.538-.914-2.133-.61-2.437 2.133-7.008-1.523-5.484.914-1.219 3.047.61 5.18 5.18 7.007-.915 5.484-3.047 2.438.305 2.437-3.96-5.484 1.827-6.094h-3.96l-3.961-4.57 1.828-4.57 2.437-1.219-.914-7.007 1.828-1.524-1.218-2.742m-21.937 0 .609 3.351-1.828 3.961 2.742 3.961 3.656-.914-.304 6.094-3.657-.305-7.921-8.531-2.133 2.133-3.351-.61-3.047-1.218v-2.133l-4.875.914-1.219-2.437-8.226 1.828.304-4.266-.914-1.828m-10.968 74.646-.305 8.531m0 0-3.656 2.133-3.96-.305-3.352-.609-1.524-3.047-4.094 4.28m17.196-30.482-.305 8.836m.61-27.117-4.876-.304-2.132-2.133-20.414.304-2.742-2.132-8.417 1.77m131.812-99.572 3.351-2.742 4.875 1.523 7.617-4.57h5.484l11.578-14.625h-3.96l-15.235-6.703-1.828-2.742m-59.107 54.233-1.524 1.523m21.937-9.445-.305 6.094m2.743-10.054-2.438 4.265m-21.937 9.14-1.219 4.875m24.68-35.038 4.265-2.133 1.828 2.133m-23.46 33.515 1.523-1.523-1.828-4.875m.61 33.82 9.75 5.788m5.788-64.897 4.266 8.227.304 3.96-2.133 2.743m6.094-16.758h-7.008l-3.96 3.961-5.79 1.219-4.874-1.219-1.524 1.219m-6.702 38.085.609 8.835 5.18 8.836-8.532 1.524m1.829-24.375.914 5.18h1.523l5.18-7.008-1.829-.61.61-2.132-2.742-.61-1.22 2.438-3.046-.914.61 3.656m18.28 31.382-1.828-2.742 6.094 1.523.61 1.22m-.915-95.06-.305 6.702-3.96.61-.61 3.046 3.047.61 4.57 4.57 3.047 6.398 2.437.305.61 3.656 4.875.914 4.874 3.656 6.399.914 1.828-1.523m-76.17-29.859.61.61-.61 5.484h3.352l-.305 1.828 5.18 2.133-.305 1.828 5.789 3.96.304 2.743 3.656 1.828 2.743 5.18 3.046 1.523 5.485-1.828 6.093 5.484-.61 5.18 2.438 1.523-6.093 6.093-1.828 10.664 5.484-1.828h15.234l15.843 9.445v2.438l7.008 5.484m-79.217 25.288-1.523-2.742.304-10.054-8.53-.914m41.74 6.703-2.742 3.656.914 3.351m-125.528-77.388-.914.304m-1.828.61-2.437-2.438m58.193 59.413-3.656.914m-45.397-59.413.305-7.007m48.444 59.717-3.047 1.828.305 3.351-1.524.305m-49.967-75.256.914 4.57.61 13.102m37.17 18.585 7.008.914.304 5.485-8.835.304m-27.117-42.96-2.132 4.266-1.524.305-.61 5.484m-10.358-10.054-.61 2.437 1.524.305v13.406m69.467-4.57-5.18 7.007 3.047 10.359 4.875 4.875.304 5.484-7.617-2.133h-6.093m23.46-1.218-2.437 14.32-7.313 7.617-1.218 8.53-6.094 4.57-1.219-3.046-4.57 3.047-3.047-2.438-3.656 3.047m-3.351-34.429 9.14-.304-.304 4.875 5.18-.61.913 2.438-2.742 4.874 3.047 2.133v3.656l-1.828 5.18-1.828-1.828-1.22 1.523-2.437-.304-1.523-2.438-.914 2.438h-4.265l1.828 6.093-2.133-.61-1.828 2.134m10.359-66.42-8.226 16.148-1.828.609-2.743-3.352-3.656 1.829-4.57 4.57-1.523 5.484m54.537 56.06-2.133-.304-.914 4.57-8.226.61-3.351-4.266-1.828-6.093-16.148-.305m-60.327-79.826v-.305m0 1.828v-1.523m1.523 3.047-1.523-1.524m16.453-5.18 2.742-8.53 6.703-1.828m-15.234 10.359.305-2.742 2.132-.61m-2.437 3.352-4.266.914-1.523 2.133-4.875-.305m3.961.61-.61 2.741 2.438 1.829m57.28-17.367-.914-3.656 9.445-10.969 2.437-15.843-3.351-5.18-.914-6.398m-56.67 48.14 3.35 3.35.915 5.18-1.524 2.743m-14.32-1.22-.304 1.22m24.679-18.281 3.96 1.219 2.133 3.046 3.961-1.828 8.531 2.742 4.875-2.742 8.226 1.524 5.485-3.047 2.437 6.094 2.133.914-.305 3.351-3.96 2.133-2.438 4.875m-76.17 24.588.914-1.433m.61-2.133-.61 2.133m2.133-17.366.305 2.742-3.656 7.617 1.828 4.874m-31.687-14.015-5.789 7.617m38.694-14.624.305 5.789m-29.554 6.398-1.523-5.484-4.266 1.523m13.101-.61-2.437-.304.914 2.133-1.219 2.132-1.828-.609-2.133 2.133-.609-.914m-16.148-7.617 3.656-3.961 5.18-.61 2.437 4.57-.914 3.657m9.445 3.351.61 2.438-1.524 2.437 4.875 3.352-.61 7.007m-.609-26.811-.914 2.437 1.219.305.61 4.875m21.936-5.18-2.132-2.133-6.399 1.219-1.523-1.523m216.627 28.64-3.961 5.484m0 0v17.671l2.437 3.656m-64.287-31.991-9.14-1.524-1.219 1.524-4.265-.305-4.57 2.438-2.438-.914-2.742 3.046-8.226-1.218-2.742-1.828m5.484-24.68-3.656 3.961-1.828.305m-15.234 7.312 4.265-2.132m3.96 23.46-.304-2.742-8.53.61-2.133 6.093m2.742-25.289-1.22-1.523-4.874 1.523-1.523-4.57-5.79-5.18 1.22-1.827h7.007m20.414 24.679-2.743-1.524-4.265 3.656.61 4.266m6.398-26.812-4.875.61.61 1.218-2.438 3.047-4.266.305M198.4 723.667l-.61-.305m-57.28-5.18v-1.827m17.672 1.828.305-1.219m-17.976 1.219-1.22.61m15.844-69.772h16.758m1.828 77.693-3.047.914m-12.187-10.664 1.828 2.438m10.359 8.226.304-2.133-1.828.305m-21.632-19.195.305 4.875m37.17-50.882 17.672 14.016m-4.265 49.053-12.797.305m-35.647-6.399v1.828l1.523-.914 1.219 1.524m0 0 1.523-1.524 3.961-.304m25.593-4.57 4.875-4.875 1.828.61.305-1.829 5.789-2.437 3.046.304M169.15 725.8l-1.828 2.437-1.828-1.523-2.437 1.218m-28.64-3.656 1.523-2.437 3.961-1.219-.61-1.828m46.617 5.18v4.875m-9.75-25.593.914-3.961-.914-.914 1.523-37.78h7.313l-13.406-9.75m4.57 52.405-16.148-.915-.305 1.22h-5.484l-.914 1.523-2.133-2.743-2.742 4.266m-18.585 5.484 6.093-1.218 4.57 1.828-2.132.914-3.047-1.524-6.398 2.438m31.382 4.875 1.523 3.046-1.219 1.828 1.524-.304 1.219 3.656-.305 1.219m-15.539-17.367 2.742 3.351-.304 2.742-15.539-1.218-5.789 1.523m19.804-11.273-7.921-8.836-7.617.61-1.22 2.132m44.18 28.336-2.133-2.133 1.828-4.57-.61-1.828 4.57-2.438 2.133-5.484 2.133 1.219m-50.272-34.43 1.219-2.437h14.624l1.219-7.007 4.57-2.438 2.438-10.968h12.796l2.742-11.578 12.187-5.484m231.861 23.156.305-.305m-17.976-22.851 1.219.61m25.593 17.975 2.132-.609m4.266-1.219 1.219 1.828m-35.952 36.562 7.921 3.351.61 4.875 7.921-12.187 21.328-7.922.304-8.835-2.437-3.047-11.578-1.219-7.921-10.968m11.882 28.64v1.828l6.094 9.14m-36.866-55.147-3.352 1.523-3.351-1.828m24.679 8.531-6.399-6.398m-10.359-5.484-.914 3.656m35.648 12.187 2.437-2.132 1.828 4.265m-40.522 66.725-4.875.304-.305-2.437 2.438-4.875 2.742-.914m-11.273-76.779.304 1.828 1.524.61m12.492 52.709-4.875-.305v3.656l-1.524 1.219m11.273-53.623-11.882-3.961-2.438 1.218-3.046-1.218m48.139 29.249-.305-5.484 1.524-.61-1.524-3.351 1.524-.61m-33.21-21.327.61.61m-6.4 88.965L393.7 725.8l2.438-3.961m-38.39-53.014-6.094 5.789-3.656-.914m3.047-34.43-.305 1.829m-38.39 32.6h27.422l.61-.913.304.914h7.312m1.524-34.429.914 2.133m-41.741 43.569.61 17.367-4.876.609-4.875 12.796 3.047.914 2.133 7.922-5.484 1.219-2.438 3.047m12.492-89.576 1.219 3.047 2.437 40.217h-4.57l.305 2.438-18.28-9.14m60.325-33.82 4.57.61 2.133-2.743 2.743-.609M198.4 724.276v-.609m67.334-8.226-2.438-1.219m-43.264-27.726 7.007-1.219 7.617-6.398m-19.194 24.984-15.844 1.523m35.038-26.507 20.414-11.882m-54.538 38.39.914 5.179 3.352 2.437-1.523 1.524 2.742 1.828 2.437-.305.914 3.96m61.545 8.836-2.742-2.437v-7.008l-2.437-3.96m-50.272-11.578 3.351-4.875 1.219-12.492-4.266.914v-3.96l-5.789-1.829-7.312-7.007m87.748 1.218-17.672-8.835-7.921 3.96-3.047-2.437-6.703-1.523-1.523-3.352-5.79-1.523-3.35-6.703 2.132-1.524.914-5.484-1.828-9.14m-53.014-23.46v-.305m-7.313 23.765 9.14-3.961v-3.047l3.962-1.523h6.398v-10.664l-1.523-1.219m196.213 20.414h-3.047m-28.335-7.922 15.234 6.398.304 1.524m-7.921-37.78-2.133.914 3.047 3.96-.305 1.524 6.398 7.312 3.656.914-.914 7.008 3.656 3.96 5.485 2.438 2.132 2.437.61 3.352h1.218l.61 1.828 2.437 2.133m-54.842-4.875.61-1.523m1.218-6.094 1.828-.61m14.93 3.961 2.742 1.22m-17.367-3.352-1.523 3.046m.304.61-.304 1.828 2.132-.305.305 1.524-.61 4.57m-4.57-5.484 3.047 5.484m-39.303-6.703-1.22 6.093.306.61m50.881 0h.305l1.523-2.133-4.875-3.96 8.227-3.048-3.047-4.57-6.399 4.266-4.874-1.828m-104.81 10.359-1.22-7.617-2.741-1.828-2.742-5.485 3.351-3.046.61-7.008 1.828-1.828m.304 27.726-.304-.305 3.96-2.742.61-3.96 5.484-3.048v-2.742m292.796 119.13h.305l-.305-1.22.61.915.609 4.265.304-.61-.304-2.437m-4.57-15.538v-2.133m3.046 16.757h.305m-263.852 16.148-1.523 3.047m263.547-44.788v.914m-15.234-46.006.304 1.219m-1.218-2.438 1.218 2.438m15.844 50.576.304 1.219-.304-.914.304 1.523m-4.265-20.718.305.61-.305-.61m-5.18-14.015-.61-3.047.61 1.828-.304-1.523m8.226 27.42.305 1.524m-15.234-45.092.61.914 1.218 5.18.61.913m7.007 15.844.61 1.828m5.179 21.327v.305l.914 3.96-.305-.913.305 2.437m-13.71-44.788.913 2.742h.61l2.742 8.836.304.305m-2.437-9.75.61 1.828 1.218 2.438 3.047 9.445m5.18 23.155-2.133-8.835-.61-3.657h.305m-12.797-36.561 1.524 3.351v-.304l.61 2.132.913 1.829.61.914-.61-1.524.61 1.219.304 1.219.914 1.828.61 1.828-.305-.305m2.133 7.008-.305-1.219.305.305 1.523 4.265 2.437 7.922 1.829 7.007.304.914-.304-1.828-.305-.609m-11.883-32.296.914 1.828h.305l-2.437-5.789.304.305-.609-1.523.914 1.523-.61-1.828.61 1.523-1.219-3.96.914 2.132.305.305 1.523 3.656v.61m12.492 54.537v-1.828m-14.624-53.624v.305m-36.257-34.429 10.054 8.836-.304-1.219 3.351 1.219m4.57.61.914-.61-.914-3.047-.305-3.047m-3.351 11.883 2.133.61-3.047-6.704v-.61l3.656 5.485 3.352-.61-2.743-4.265-2.742-1.523.61 4.265m6.703-3.96-.61-1.22.914 1.22 1.828 3.046.305-.304 1.828 3.351 1.828 4.266.914 3.046 2.133 5.18.61-.914 1.827 4.265.914.914.915 3.657.914.304m-18.89-31.382 1.218 1.22-.304-1.829.609.914.61 1.523v-.609l.913 1.219.305 1.523 1.523.914.914 2.438 1.22 2.132-1.22-.609.61 2.742 4.57 11.883-1.219-.914 3.047 7.921v1.219m-33.515-34.429-.304 1.22 1.523 3.655 7.617 5.484h2.133l3.351 3.352 3.047.914m36.866 73.123-.914-6.703-2.437-9.75-2.133-5.484-1.219-6.094v.61l-3.96-10.36.304-.304-1.828-5.484.61.304-.61-3.046.305.304m-12.797-5.789-2.742-7.007-1.523-1.828-.914-2.742-1.524-1.828v-2.438l-2.133-2.437-1.218-3.352 2.437 2.438v-.914l2.133 4.265 3.656 1.523.914 5.18 1.828 3.352-.914-3.352h.305l4.875 10.664-.61-.61.305 1.22m-49.967-13.711-1.524-.305-.61 3.047m3.048-27.117-.305 8.531-2.133 1.219-1.828-1.523-.61 3.656.61 1.828 2.133.914.61 2.437 2.132 1.219 3.047 5.484-4.57.61m-17.672-24.375.305.61-5.18 1.828-10.359-1.828m9.445 19.804-.609-4.57 3.351-1.524-.304-2.133-2.133-.609-1.523-4.265-3.047-1.22-5.18-5.483v-.61m35.648-48.748h.61l4.57 3.96-2.438-3.046m10.054 46.92 1.524-.61 1.828 1.524m-35.648-47.53.61.61m-17.976-25.898 1.828 1.219 1.523.304-.305-.914 2.742 2.133m40.523 66.42 3.351 2.742v.914m-40.522-72.818 2.437.61-.609-.61m-4.875 2.437-.61-2.437m4.266 16.148 1.219-1.219 1.828.61-1.523-1.524-4.266-5.18 3.352 1.22.304-.915-4.265-4.265.61-.305-1.829-1.828.914-.305 2.133 1.829 4.57 2.132 3.96 3.047 5.79 5.789 3.047.914 3.656 2.133 5.484 5.484 2.133.305m-18.281 2.742v-.61l-1.828-2.132-.61-1.828-5.179-5.18-1.219-.61m-7.921 16.758h-.305m-3.96-3.352-.915-.609m5.18 3.656h-.914m3.351-1.828-.305.914m-9.14-2.437 1.828-.305m-7.007-4.265.914 1.523h.914l3.351 3.047m-23.46-12.187 5.789 3.96m28.944 11.883 1.219.914zm-1.523-11.273 3.96 1.828m25.289 39.608v3.047m-56.67-45.092 6.398-.915 4.265 3.047.305-.61 1.219 2.134m-3.352 8.53-3.656-3.96-1.523-.305m19.195 7.008v-1.219l2.132.305-.304-2.133m0-.305-.914-2.132 1.218.609.61-1.523 1.523 1.218m-4.265 5.18 2.437 1.218 2.437 3.047.914 3.656m1.22-8.53 1.523-.61 2.742 1.523 2.132-.914m-15.843-5.788.305.914 1.828.609-.914-2.742 1.828-3.047m5.18 7.312-2.743 1.219.914 1.219 3.047.304m1.524-11.882h6.093l2.742 1.523m-16.757.305-.61-1.523.915-.61 4.57 1.524-1.524-2.133.61-.914m-.61 10.054 3.657 1.219 1.523-2.437-2.742-.61m0 0-2.438-2.133.61 1.524-3.656-1.524.609-2.132-.914-.305m1.828 17.976-1.219-2.437-15.234-7.617m45.702 17.062v3.351h-6.093l1.218 2.438 1.219.304.914 3.047 4.875 3.656m-53.014-34.124-3.656-.61-1.828-2.741-.305-.305M433 616.725l-2.437-3.962h-2.133l-1.524-1.218m47.835 21.327 1.219 2.133v4.265m3.656-13.71 2.742 2.437-.305 1.524-1.523-.61 3.351 4.875.305-.305 3.047 2.133M462.25 611.24l-4.875 2.133v1.523l3.047 3.351-.305 2.743 1.22 1.828h-2.743l2.742 3.046-1.523.914 1.828 4.57-5.18 3.047.914 4.875m-15.234 0 .914-4.265-.914-1.524-2.742-.304-3.656-6.399.305-1.828-1.524-.609-.914-1.828.914-.61-1.523-5.179 4.57 1.523v-2.437l2.742-1.523-.914-3.352 1.524-1.828 7.007 2.437 1.219-1.523 1.219.914.609-5.18 2.742 2.133 3.352 4.875 1.523-3.047 3.96.61m-11.882-27.421h-.304l.304-.305m28.03 41.436.915 1.524-2.133-3.961-2.133-1.219-2.437-3.351-4.57-1.22-2.438-3.046-4.265-1.828.914-1.219-3.352-3.96-2.437-.305-2.437-3.352-.305-3.96 3.351.609-.914-2.438h2.133l.914-3.046m-89.27 17.062.913.914m28.335-28.64 5.18-2.133 3.351 1.524m-.914 13.405-7.617-12.796m-25.288 12.796-4.875.61m-3.047-29.554.61 4.875 2.132.61m6.703 29.248 3.352.61 2.437 2.742m-15.538 18.89 3.351-2.133-1.219-7.312 3.047-2.742m6.398-17.976 5.485 2.437 1.218-2.133m-10.054 1.828 4.875.914-1.523-3.046m-10.969-3.657-9.445-2.132-1.828.61m51.795 7.311h-1.523l-5.789-3.656-3.656 2.133m-27.116-21.937.914 1.219 4.57 1.219 2.437 2.132-1.219.305 2.743 1.219m-.914 15.234-5.18-2.743-3.351.305-2.438-1.219m4.266 21.328 1.218-.914 4.57.305 1.22 1.218 1.218-.61m3.351-6.702-.914-2.437-3.656-1.524.914-.914-4.57-3.96m-3.96-28.945h.304-.61m5.79 35.038 5.788 3.047 4.266-3.352 1.828 1.219-.305 2.133 3.352 1.523m-28.03-11.273 3.96-.305 3.656 2.438 1.219 2.742 4.265 1.828m40.218-9.445-4.875-1.828-.914.61 1.828.913-1.828-.61-1.523 2.134 1.523 2.437-3.047-.305m19.804 16.148-3.046-2.132-6.094-1.524-1.523-1.219-4.57.61-1.22 2.437-2.132.305m-38.085 0-7.312 2.133m-.61 13.406 3.657-2.133m-3.047-11.273-2.438.61-9.445-.61.61 2.132-2.438 1.22m96.583-54.843 2.743 1.523 4.57 3.657-.914-.914 1.523 1.218m-21.937-2.437.61.304-1.22-1.523 3.352 1.523m0 0 1.22-.609 5.179 3.047m10.968 0-.914-.914-2.742-2.133-3.656-3.656 1.218.914m.61 5.789-1.219-2.742 2.438.914 2.132 1.523.305.305m-51.795-3.96-.915-.61m-3.656-7.922h.914m.914 7.617 1.828.305m-2.742-7.922.914-.61m24.984 3.048 7.922 4.874m-14.625-5.18h1.219v-1.827m-19.5 7.312-2.742-1.219m7.008-9.445h3.351m0 0 3.047 1.828 1.219 1.22m-11.883-.61 2.133-.61m17.367 1.524.61-.914.913 1.218 3.961 1.828m-22.85-3.656 2.741-.914-.304-.914m7.312 3.047 2.133.305-.914-.914 2.132 1.523 1.524-.61 1.523 1.829m14.625 5.18 3.351 2.437m-33.515-1.219.61 1.523-3.352-.304m-2.742-3.352 1.219-.914-1.828-1.828 2.437-.304-2.742-.915v-.609l-1.523-.305-.61-.914 3.961-.609m-3.047 9.14-.609-.304m.914 0-.305.304m-11.882-1.218h-1.828m6.703 2.742-4.875-2.742m-12.797 3.351.305 1.219m10.664-4.57-1.219-.914-.914.914-3.047-.914m23.765 2.742v1.219l-4.57-2.133m-.914 0-.304.914-2.743-.61-.609 1.524-3.656-1.524.914 1.524m-13.71 1.828-3.961-1.219m5.788-4.265-3.351 3.351 1.828 2.133m-151.73 24.07-5.18-2.438m-24.679 4.875h6.399l1.523 1.523-3.047 1.828-2.132 4.875-1.828.305 1.218 2.133-3.656 7.007m159.956-42.96.61 1.22m0 .304v-.305m-.915-1.218h.305m-59.412 21.327 1.218.61-.914 1.218m8.227.914-6.094 1.524m22.851 10.359-.305.61m-3.351-5.485-.61.61m3.352 5.483v.914m6.094 7.008h.609m-10.054-12.796.304.914m6.703 10.359.914.304m-5.789-9.14h1.219m-.305 3.96.305.915m3.047 2.133.61.914m.913 1.828.61.914m2.132-35.648.914.305m21.937 3.352-.304.914m-22.242 31.381h1.523m-6.398-5.18v.61m32.6-38.085.915.61m-33.21 1.218h-1.219m10.36 42.046 1.218.61m-14.93-44.179-2.742.914m2.743-.914 3.351 1.524m33.515-1.829.304-1.523m-1.218 3.96-1.828.915.304 1.523m1.524-2.437h2.132l-.304-1.828m-31.992 21.632-3.656-.305-2.132 1.219m30.163-27.116 6.093.914m-27.42 9.75-4.266-4.875m25.288-6.094.305.305m-42.046 28.64-.61-2.438-1.827-1.219 2.132-3.047-2.437-2.132.914-1.524m-8.531 15.844.914.609 2.742-3.656-3.351-6.703h-.61m3.656 5.789 11.578-2.438 6.094.914.914-1.523 1.523 1.219-1.828 2.437m-23.155-25.288 4.57-1.524 4.875 2.133m-2.438-1.523 2.133-1.828-.914-1.828 1.828-1.219m-8.836 12.187 3.047-.304 2.437-4.266 3.352-1.828 5.789 1.219 5.484-1.524 5.18 3.961.914 4.57 5.484 1.219m-32.296-3.047h.61l4.57 3.352-.305 1.218 4.57.61.914 2.742 8.53.61 5.18-1.829 5.485 1.524m-30.164-17.977h.305l4.57-.914 3.047 1.22m-18.89 8.225-3.047 1.22-.914 2.437-6.093-.305m17.671-1.219 2.133 2.133-1.524 1.219m.914 4.57 2.743 1.523m-5.18 2.133 1.523-3.656 2.133-.305-1.219-1.219h1.22l-1.829-1.218.914-1.828-12.187-.914 1.523 3.351 7.922 5.789zm-38.39-4.266h.305m4.266 8.531 1.523-.304m1.828-3.961v-.61m25.898-17.975-.305-.305m-24.374 3.351v-.609m32.296 25.593 1.523-.305m-35.343-10.664-.609-.914m-27.116 2.438-.914-.305zm5.18.305-5.18-.305m19.804-24.68-.914 1.22m-19.5 23.155-4.875-.304m48.749-20.414 2.742.61 1.219-1.22 4.57.61 1.828 2.133m-11.273 8.226-.914-2.133 1.219-.914-4.266-.609-.61-1.219-5.788.61m-17.672-9.75h-.304m6.398 1.523h-2.742l-.914-1.523m42.35 1.523-6.093 2.742m10.968 20.414-1.523-.305-.914 2.742m2.437 7.313h.305m-43.874-21.633-.914-1.523-2.437.914 3.96-4.265 5.18-1.22 3.656.915m20.414 2.133 1.523-.305-.305-2.438 2.438-.914 4.57.914 4.265-1.218m-32.905 1.828 1.219.914 1.219-.914 2.437.61 3.351-1.22 2.438.915-.61-2.133 3.352-2.133-3.351-2.133-.915-1.523m-18.28 20.109.61-1.219-2.438-.61-.61-2.437 2.133-1.219-.914-1.218 3.656-.305 2.133-1.828 1.523 2.133 1.22-2.438 2.741.914 1.219-2.132-3.047-.61.305-1.523m-6.094 0 2.742-4.57-5.484-1.524v-1.523m22.242 10.968 2.742.61 5.484-1.828 5.18 3.656 7.312-1.219m-6.398-12.187 2.437 1.828 1.523-.61 1.828 1.22m-73.732-17.367-3.351 1.828 4.265.914m88.662-16.758-.305.914m1.828 1.828.61.305m23.46 21.632v.305m-22.546-12.796h-.61m-1.218-8.836.914-.305m14.015 14.015v.61m-11.883-6.399-1.218.914m-.61 0-1.828.305m15.539 4.57-2.133-1.218m-12.796-8.227.609-1.218m23.46 16.757.305 1.523m-7.922-2.132-2.437.304m-14.015-19.5.609 3.048m-10.968 9.75-.61-2.133m0 0-3.96-.305m28.944 9.14-.305 2.133m4.266-6.398-3.047-.914m-4.875 7.007 3.656.305m10.664 0 3.351.914m-28.335-13.406.914.914-1.523.914m19.195 4.266-3.656.914m0 0 2.132 3.047m-17.671.609 5.789.914m-5.789-.914-5.484.914m19.5-8.226-1.829-3.352m-18.89-31.382 1.828.61.305 1.218 2.133-1.523m6.702 29.858-3.046-3.656m5.18-12.796-6.094 5.18m5.484 24.069 5.484.61m.914-12.188-7.922-1.219m-3.046-3.656-5.485-1.523-2.437.61m24.374 15.842 5.485-.914 2.132 1.524m3.656 2.742 1.829 1.828 5.18-.305 1.827 1.524m-37.78-14.625-.61 2.438-6.398.304m-7.312-5.789 2.437-.914h7.617l4.875 2.133m-5.18-29.554.305 1.219 2.743.914-.915 1.523 5.485 5.484-.914.915 4.265 1.828m-14.015-13.711-2.437.61-1.22 1.827-4.265-.304-2.132-.914-1.22.61 5.79 1.827 2.133 4.57m-7.922-6.398-.914.914m14.015 45.093 2.133-1.828-3.656-5.18 1.828-2.437-3.047-3.657h-8.226m-31.992-1.828 4.266.914M244.1 565.842l-.305.61m.61-2.438-2.438-2.133-4.875.305m33.82 1.524-.305-5.18-1.524-.61.914-1.218m-31.991 9.75-3.656-3.352m6.398 3.352-.305-.61-2.132.61m44.483-45.093v.305l-3.352-.305-.304.914h-2.133l-2.438 3.047-1.828.305-2.132 3.046.914.914-3.047.305-1.828 1.524-.305 3.351 1.524.914-1.524.914.305 2.133-1.524.61-.914 2.132h-2.132m.914 24.984-.61-1.22m23.46-11.882h-1.218m-40.218 13.102-.304-3.352.914-2.133 3.351-1.218-.914-.914 2.133-2.438-2.133-.61m14.93 9.446 9.444-1.828 3.657.914.609 1.828.914-1.219 2.437.305 1.524 1.219m14.32-47.835h.61m-.306 0h-.609M34.177 879.357H32.35m9.444 22.851 3.352.61m-2.133-7.922 1.219.305 3.047 6.398m-21.632-34.733 2.741 2.437 2.133 5.18 1.829 5.179m2.132 9.445 4.57 5.18 2.742 7.921m-7.921-13.71.914.914m-.61-10.055 1.524 1.524 3.047 7.007 1.828.305 3.96 10.36.61 4.265m2.133-1.22-.305 4.571 1.828 7.312m-27.421-60.326h1.828l1.219 4.57 2.437 4.266 2.133 8.835m-.914 9.445-3.656-11.577 1.219-1.829m.609 15.844-1.219-4.57 1.523 1.828 1.524 3.046-1.22-3.96h.61l4.876 7.921 1.523 1.524m-24.68-60.022 1.829 7.312 3.351 14.32.914 3.352 1.22 3.96 1.217 4.266.306.914M7.975 823.906l.914 4.875.61.609v-2.133m.608-3.351 1.22 6.093.913 3.352.914 2.437.915.61 2.132 4.265 1.523 1.219 1.524 5.789 1.828 5.484h.305M9.499 827.257v-3.351m7.312 35.038 2.437 6.398.914 2.133 1.524 4.57 4.57 10.664.609.914 1.828 4.265.914 3.352 4.875 9.75v.304l4.57 9.14 1.828 3.047m-27.726-175.8.305-.609v-1.523m4.265 29.554 1.22-5.18-.305-7.008 1.218-3.96m-4.874 18.28h.61v-3.046l1.523-.305 1.218 2.437.61-1.218 1.218.914 2.742-8.836m-11.578-1.828.305 2.133-.609 5.484v4.57l.914 3.047 1.828-3.656 1.219.304-1.524-10.054.305-3.96.914-.915.305-2.133M12.545 738.9l.61-1.218m-8.836 30.467-.305 3.047.305.305v1.828m.61-10.36.304 1.829v5.789m0 0v-4.57l-.305 2.132-.305-1.523v1.523H4.32m2.133-21.327-.915 7.922v5.484l-.609 2.742m6.703-11.578h-.609l-.305-3.351.61-3.657.913-1.828v-2.132l.305-1.524m-1.523 12.492v1.219l-.61 2.133-1.828 2.437-.304 2.133-.914-3.047m0 0-.305 8.226.61.305v1.219l-1.829 7.312V771.5l-.305 1.219-.304-2.133m1.828-37.78-.61 4.874-.304 3.047-.305 2.438h.305l-.305 3.96.61-.304m5.179 4.57-.305 3.351v.61m-3.35 68.553-.306-2.743.305 2.743m-.61-2.438v.305l.61 2.133m-3.047-26.812-.305-.914.305 4.57m4.57 23.156v-.305l.305-.914.304 1.219m-6.093-35.953v-1.523l.305 2.438.304 5.484.305 2.133-.61-14.32-.304-5.18v-3.351l.305-.305m15.538-89.271-2.741 7.312m-7.617 28.64-1.22 6.703m78.608-146.246-1.219 1.524m2.438-3.352 4.874-4.265-.914.914m0 0 .61-.61-5.79 5.79m-2.437 1.523.61-.305 3.047-3.047m216.627 145.942 3.047 4.266.598.99-.714 4.819m0 0 3.213.357m0 0 4.106-6.783m0 0h3.39l1.964 2.856 7.14-.357-.024-2.072 5.528.004.029 1.89m0 0c-2.357.942 2.32-.179 2.32-.179m0 0v-1.606m0 0 2.5-1.25m0 0 3.57 2.5m0 0 1.605.713m0 0 4.82-6.247m0 0 .178-3.57m0 0-1.07-.714m0 0 3.034-.357m0 0-.179-1.963m0 0 1.963.892m0 0 .357 8.21m0 0 1.964.536.892 1.785m0 0v2.677m0 0 1.964-.892m0 0 .21-2.24v-2.742l1.218-1.523 1.22.914.913-5.18 2.438-3.96 1.828-.305 2.132-20.109h1.829l4.265-4.265" style="fill:#b9b9b9;fill-opacity:1;stroke:#fff;stroke-width:.59845901;stroke-miterlimit:4;stroke-opacity:1;stroke-dasharray:none;display:inline" transform="translate(0 -502.362)"/><path d="M140.274 539.524h96.584m0 0h177.628M40.035 639.764h167.269m0 0h307.42M3.17 776.869h193.166m0 0H551.59M40.035 913.974h167.269m0 0h307.42m-374.45 100.239h43.57l.61.305h52.404m0 0c59.284.089 118.491-.042 177.628-.305m-137.107 36.867c-19.746-1.032-31.391-20.099-40.217-35.952-12.473-25.009-18.968-49.222-25.289-76.17-13.709-66.29-17.506-136.14-14.624-205.658 3.07-54.687 9.666-109.491 25.898-160.261 8.208-23.257 18.12-50.457 39.303-65.811 4.713-2.683 9.454-4.577 14.93-4.57m0 548.422c-37.55.09-71.972-14.314-101.459-37.171-30.952-25.046-54.873-59.056-71.536-96.761-22.715-53.033-31.25-110.421-27.18-168.92 4.297-52.404 19.058-103.554 46.921-149.292 21.218-33.176 49.562-62.789 85.31-80.13 20.895-10.298 43.793-16.087 67.943-16.148m-.304 548.422c-53.387.04-105.563-16.673-149.902-47.225-44.958-31.494-79.57-76.133-99.326-128.27C11.71 832.659 6.477 785.76 12.31 739.698c5.778-42.161 21.52-83.955 45.782-119.9 32.292-47.133 79.5-84.34 134.283-102.82 27.257-9.566 55.744-14.222 85.005-14.32m.305 548.422c50.513-.01 99.223-15.41 141.676-43.57 42.524-29 76.206-69.94 97.05-118.232 19.44-45.6 26.661-95.428 21.165-145.314-5.652-47.642-23.58-95.101-52.709-134.363-27.387-37.607-64.427-67.5-108.16-86.53-31.505-13.355-64.703-20.355-99.327-20.413m0 548.422c36.224.025 68.864-15.398 95.974-38.999 41.452-37.148 67.273-90.893 79.826-144.418 14.662-61.057 14.072-128.245-1.828-188.901-13.942-53.693-41.238-107.459-84.7-142.59-25.963-20.755-56.11-33.444-89.272-33.514m0 548.422c14.423-1.228 22.007-17.714 27.421-29.858 13.93-32.539 19.013-65.822 24.375-99.935 9.253-70.688 10.944-144.317 7.007-216.627-3.495-49.724-8.886-99.495-21.815-145.577-6.466-19.356-12.288-41.914-29.37-54.292-2.389-1.096-4.727-2.248-7.618-2.133" style="fill:none;stroke:#000;stroke-width:.30163199;stroke-linecap:butt;stroke-linejoin:miter;stroke-miterlimit:4;stroke-opacity:.46666703;stroke-dasharray:none" transform="translate(0 -502.362)"/><path d="M283.804 406.327a44.62 44.62 0 0 1-2.973-.396l-1.736-.293-.848-1.693-.849-1.693-1.764 1.855c-1.431 1.504-1.796 1.823-1.925 1.684-.088-.095-1.566-2.428-3.284-5.185l-3.123-5.014-1.06-8.192-1.06-8.192-6.244-10.19-6.244-10.19-.09-1.308c-.09-1.303-.089-1.307.221-1.38.171-.04 1.864-.397 3.762-.792 1.898-.396 3.54-.746 3.647-.778.109-.033.792.41 1.55 1.004l1.354 1.062 10.17-.152 10.17-.15 1.062 1.056 1.062 1.057 2.644.172c1.453.094 4.023.299 5.71.456l3.066.284 6.446-1.205 6.446-1.206 1.69.14c1.35.112 1.724.186 1.856.367.092.125.122.27.069.324-.118.116-6.039 2.848-6.172 2.848-.05 0-.375-.465-.72-1.034-.436-.716-.728-1.06-.95-1.117-.314-.08-10.533 1.587-10.701 1.747-.062.057-.654 14.963-.636 15.998.002.123-.475.163-1.96.163-1.498 0-2.006.043-2.143.18-.26.26-.45 5.654-.46 13.168-.01 6.098-.246 14.454-.417 14.73-.05.08-.815.563-1.702 1.074-1.77 1.02-1.58.981-3.864.79z" style="fill:#346733;fill-opacity:1;stroke:#346733;stroke-width:.39418945;stroke-miterlimit:4;stroke-opacity:1;stroke-dasharray:none"/></svg>